<svg xmlns="http://www.w3.org/2000/svg" xml:space="preserve" style="enable-background:new 0 0 600.72 191.88" viewBox="0 0 600.72 191.88"><style>.st0{fill:none;stroke:#007f00;stroke-width:1.25;stroke-linecap:round;stroke-dasharray:4,5}.st1{fill:red}.st2{fill:#0000ad}</style><g id="レイヤー_2"><path d="M391.25 34.64v85.97M43.85 34.64v123.47M75.34 34.64v123.47M360.17 34.64v123.47" class="st0"/><path d="M46.95 39.14h2.68l4.78 9.73 1.53 3.45H56c-.1-1.65-.34-3.61-.34-5.39v-7.79h2.39v16.37h-2.68l-4.78-9.73-1.53-3.44H49c.1 1.71.34 3.57.34 5.32v7.85h-2.39V39.14zM61.95 39.14h2.68l4.78 9.73 1.53 3.45H71c-.1-1.65-.34-3.61-.34-5.39v-7.79h2.39v16.37h-2.68l-4.78-9.73-1.53-3.44H64c.1 1.71.34 3.57.34 5.32v7.85h-2.39V39.14z"/><path d="M76.26 47.35c0-5.34 3.1-8.51 7.34-8.51 2.18 0 3.63 1.02 4.58 2.02l-1.41 1.57c-.76-.79-1.67-1.4-3.17-1.4-2.83 0-4.73 2.38-4.73 6.24 0 3.92 1.69 6.33 4.73 6.33 1.01 0 1.97-.3 2.5-.83v-3.9h-3.02v-2.06h5.32v7.06c-1.04 1.04-2.83 1.92-4.95 1.92-4.12.02-7.19-3.06-7.19-8.44z" class="st1"/><path d="M91.95 39.14h2.68l4.78 9.73 1.53 3.45h.06c-.1-1.65-.34-3.61-.34-5.39v-7.79h2.39v16.37h-2.68l-4.78-9.73-1.53-3.44H94c.1 1.71.34 3.57.34 5.32v7.85h-2.39V39.14zM106.95 39.14h2.68l4.78 9.73 1.53 3.45h.06c-.1-1.65-.34-3.61-.34-5.39v-7.79h2.39v16.37h-2.68l-4.78-9.73-1.53-3.44H109c.1 1.71.34 3.57.34 5.32v7.85h-2.39V39.14zM121.94 39.14h2.68l4.78 9.73 1.53 3.45h.06c-.1-1.65-.34-3.61-.34-5.39v-7.79h2.39v16.37h-2.68l-4.78-9.73-1.53-3.44H124c.1 1.71.34 3.57.34 5.32v7.85h-2.39V39.14zM136.94 39.14h2.68l4.78 9.73 1.53 3.45h.06c-.1-1.65-.34-3.61-.34-5.39v-7.79h2.39v16.37h-2.68l-4.78-9.73-1.53-3.44H139c.1 1.71.34 3.57.34 5.32v7.85h-2.39V39.14zM151.94 39.14h2.68l4.78 9.73 1.53 3.45h.06c-.1-1.65-.34-3.61-.34-5.39v-7.79h2.39v16.37h-2.68l-4.78-9.73-1.53-3.44H154c.1 1.71.34 3.57.34 5.32v7.85h-2.39V39.14zM166.94 39.14h2.68l4.78 9.73 1.53 3.45h.06c-.1-1.65-.34-3.61-.34-5.39v-7.79h2.39v16.37h-2.68l-4.78-9.73-1.53-3.44H169c.1 1.71.34 3.57.34 5.32v7.85h-2.39V39.14zM181.94 39.14h2.68l4.78 9.73 1.53 3.45h.06c-.1-1.65-.34-3.61-.34-5.39v-7.79h2.39v16.37h-2.68l-4.78-9.73-1.53-3.44H184c.1 1.71.34 3.57.34 5.32v7.85h-2.39V39.14zM196.94 39.14h2.68l4.78 9.73 1.53 3.45h.06c-.1-1.65-.34-3.61-.34-5.39v-7.79h2.39v16.37h-2.68l-4.78-9.73-1.53-3.44H199c.1 1.71.34 3.57.34 5.32v7.85h-2.39V39.14zM211.94 39.14h2.68l4.78 9.73 1.53 3.45h.06c-.1-1.65-.34-3.61-.34-5.39v-7.79h2.39v16.37h-2.68l-4.78-9.73-1.53-3.44H214c.1 1.71.34 3.57.34 5.32v7.85h-2.39V39.14zM226.94 39.14h2.68l4.78 9.73 1.53 3.45h.06c-.1-1.65-.34-3.61-.34-5.39v-7.79h2.39v16.37h-2.68l-4.78-9.73-1.53-3.44H229c.1 1.71.34 3.57.34 5.32v7.85h-2.39V39.14zM241.94 39.14h2.68l4.78 9.73 1.53 3.45h.06c-.1-1.65-.34-3.61-.34-5.39v-7.79h2.39v16.37h-2.68l-4.78-9.73-1.53-3.44H244c.1 1.71.34 3.57.34 5.32v7.85h-2.39V39.14zM256.94 39.14h2.68l4.78 9.73 1.53 3.45h.06c-.1-1.65-.33-3.61-.33-5.39v-7.79h2.39v16.37h-2.68l-4.78-9.73-1.53-3.44H259c.1 1.71.33 3.57.33 5.32v7.85h-2.39V39.14zM271.94 39.14h2.68l4.78 9.73 1.53 3.45h.06c-.1-1.65-.33-3.61-.33-5.39v-7.79h2.39v16.37h-2.68l-4.78-9.73-1.53-3.44H274c.1 1.71.33 3.57.33 5.32v7.85h-2.39V39.14zM286.94 39.14h2.68l4.78 9.73 1.53 3.45h.06c-.1-1.65-.34-3.61-.34-5.39v-7.79h2.39v16.37h-2.68l-4.78-9.73-1.53-3.44H289c.1 1.71.34 3.57.34 5.32v7.85h-2.39V39.14zM301.94 39.14h2.68l4.78 9.73 1.53 3.45h.06c-.1-1.65-.34-3.61-.34-5.39v-7.79h2.39v16.37h-2.68l-4.78-9.73-1.53-3.44H304c.1 1.71.34 3.57.34 5.32v7.85h-2.39V39.14zM316.94 39.14h2.68l4.78 9.73 1.53 3.45h.06c-.1-1.65-.34-3.61-.34-5.39v-7.79h2.39v16.37h-2.68l-4.78-9.73-1.53-3.44H319c.1 1.71.33 3.57.33 5.32v7.85h-2.39V39.14zM331.94 39.14h2.68l4.78 9.73 1.53 3.45h.06c-.1-1.65-.33-3.61-.33-5.39v-7.79h2.39v16.37h-2.68l-4.78-9.73-1.53-3.44H334c.1 1.71.33 3.57.33 5.32v7.85h-2.39V39.14zM346.94 39.14h2.68l4.78 9.73 1.53 3.45h.06c-.1-1.65-.34-3.61-.34-5.39v-7.79h2.39v16.37h-2.68l-4.78-9.73-1.53-3.44H349c.1 1.71.34 3.57.34 5.32v7.85h-2.39V39.14zM361.94 39.14h2.68l4.78 9.73 1.53 3.45h.06c-.1-1.65-.34-3.61-.34-5.39v-7.79h2.39v16.37h-2.68l-4.78-9.73-1.53-3.44H364c.1 1.71.34 3.57.34 5.32v7.85h-2.39V39.14zM376.94 39.14h2.68l4.78 9.73 1.53 3.45h.06c-.1-1.65-.34-3.61-.34-5.39v-7.79h2.39v16.37h-2.68l-4.78-9.73-1.53-3.44H379c.1 1.71.34 3.57.34 5.32v7.85h-2.39V39.14zM31.33 113.62l1.19-1.62c1.07.93 2.34 1.76 4.3 1.76 2.12 0 3.78-1.26 3.78-3.33 0-2.04-1.47-3.21-3.64-3.21-1.25 0-1.99.29-3.1.91l-1.24-.79.5-7.76h9.2v2.14H35.3l-.38 4.25c.87-.36 1.63-.58 2.73-.58 3.02 0 5.47 1.55 5.47 4.98 0 3.47-2.88 5.44-5.98 5.44-2.84 0-4.56-1.05-5.81-2.19zM51.79 98.29h2.47l-.46 2.79-.93 4.12h-1.64l.56-6.91zM62.03 106.35h10.94v1.82H62.03v-1.82z"/><path d="M76.26 107.35c0-5.34 3.1-8.51 7.34-8.51 2.18 0 3.63 1.02 4.58 2.02l-1.41 1.57c-.76-.79-1.67-1.4-3.17-1.4-2.83 0-4.73 2.38-4.73 6.24 0 3.92 1.69 6.33 4.73 6.33 1.01 0 1.97-.3 2.5-.83v-3.9h-3.02v-2.06h5.32v7.06c-1.04 1.04-2.83 1.92-4.95 1.92-4.12.02-7.19-3.06-7.19-8.44z" class="st1"/><path d="M91.95 99.14h2.68l4.78 9.73 1.53 3.45h.06c-.1-1.65-.34-3.61-.34-5.39v-7.79h2.39v16.37h-2.68l-4.78-9.73-1.53-3.44H94c.1 1.71.34 3.57.34 5.32v7.85h-2.39V99.14zM106.95 99.14h2.68l4.78 9.73 1.53 3.45h.06c-.1-1.65-.34-3.61-.34-5.39v-7.79h2.39v16.37h-2.68l-4.78-9.73-1.53-3.44H109c.1 1.71.34 3.57.34 5.32v7.85h-2.39V99.14zM121.94 99.14h2.68l4.78 9.73 1.53 3.45h.06c-.1-1.65-.34-3.61-.34-5.39v-7.79h2.39v16.37h-2.68l-4.78-9.73-1.53-3.44H124c.1 1.71.34 3.57.34 5.32v7.85h-2.39V99.14zM136.94 99.14h2.68l4.78 9.73 1.53 3.45h.06c-.1-1.65-.34-3.61-.34-5.39v-7.79h2.39v16.37h-2.68l-4.78-9.73-1.53-3.44H139c.1 1.71.34 3.57.34 5.32v7.85h-2.39V99.14zM151.94 99.14h2.68l4.78 9.73 1.53 3.45h.06c-.1-1.65-.34-3.61-.34-5.39v-7.79h2.39v16.37h-2.68l-4.78-9.73-1.53-3.44H154c.1 1.71.34 3.57.34 5.32v7.85h-2.39V99.14zM166.94 99.14h2.68l4.78 9.73 1.53 3.45h.06c-.1-1.65-.34-3.61-.34-5.39v-7.79h2.39v16.37h-2.68l-4.78-9.73-1.53-3.44H169c.1 1.71.34 3.57.34 5.32v7.85h-2.39V99.14zM181.94 99.14h2.68l4.78 9.73 1.53 3.45h.06c-.1-1.65-.34-3.61-.34-5.39v-7.79h2.39v16.37h-2.68l-4.78-9.73-1.53-3.44H184c.1 1.71.34 3.57.34 5.32v7.85h-2.39V99.14zM196.94 99.14h2.68l4.78 9.73 1.53 3.45h.06c-.1-1.65-.34-3.61-.34-5.39v-7.79h2.39v16.37h-2.68l-4.78-9.73-1.53-3.44H199c.1 1.71.34 3.57.34 5.32v7.85h-2.39V99.14zM211.94 99.14h2.68l4.78 9.73 1.53 3.45h.06c-.1-1.65-.34-3.61-.34-5.39v-7.79h2.39v16.37h-2.68l-4.78-9.73-1.53-3.44H214c.1 1.71.34 3.57.34 5.32v7.85h-2.39V99.14zM226.94 99.14h2.68l4.78 9.73 1.53 3.45h.06c-.1-1.65-.34-3.61-.34-5.39v-7.79h2.39v16.37h-2.68l-4.78-9.73-1.53-3.44H229c.1 1.71.34 3.57.34 5.32v7.85h-2.39V99.14zM241.94 99.14h2.68l4.78 9.73 1.53 3.45h.06c-.1-1.65-.34-3.61-.34-5.39v-7.79h2.39v16.37h-2.68l-4.78-9.73-1.53-3.44H244c.1 1.71.34 3.57.34 5.32v7.85h-2.39V99.14zM256.94 99.14h2.68l4.78 9.73 1.53 3.45h.06c-.1-1.65-.33-3.61-.33-5.39v-7.79h2.39v16.37h-2.68l-4.78-9.73-1.53-3.44H259c.1 1.71.33 3.57.33 5.32v7.85h-2.39V99.14zM271.94 99.14h2.68l4.78 9.73 1.53 3.45h.06c-.1-1.65-.33-3.61-.33-5.39v-7.79h2.39v16.37h-2.68l-4.78-9.73-1.53-3.44H274c.1 1.71.33 3.57.33 5.32v7.85h-2.39V99.14zM286.94 99.14h2.68l4.78 9.73 1.53 3.45h.06c-.1-1.65-.34-3.61-.34-5.39v-7.79h2.39v16.37h-2.68l-4.78-9.73-1.53-3.44H289c.1 1.71.34 3.57.34 5.32v7.85h-2.39V99.14zM301.94 99.14h2.68l4.78 9.73 1.53 3.45h.06c-.1-1.65-.34-3.61-.34-5.39v-7.79h2.39v16.37h-2.68l-4.78-9.73-1.53-3.44H304c.1 1.71.34 3.57.34 5.32v7.85h-2.39V99.14zM316.94 99.14h2.68l4.78 9.73 1.53 3.45h.06c-.1-1.65-.34-3.61-.34-5.39v-7.79h2.39v16.37h-2.68l-4.78-9.73-1.53-3.44H319c.1 1.71.33 3.57.33 5.32v7.85h-2.39V99.14zM331.94 99.14h2.68l4.78 9.73 1.53 3.45h.06c-.1-1.65-.33-3.61-.33-5.39v-7.79h2.39v16.37h-2.68l-4.78-9.73-1.53-3.44H334c.1 1.71.33 3.57.33 5.32v7.85h-2.39V99.14zM346.94 99.14h2.68l4.78 9.73 1.53 3.45h.06c-.1-1.65-.34-3.61-.34-5.39v-7.79h2.39v16.37h-2.68l-4.78-9.73-1.53-3.44H349c.1 1.71.34 3.57.34 5.32v7.85h-2.39V99.14zM361.94 99.14h2.68l4.78 9.73 1.53 3.45h.06c-.1-1.65-.34-3.61-.34-5.39v-7.79h2.39v16.37h-2.68l-4.78-9.73-1.53-3.44H364c.1 1.71.34 3.57.34 5.32v7.85h-2.39V99.14zM376.94 99.14h2.68l4.78 9.73 1.53 3.45h.06c-.1-1.65-.34-3.61-.34-5.39v-7.79h2.39v16.37h-2.68l-4.78-9.73-1.53-3.44H379c.1 1.71.34 3.57.34 5.32v7.85h-2.39V99.14zM392.02 106.35h10.94v1.82h-10.94v-1.82zM406.32 113.56l1.22-1.6c1.05.98 2.5 1.8 4.39 1.8 2.06 0 3.58-1.01 3.58-2.64 0-1.77-1.46-2.94-5.52-2.94v-1.84c3.6 0 4.98-1.19 4.98-2.75 0-1.42-1.22-2.3-3.02-2.3-1.43 0-2.72.63-3.78 1.54l-1.3-1.54c1.38-1.18 3.12-2.01 5.17-2.01 3.12 0 5.43 1.5 5.43 4.13 0 1.85-1.35 3.06-3.31 3.73v.1c2.09.47 3.85 1.84 3.85 4 0 2.86-2.69 4.57-5.91 4.57-2.72 0-4.59-1.03-5.78-2.25zM426.79 98.29h2.47l-.46 2.79-.93 4.12h-1.64l.56-6.91z"/><path d="M80.24 120.54c0-1.35.97-2.33 2.25-2.33s2.25.99 2.25 2.33c0 1.37-.97 2.33-2.25 2.33-1.27 0-2.25-.96-2.25-2.33zm0 8.72c0-1.35.97-2.33 2.25-2.33s2.25.99 2.25 2.33c0 1.37-.97 2.33-2.25 2.33-1.27.01-2.25-.95-2.25-2.33z" class="st1"/><path d="M95.24 120.54c0-1.35.97-2.33 2.25-2.33s2.25.99 2.25 2.33c0 1.37-.97 2.33-2.25 2.33-1.27 0-2.25-.96-2.25-2.33zm0 8.72c0-1.35.97-2.33 2.25-2.33s2.25.99 2.25 2.33c0 1.37-.97 2.33-2.25 2.33-1.27.01-2.25-.95-2.25-2.33zM110.24 120.54c0-1.35.97-2.33 2.25-2.33s2.25.99 2.25 2.33c0 1.37-.97 2.33-2.25 2.33-1.27 0-2.25-.96-2.25-2.33zm0 8.72c0-1.35.97-2.33 2.25-2.33s2.25.99 2.25 2.33c0 1.37-.97 2.33-2.25 2.33-1.27.01-2.25-.95-2.25-2.33zM125.24 120.54c0-1.35.97-2.33 2.25-2.33s2.25.99 2.25 2.33c0 1.37-.97 2.33-2.25 2.33-1.27 0-2.25-.96-2.25-2.33zm0 8.72c0-1.35.97-2.33 2.25-2.33s2.25.99 2.25 2.33c0 1.37-.97 2.33-2.25 2.33-1.27.01-2.25-.95-2.25-2.33zM140.24 120.54c0-1.35.97-2.33 2.25-2.33s2.25.99 2.25 2.33c0 1.37-.97 2.33-2.25 2.33-1.27 0-2.25-.96-2.25-2.33zm0 8.72c0-1.35.97-2.33 2.25-2.33s2.25.99 2.25 2.33c0 1.37-.97 2.33-2.25 2.33-1.27.01-2.25-.95-2.25-2.33zM155.24 120.54c0-1.35.97-2.33 2.25-2.33s2.25.99 2.25 2.33c0 1.37-.97 2.33-2.25 2.33-1.27 0-2.25-.96-2.25-2.33zm0 8.72c0-1.35.97-2.33 2.25-2.33s2.25.99 2.25 2.33c0 1.37-.97 2.33-2.25 2.33-1.27.01-2.25-.95-2.25-2.33zM170.24 120.54c0-1.35.97-2.33 2.25-2.33s2.25.99 2.25 2.33c0 1.37-.97 2.33-2.25 2.33-1.27 0-2.25-.96-2.25-2.33zm0 8.72c0-1.35.97-2.33 2.25-2.33s2.25.99 2.25 2.33c0 1.37-.97 2.33-2.25 2.33-1.27.01-2.25-.95-2.25-2.33zM185.24 120.54c0-1.35.97-2.33 2.25-2.33s2.25.99 2.25 2.33c0 1.37-.97 2.33-2.25 2.33-1.27 0-2.25-.96-2.25-2.33zm0 8.72c0-1.35.97-2.33 2.25-2.33s2.25.99 2.25 2.33c0 1.37-.97 2.33-2.25 2.33-1.27.01-2.25-.95-2.25-2.33zM200.24 120.54c0-1.35.97-2.33 2.25-2.33s2.25.99 2.25 2.33c0 1.37-.97 2.33-2.25 2.33-1.27 0-2.25-.96-2.25-2.33zm0 8.72c0-1.35.97-2.33 2.25-2.33s2.25.99 2.25 2.33c0 1.37-.97 2.33-2.25 2.33-1.27.01-2.25-.95-2.25-2.33zM215.24 120.54c0-1.35.97-2.33 2.25-2.33s2.25.99 2.25 2.33c0 1.37-.97 2.33-2.25 2.33-1.27 0-2.25-.96-2.25-2.33zm0 8.72c0-1.35.97-2.33 2.25-2.33s2.25.99 2.25 2.33c0 1.37-.97 2.33-2.25 2.33-1.27.01-2.25-.95-2.25-2.33zM230.24 120.54c0-1.35.97-2.33 2.25-2.33s2.25.99 2.25 2.33c0 1.37-.97 2.33-2.25 2.33-1.27 0-2.25-.96-2.25-2.33zm0 8.72c0-1.35.97-2.33 2.25-2.33s2.25.99 2.25 2.33c0 1.37-.97 2.33-2.25 2.33-1.27.01-2.25-.95-2.25-2.33zM245.24 120.54c0-1.35.97-2.33 2.25-2.33s2.25.99 2.25 2.33c0 1.37-.97 2.33-2.25 2.33-1.27 0-2.25-.96-2.25-2.33zm0 8.72c0-1.35.97-2.33 2.25-2.33s2.25.99 2.25 2.33c0 1.37-.97 2.33-2.25 2.33-1.27.01-2.25-.95-2.25-2.33zM260.24 120.54c0-1.35.97-2.33 2.25-2.33s2.25.99 2.25 2.33c0 1.37-.97 2.33-2.25 2.33-1.27 0-2.25-.96-2.25-2.33zm0 8.72c0-1.35.97-2.33 2.25-2.33s2.25.99 2.25 2.33c0 1.37-.97 2.33-2.25 2.33-1.27.01-2.25-.95-2.25-2.33zM275.24 120.54c0-1.35.97-2.33 2.25-2.33s2.25.99 2.25 2.33c0 1.37-.97 2.33-2.25 2.33-1.27 0-2.25-.96-2.25-2.33zm0 8.72c0-1.35.97-2.33 2.25-2.33s2.25.99 2.25 2.33c0 1.37-.97 2.33-2.25 2.33-1.27.01-2.25-.95-2.25-2.33zM290.24 120.54c0-1.35.97-2.33 2.25-2.33s2.25.99 2.25 2.33c0 1.37-.97 2.33-2.25 2.33s-2.25-.96-2.25-2.33zm0 8.72c0-1.35.97-2.33 2.25-2.33s2.25.99 2.25 2.33c0 1.37-.97 2.33-2.25 2.33-1.28.01-2.25-.95-2.25-2.33zM305.24 120.54c0-1.35.97-2.33 2.25-2.33s2.25.99 2.25 2.33c0 1.37-.97 2.33-2.25 2.33s-2.25-.96-2.25-2.33zm0 8.72c0-1.35.97-2.33 2.25-2.33s2.25.99 2.25 2.33c0 1.37-.97 2.33-2.25 2.33-1.28.01-2.25-.95-2.25-2.33zM320.24 120.54c0-1.35.97-2.33 2.25-2.33s2.25.99 2.25 2.33c0 1.37-.97 2.33-2.25 2.33s-2.25-.96-2.25-2.33zm0 8.72c0-1.35.97-2.33 2.25-2.33s2.25.99 2.25 2.33c0 1.37-.97 2.33-2.25 2.33-1.28.01-2.25-.95-2.25-2.33zM335.24 120.54c0-1.35.97-2.33 2.25-2.33s2.25.99 2.25 2.33c0 1.37-.97 2.33-2.25 2.33s-2.25-.96-2.25-2.33zm0 8.72c0-1.35.97-2.33 2.25-2.33s2.25.99 2.25 2.33c0 1.37-.97 2.33-2.25 2.33-1.28.01-2.25-.95-2.25-2.33zM350.24 120.54c0-1.35.97-2.33 2.25-2.33s2.25.99 2.25 2.33c0 1.37-.97 2.33-2.25 2.33s-2.25-.96-2.25-2.33zm0 8.72c0-1.35.97-2.33 2.25-2.33s2.25.99 2.25 2.33c0 1.37-.97 2.33-2.25 2.33-1.28.01-2.25-.95-2.25-2.33zM1.33 149.35l1.22-1.6c1.05.98 2.5 1.8 4.39 1.8 2.06 0 3.58-1.01 3.58-2.64 0-1.77-1.46-2.94-5.52-2.94v-1.84c3.6 0 4.98-1.19 4.98-2.75 0-1.42-1.22-2.3-3.02-2.3-1.43 0-2.72.63-3.78 1.54l-1.3-1.54c1.38-1.18 3.12-2.01 5.17-2.01 3.12 0 5.43 1.5 5.43 4.13 0 1.85-1.35 3.06-3.31 3.73v.1c2.09.47 3.85 1.84 3.85 4 0 2.86-2.69 4.57-5.91 4.57-2.73 0-4.59-1.03-5.78-2.25zM21.79 134.08h2.47l-.46 2.79-.93 4.12h-1.64l.56-6.91zM32.03 142.14h10.94v1.82H32.03v-1.82zM46.95 134.93h2.68l4.78 9.73 1.53 3.45H56c-.1-1.65-.34-3.61-.34-5.39v-7.79h2.39v16.37h-2.68l-4.78-9.73-1.53-3.44H49c.1 1.71.34 3.57.34 5.32v7.85h-2.39v-16.37zM61.95 134.93h2.68l4.78 9.73 1.53 3.45H71c-.1-1.65-.34-3.61-.34-5.39v-7.79h2.39v16.37h-2.68l-4.78-9.73-1.53-3.44H64c.1 1.71.34 3.57.34 5.32v7.85h-2.39v-16.37z"/><path d="M76.55 143.14c0-5.31 3.16-8.51 7.46-8.51 2 0 3.58.96 4.59 2.02l-1.41 1.57c-.83-.85-1.85-1.4-3.18-1.4-2.91 0-4.87 2.38-4.87 6.24 0 3.92 1.96 6.33 4.91 6.33 1.42 0 2.52-.63 3.48-1.71l1.41 1.52c-1.29 1.52-2.96 2.38-5.14 2.38-4.04.02-7.25-3.06-7.25-8.44z" class="st1"/><path d="M91.95 134.93h2.68l4.78 9.73 1.53 3.45h.06c-.1-1.65-.34-3.61-.34-5.39v-7.79h2.39v16.37h-2.68l-4.78-9.73-1.53-3.44H94c.1 1.71.34 3.57.34 5.32v7.85h-2.39v-16.37zM106.95 134.93h2.68l4.78 9.73 1.53 3.45h.06c-.1-1.65-.34-3.61-.34-5.39v-7.79h2.39v16.37h-2.68l-4.78-9.73-1.53-3.44H109c.1 1.71.34 3.57.34 5.32v7.85h-2.39v-16.37zM121.94 134.93h2.68l4.78 9.73 1.53 3.45h.06c-.1-1.65-.34-3.61-.34-5.39v-7.79h2.39v16.37h-2.68l-4.78-9.73-1.53-3.44H124c.1 1.71.34 3.57.34 5.32v7.85h-2.39v-16.37zM136.94 134.93h2.68l4.78 9.73 1.53 3.45h.06c-.1-1.65-.34-3.61-.34-5.39v-7.79h2.39v16.37h-2.68l-4.78-9.73-1.53-3.44H139c.1 1.71.34 3.57.34 5.32v7.85h-2.39v-16.37zM151.94 134.93h2.68l4.78 9.73 1.53 3.45h.06c-.1-1.65-.34-3.61-.34-5.39v-7.79h2.39v16.37h-2.68l-4.78-9.73-1.53-3.44H154c.1 1.71.34 3.57.34 5.32v7.85h-2.39v-16.37zM166.94 134.93h2.68l4.78 9.73 1.53 3.45h.06c-.1-1.65-.34-3.61-.34-5.39v-7.79h2.39v16.37h-2.68l-4.78-9.73-1.53-3.44H169c.1 1.71.34 3.57.34 5.32v7.85h-2.39v-16.37zM181.94 134.93h2.68l4.78 9.73 1.53 3.45h.06c-.1-1.65-.34-3.61-.34-5.39v-7.79h2.39v16.37h-2.68l-4.78-9.73-1.53-3.44H184c.1 1.71.34 3.57.34 5.32v7.85h-2.39v-16.37zM196.94 134.93h2.68l4.78 9.73 1.53 3.45h.06c-.1-1.65-.34-3.61-.34-5.39v-7.79h2.39v16.37h-2.68l-4.78-9.73-1.53-3.44H199c.1 1.71.34 3.57.34 5.32v7.85h-2.39v-16.37zM211.94 134.93h2.68l4.78 9.73 1.53 3.45h.06c-.1-1.65-.34-3.61-.34-5.39v-7.79h2.39v16.37h-2.68l-4.78-9.73-1.53-3.44H214c.1 1.71.34 3.57.34 5.32v7.85h-2.39v-16.37zM226.94 134.93h2.68l4.78 9.73 1.53 3.45h.06c-.1-1.65-.34-3.61-.34-5.39v-7.79h2.39v16.37h-2.68l-4.78-9.73-1.53-3.44H229c.1 1.71.34 3.57.34 5.32v7.85h-2.39v-16.37zM241.94 134.93h2.68l4.78 9.73 1.53 3.45h.06c-.1-1.65-.34-3.61-.34-5.39v-7.79h2.39v16.37h-2.68l-4.78-9.73-1.53-3.44H244c.1 1.71.34 3.57.34 5.32v7.85h-2.39v-16.37zM256.94 134.93h2.68l4.78 9.73 1.53 3.45h.06c-.1-1.65-.33-3.61-.33-5.39v-7.79h2.39v16.37h-2.68l-4.78-9.73-1.53-3.44H259c.1 1.71.33 3.57.33 5.32v7.85h-2.39v-16.37zM271.94 134.93h2.68l4.78 9.73 1.53 3.45h.06c-.1-1.65-.33-3.61-.33-5.39v-7.79h2.39v16.37h-2.68l-4.78-9.73-1.53-3.44H274c.1 1.71.33 3.57.33 5.32v7.85h-2.39v-16.37zM286.94 134.93h2.68l4.78 9.73 1.53 3.45h.06c-.1-1.65-.34-3.61-.34-5.39v-7.79h2.39v16.37h-2.68l-4.78-9.73-1.53-3.44H289c.1 1.71.34 3.57.34 5.32v7.85h-2.39v-16.37zM301.94 134.93h2.68l4.78 9.73 1.53 3.45h.06c-.1-1.65-.34-3.61-.34-5.39v-7.79h2.39v16.37h-2.68l-4.78-9.73-1.53-3.44H304c.1 1.71.34 3.57.34 5.32v7.85h-2.39v-16.37zM316.94 134.93h2.68l4.78 9.73 1.53 3.45h.06c-.1-1.65-.34-3.61-.34-5.39v-7.79h2.39v16.37h-2.68l-4.78-9.73-1.53-3.44H319c.1 1.71.33 3.57.33 5.32v7.85h-2.39v-16.37zM331.94 134.93h2.68l4.78 9.73 1.53 3.45h.06c-.1-1.65-.33-3.61-.33-5.39v-7.79h2.39v16.37h-2.68l-4.78-9.73-1.53-3.44H334c.1 1.71.33 3.57.33 5.32v7.85h-2.39v-16.37zM346.94 134.93h2.68l4.78 9.73 1.53 3.45h.06c-.1-1.65-.34-3.61-.34-5.39v-7.79h2.39v16.37h-2.68l-4.78-9.73-1.53-3.44H349c.1 1.71.34 3.57.34 5.32v7.85h-2.39v-16.37zM362.02 142.14h10.94v1.82h-10.94v-1.82zM376.33 149.41l1.19-1.62c1.07.93 2.34 1.76 4.3 1.76 2.12 0 3.78-1.26 3.78-3.33 0-2.04-1.47-3.21-3.64-3.21-1.25 0-1.99.29-3.1.91l-1.24-.79.5-7.76h9.21v2.14h-7.03l-.38 4.25c.87-.36 1.63-.58 2.73-.58 3.02 0 5.47 1.55 5.47 4.98 0 3.47-2.88 5.44-5.98 5.44-2.84 0-4.56-1.05-5.81-2.19zM396.79 134.08h2.47l-.46 2.79-.93 4.12h-1.64l.56-6.91z"/><path d="M181.75 174.79c-1.07-.36-1.85-.57-3.12-.57-.94 0-2.05.34-2.05 1.48 0 2.13 6.06.78 6.06 5.62 0 3.12-2.78 4.37-5.62 4.37-1.33 0-2.68-.23-3.95-.57l.21-2.86c1.09.55 2.24.88 3.43.88.88 0 2.29-.34 2.29-1.64 0-2.63-6.06-.83-6.06-5.67 0-2.89 2.52-4.16 5.25-4.16 1.64 0 2.7.26 3.8.49l-.24 2.63zM185.42 166.21h3.48v3.33h-3.48v-3.33zm0 5.78h3.48v13.39h-3.48v-13.39zM192.57 167.23h3.93c3.9 0 8.55-.13 8.55 4.91 0 2.13-1.43 3.9-3.74 4.21v.05c.99.08 1.56 1.07 1.92 1.87l2.91 7.1h-4.06l-2.18-5.67c-.52-1.35-.99-1.87-2.52-1.87h-1.17v7.54h-3.64v-18.14zm3.64 7.75h1.2c1.79 0 3.85-.26 3.85-2.52 0-2.18-2.03-2.37-3.85-2.37h-1.2v4.89zM208.58 167.23h4.47l6.92 13.57h.05v-13.57h3.48v18.15h-4.45l-6.94-13.57h-.05v13.57h-3.48v-18.15zM232.74 167.23h4.11l7.12 18.15h-4.03l-1.56-4.16h-7.36l-1.59 4.16h-3.77l7.08-18.15zm2 3.64h-.05l-2.63 7.49h5.3l-2.62-7.49zM446.69 109.23c-.82-.28-1.42-.44-2.4-.44-.72 0-1.58.26-1.58 1.14 0 1.64 4.66.6 4.66 4.32 0 2.4-2.14 3.36-4.32 3.36-1.02 0-2.06-.18-3.04-.44l.16-2.2c.84.42 1.72.68 2.64.68.68 0 1.76-.26 1.76-1.26 0-2.02-4.66-.64-4.66-4.36 0-2.22 1.94-3.2 4.04-3.2 1.26 0 2.08.2 2.92.38l-.18 2.02zM457.71 116.8c-.98.54-2.1.82-3.54.82-3.4 0-5.38-1.96-5.38-5.34 0-2.98 1.58-5.44 4.78-5.44 3.82 0 4.9 2.62 4.9 6.22h-7.12c.12 1.66 1.28 2.6 2.94 2.6 1.3 0 2.42-.48 3.42-1.04v2.18zm-1.8-5.59c-.08-1.3-.68-2.42-2.18-2.42s-2.26 1.04-2.38 2.42h4.56zM460.57 107.07h2.54v1.4h.04c.84-1.18 1.98-1.64 3.38-1.64 2.44 0 3.5 1.72 3.5 4.04v6.5h-2.68v-5.5c0-1.26-.02-2.96-1.74-2.96-1.94 0-2.36 2.1-2.36 3.42v5.04h-2.68v-10.3zM478.91 109.23c-.82-.28-1.42-.44-2.4-.44-.72 0-1.58.26-1.58 1.14 0 1.64 4.66.6 4.66 4.32 0 2.4-2.14 3.36-4.32 3.36-1.02 0-2.06-.18-3.04-.44l.16-2.2c.84.42 1.72.68 2.64.68.68 0 1.76-.26 1.76-1.26 0-2.02-4.66-.64-4.66-4.36 0-2.22 1.94-3.2 4.04-3.2 1.26 0 2.08.2 2.92.38l-.18 2.02zM489.93 116.8c-.98.54-2.1.82-3.54.82-3.4 0-5.38-1.96-5.38-5.34 0-2.98 1.58-5.44 4.78-5.44 3.82 0 4.9 2.62 4.9 6.22h-7.12c.12 1.66 1.28 2.6 2.94 2.6 1.3 0 2.42-.48 3.42-1.04v2.18zm-1.8-5.59c-.08-1.3-.68-2.42-2.18-2.42s-2.26 1.04-2.38 2.42h4.56zM498.35 103.41h3.02c3 0 6.58-.1 6.58 3.78 0 1.64-1.1 3-2.88 3.24v.04c.76.06 1.2.82 1.48 1.44l2.24 5.46h-3.12l-1.68-4.36c-.4-1.04-.76-1.44-1.94-1.44h-.9v5.8h-2.8v-13.96zm2.8 5.96h.92c1.38 0 2.96-.2 2.96-1.94 0-1.68-1.56-1.82-2.96-1.82h-.92v3.76zM510.67 103.41h3.44l5.32 10.44h.04v-10.44h2.68v13.96h-3.42l-5.34-10.44h-.04v10.44h-2.68v-13.96zM529.25 103.41h3.16l5.48 13.96h-3.1l-1.2-3.2h-5.66l-1.22 3.2h-2.9l5.44-13.96zm1.54 2.8h-.04l-2.02 5.76h4.08l-2.02-5.76zM549.73 106.83c3.06 0 5.4 2.06 5.4 5.46 0 2.96-1.98 5.32-5.4 5.32-3.4 0-5.38-2.36-5.38-5.32 0-3.4 2.34-5.46 5.38-5.46zm0 8.71c2.06 0 2.6-1.84 2.6-3.56 0-1.58-.84-3.06-2.6-3.06-1.74 0-2.58 1.52-2.58 3.06 0 1.7.54 3.56 2.58 3.56zM557.29 102.37h2.68v15h-2.68v-15zM562.85 102.63h2.68v2.56h-2.68v-2.56zm0 4.44h2.68v10.3h-2.68v-10.3zM577.81 107.07v9.3c0 2.8-1.12 5.44-5.44 5.44-1.06 0-2.28-.16-3.56-.7l.22-2.28c.82.44 2.16.9 3 .9 2.96 0 3.1-2.22 3.1-4h-.04c-.5.88-1.7 1.64-3.2 1.64-3.04 0-4.2-2.44-4.2-5.2 0-2.48 1.28-5.34 4.36-5.34 1.36 0 2.42.46 3.16 1.64h.04v-1.4h2.56zm-2.68 5.04c0-1.76-.68-3.2-2.24-3.2-1.82 0-2.4 1.68-2.4 3.26 0 1.4.74 3.12 2.28 3.12 1.68.01 2.36-1.45 2.36-3.18zM585.29 106.83c3.06 0 5.4 2.06 5.4 5.46 0 2.96-1.98 5.32-5.4 5.32-3.4 0-5.38-2.36-5.38-5.32 0-3.4 2.34-5.46 5.38-5.46zm0 8.71c2.06 0 2.6-1.84 2.6-3.56 0-1.58-.84-3.06-2.6-3.06-1.74 0-2.58 1.52-2.58 3.06 0 1.7.54 3.56 2.58 3.56zM413.66 140.61c1.04-.48 2.44-.78 3.58-.78 3.14 0 4.44 1.3 4.44 4.34v1.32c0 1.04.02 1.82.04 2.58.02.78.06 1.5.12 2.3h-2.36c-.1-.54-.1-1.22-.12-1.54h-.04c-.62 1.14-1.96 1.78-3.18 1.78-1.82 0-3.6-1.1-3.6-3.06 0-1.54.74-2.44 1.76-2.94s2.34-.6 3.46-.6h1.48c0-1.66-.74-2.22-2.32-2.22-1.14 0-2.28.44-3.18 1.12l-.08-2.3zm3.14 8.05c.82 0 1.46-.36 1.88-.92.44-.58.56-1.32.56-2.12h-1.16c-1.2 0-2.98.2-2.98 1.78 0 .88.74 1.26 1.7 1.26zM424.32 140.07h2.54v1.4h.04c.84-1.18 1.98-1.64 3.38-1.64 2.44 0 3.5 1.72 3.5 4.04v6.5h-2.68v-5.5c0-1.26-.02-2.96-1.74-2.96-1.94 0-2.36 2.1-2.36 3.42v5.04h-2.68v-10.3zM437.42 142.03h-1.98v-1.96h1.98v-2.06l2.68-.86v2.92h2.38v1.96h-2.38v4.8c0 .88.24 1.7 1.26 1.7.48 0 .94-.1 1.22-.28l.08 2.12c-.56.16-1.18.24-1.98.24-2.1 0-3.26-1.3-3.26-3.34v-5.24zM444.38 135.63h2.68v2.56h-2.68v-2.56zm0 4.44h2.68v10.3h-2.68v-10.3zM456 142.23c-.82-.28-1.42-.44-2.4-.44-.72 0-1.58.26-1.58 1.14 0 1.64 4.66.6 4.66 4.32 0 2.4-2.14 3.36-4.32 3.36-1.02 0-2.06-.18-3.04-.44l.16-2.2c.84.42 1.72.68 2.64.68.68 0 1.76-.26 1.76-1.26 0-2.02-4.66-.64-4.66-4.36 0-2.22 1.94-3.2 4.04-3.2 1.26 0 2.08.2 2.92.38l-.18 2.02zM467.02 149.8c-.98.54-2.1.82-3.54.82-3.4 0-5.38-1.96-5.38-5.34 0-2.98 1.58-5.44 4.78-5.44 3.82 0 4.9 2.62 4.9 6.22h-7.12c.12 1.66 1.28 2.6 2.94 2.6 1.3 0 2.42-.48 3.42-1.04v2.18zm-1.8-5.59c-.08-1.3-.68-2.42-2.18-2.42s-2.26 1.04-2.38 2.42h4.56zM469.88 140.07h2.54v1.4h.04c.84-1.18 1.98-1.64 3.38-1.64 2.44 0 3.5 1.72 3.5 4.04v6.5h-2.68v-5.5c0-1.26-.02-2.96-1.74-2.96-1.94 0-2.36 2.1-2.36 3.42v5.04h-2.68v-10.3zM488.22 142.23c-.82-.28-1.42-.44-2.4-.44-.72 0-1.58.26-1.58 1.14 0 1.64 4.66.6 4.66 4.32 0 2.4-2.14 3.36-4.32 3.36-1.02 0-2.06-.18-3.04-.44l.16-2.2c.84.42 1.72.68 2.64.68.68 0 1.76-.26 1.76-1.26 0-2.02-4.66-.64-4.66-4.36 0-2.22 1.94-3.2 4.04-3.2 1.26 0 2.08.2 2.92.38l-.18 2.02zM499.24 149.8c-.98.54-2.1.82-3.54.82-3.4 0-5.38-1.96-5.38-5.34 0-2.98 1.58-5.44 4.78-5.44 3.82 0 4.9 2.62 4.9 6.22h-7.12c.12 1.66 1.28 2.6 2.94 2.6 1.3 0 2.42-.48 3.42-1.04v2.18zm-1.8-5.59c-.08-1.3-.68-2.42-2.18-2.42s-2.26 1.04-2.38 2.42h4.56zM507.66 136.41h3.02c3 0 6.58-.1 6.58 3.78 0 1.64-1.1 3-2.88 3.24v.04c.76.06 1.2.82 1.48 1.44l2.24 5.46h-3.12l-1.68-4.36c-.4-1.04-.76-1.44-1.94-1.44h-.9v5.8h-2.8v-13.96zm2.8 5.96h.92c1.38 0 2.96-.2 2.96-1.94 0-1.68-1.56-1.82-2.96-1.82h-.92v3.76zM519.98 136.41h3.44l5.32 10.44h.04v-10.44h2.68v13.96h-3.42l-5.34-10.44h-.04v10.44h-2.68v-13.96zM538.56 136.41h3.16l5.48 13.96h-3.1l-1.2-3.2h-5.66l-1.22 3.2h-2.9l5.44-13.96zm1.54 2.8h-.04l-2.02 5.76h4.08l-2.02-5.76zM559.04 139.83c3.06 0 5.4 2.06 5.4 5.46 0 2.96-1.98 5.32-5.4 5.32-3.4 0-5.38-2.36-5.38-5.32 0-3.4 2.34-5.46 5.38-5.46zm0 8.71c2.06 0 2.6-1.84 2.6-3.56 0-1.58-.84-3.06-2.6-3.06-1.74 0-2.58 1.52-2.58 3.06 0 1.69.54 3.56 2.58 3.56zM566.6 135.37h2.68v15h-2.68v-15zM572.16 135.63h2.68v2.56h-2.68v-2.56zm0 4.44h2.68v10.3h-2.68v-10.3zM587.12 140.07v9.3c0 2.8-1.12 5.44-5.44 5.44-1.06 0-2.28-.16-3.56-.7l.22-2.28c.82.44 2.16.9 3 .9 2.96 0 3.1-2.22 3.1-4h-.04c-.5.88-1.7 1.64-3.2 1.64-3.04 0-4.2-2.44-4.2-5.2 0-2.48 1.28-5.34 4.36-5.34 1.36 0 2.42.46 3.16 1.64h.04v-1.4h2.56zm-2.68 5.05c0-1.76-.68-3.2-2.24-3.2-1.82 0-2.4 1.68-2.4 3.26 0 1.4.74 3.12 2.28 3.12 1.68 0 2.36-1.47 2.36-3.18zM594.6 139.83c3.06 0 5.4 2.06 5.4 5.46 0 2.96-1.98 5.32-5.4 5.32-3.4 0-5.38-2.36-5.38-5.32 0-3.4 2.34-5.46 5.38-5.46zm0 8.71c2.06 0 2.6-1.84 2.6-3.56 0-1.58-.84-3.06-2.6-3.06-1.74 0-2.58 1.52-2.58 3.06 0 1.69.54 3.56 2.58 3.56z" class="st1"/><path d="M145.62 20.14c-1.22.29-2.54.53-3.82.53-5.42 0-9.19-2.71-9.19-8.38 0-5.74 3.5-8.95 9.19-8.95 1.1 0 2.57.22 3.79.7l-.24 2.83c-1.27-.72-2.42-.89-3.62-.89-3.46 0-5.62 2.64-5.62 6.07 0 3.41 2.11 5.98 5.69 5.98 1.32 0 2.88-.29 3.67-.7l.15 2.81zM159.16 20.38h-3.05V18.7h-.05c-.98 1.2-2.38 1.97-4.06 1.97-2.93 0-4.2-2.06-4.2-4.85v-7.8h3.22v6.6c0 1.51.02 3.55 2.09 3.55 2.33 0 2.83-2.52 2.83-4.1V8.02h3.22v12.36zM169.82 10.61c-.98-.34-1.7-.53-2.88-.53-.86 0-1.9.31-1.9 1.37 0 1.97 5.59.72 5.59 5.18 0 2.88-2.57 4.03-5.18 4.03-1.22 0-2.47-.22-3.65-.53l.19-2.64c1.01.5 2.06.82 3.17.82.82 0 2.11-.31 2.11-1.51 0-2.42-5.59-.77-5.59-5.23 0-2.66 2.33-3.84 4.85-3.84 1.51 0 2.5.24 3.5.46l-.21 2.42zM174.18 10.37h-2.38V8.02h2.38V5.54l3.22-1.03v3.5h2.86v2.35h-2.86v5.76c0 1.06.29 2.04 1.51 2.04.58 0 1.13-.12 1.46-.34l.1 2.54c-.67.19-1.42.29-2.38.29-2.52 0-3.91-1.56-3.91-4.01v-6.27zM188.13 7.73c3.67 0 6.48 2.47 6.48 6.55 0 3.55-2.38 6.38-6.48 6.38-4.08 0-6.46-2.83-6.46-6.38 0-4.08 2.81-6.55 6.46-6.55zm0 10.44c2.47 0 3.12-2.21 3.12-4.27 0-1.9-1.01-3.67-3.12-3.67-2.09 0-3.1 1.82-3.1 3.67 0 2.04.65 4.27 3.1 4.27zM197.08 8.02h3v1.73h.05c1.01-1.51 2.47-2.02 3.67-2.02 1.73 0 2.95.65 3.65 2.18.74-1.49 2.35-2.18 3.86-2.18 3.05 0 3.91 2.09 3.91 4.85v7.8H212v-7.37c0-1.15 0-2.78-1.85-2.78-2.14 0-2.4 2.54-2.4 4.15v6h-3.22v-7.37c0-1.15 0-2.78-1.85-2.78-2.14 0-2.4 2.54-2.4 4.15v6h-3.22V8.02zM225.13 8.02h3.07v1.75h.05c.72-1.2 1.94-2.04 3.84-2.04 3.79 0 5.18 3.02 5.18 6.43 0 3.38-1.39 6.5-5.26 6.5-1.37 0-2.5-.34-3.62-1.7h-.05v6.46h-3.22V8.02zm3.24 6.14c0 1.75.7 4.01 2.83 4.01 2.11 0 2.71-2.3 2.71-4.01 0-1.66-.58-3.94-2.66-3.94-2.06 0-2.88 2.21-2.88 3.94zM240.35 8.66c1.25-.58 2.93-.94 4.3-.94 3.77 0 5.33 1.56 5.33 5.21v1.58c0 1.25.02 2.18.05 3.1.02.94.07 1.8.14 2.76h-2.83c-.12-.65-.12-1.46-.14-1.85h-.05c-.74 1.37-2.35 2.14-3.82 2.14-2.18 0-4.32-1.32-4.32-3.67 0-1.85.89-2.93 2.11-3.53 1.22-.6 2.81-.72 4.15-.72h1.78c0-1.99-.89-2.66-2.78-2.66-1.37 0-2.74.53-3.82 1.34l-.1-2.76zm3.77 9.65c.98 0 1.75-.43 2.26-1.1.53-.7.67-1.58.67-2.54h-1.39c-1.44 0-3.58.24-3.58 2.14 0 1.05.89 1.5 2.04 1.5zM254.2 10.37h-2.38V8.02h2.38V5.54l3.22-1.03v3.5h2.86v2.35h-2.86v5.76c0 1.06.29 2.04 1.51 2.04.58 0 1.13-.12 1.46-.34l.1 2.54c-.67.19-1.42.29-2.38.29-2.52 0-3.91-1.56-3.91-4.01v-6.27zM263.53 10.37h-2.38V8.02h2.38V5.54l3.22-1.03v3.5h2.86v2.35h-2.86v5.76c0 1.06.29 2.04 1.51 2.04.58 0 1.13-.12 1.46-.34l.1 2.54c-.67.19-1.42.29-2.38.29-2.52 0-3.91-1.56-3.91-4.01v-6.27zM281.73 19.68c-1.18.65-2.52.98-4.25.98-4.08 0-6.46-2.35-6.46-6.41 0-3.58 1.9-6.53 5.74-6.53 4.58 0 5.88 3.14 5.88 7.46h-8.54c.14 1.99 1.54 3.12 3.53 3.12 1.56 0 2.9-.58 4.1-1.25v2.63zm-2.16-6.7c-.1-1.56-.82-2.9-2.62-2.9-1.8 0-2.71 1.25-2.86 2.9h5.48zM285.23 8.02h2.86v2.81h.05c.14-1.15 1.46-3.1 3.38-3.1.31 0 .65 0 .98.1v3.24c-.29-.17-.86-.26-1.44-.26-2.62 0-2.62 3.26-2.62 5.04v4.54h-3.22V8.02zM294.92 8.02h3.05V9.7h.05c1.01-1.42 2.38-1.97 4.06-1.97 2.93 0 4.2 2.06 4.2 4.85v7.8h-3.22v-6.6c0-1.51-.02-3.55-2.09-3.55-2.33 0-2.83 2.52-2.83 4.1v6.05h-3.22V8.02z" class="st2"/><path d="m8.94 34.99 1.19-1.62c1.07.93 2.34 1.76 4.3 1.76 2.12 0 3.78-1.26 3.78-3.33 0-2.04-1.47-3.21-3.64-3.21-1.25 0-1.99.29-3.1.91l-1.24-.79.5-7.76h9.21v2.14H12.9l-.38 4.25c.87-.36 1.63-.58 2.73-.58 3.02 0 5.47 1.55 5.47 4.98 0 3.47-2.88 5.44-5.98 5.44-2.83 0-4.56-1.06-5.8-2.19zM29.39 19.66h2.47l-.46 2.79-.93 4.12h-1.64l.56-6.91zM409.05 34.93l1.22-1.6c1.05.98 2.5 1.8 4.39 1.8 2.06 0 3.58-1.01 3.58-2.64 0-1.77-1.46-2.94-5.52-2.94v-1.84c3.6 0 4.98-1.19 4.98-2.75 0-1.42-1.22-2.3-3.02-2.3-1.43 0-2.72.63-3.78 1.54l-1.29-1.54c1.38-1.18 3.12-2.01 5.17-2.01 3.12 0 5.43 1.5 5.43 4.13 0 1.85-1.35 3.06-3.31 3.73v.1c2.09.47 3.85 1.84 3.85 4 0 2.86-2.69 4.57-5.91 4.57-2.73 0-4.6-1.04-5.79-2.25zM429.52 19.66h2.47l-.46 2.79-.93 4.12h-1.64l.56-6.91z"/><path d="M43.85 35.13h347.4v26H43.85z" style="fill:none;stroke:#0000ad;stroke-width:3"/></g></svg>