<svg xmlns="http://www.w3.org/2000/svg" xml:space="preserve" style="enable-background:new 0 0 180 100" viewBox="0 0 180 100"><path d="M43.32 44.91h94.88v33.26H43.32V44.91z" style="fill:#fff"/><path d="M43.32 69.92c0-4.47.36-6.32 1.76-9.96 1.1-2.85 2.58-5.23 4.1-6.74v7.18c0-6.17 1.26-8.82 5.48-11.65 4.22-2.84 6.74-4.22 10.14-5.36v7.94c-.07-6.84 6.89-10.04 12.37-11.4 6.48-1.61 10.31-3.87 13.71-5.27v8.41c-.07-6.84 6.89-8.72 12.37-10.08 6.48-1.61 11.04-3.63 13.71-6.3v6.99c0-3.34 3.53-5.95 7.63-7.31 6.33-2.11 6.99-3.97 7.94-7.12v7.92c0-4.2 1.8-5.3 2.77-6.47 1.39-1.67 2.46-4.47 2.9-7.12" style="opacity:.8;fill:none;stroke:#00f;stroke-width:2;stroke-linecap:round;stroke-linejoin:round;enable-background:new"/><path d="M43.32 11.52h94.88v33.39H43.32V11.52z" style="opacity:.45;enable-background:new"/><path d="M43.32 44.91h94.88" style="fill:none;stroke:red;stroke-width:2;stroke-linecap:round;stroke-linejoin:round"/><path d="M43.32 11.52h94.88v66.65H43.32V11.52z" style="fill:none;stroke:#000;stroke-width:2;stroke-linecap:round;stroke-linejoin:round"/><path d="M37.14 66.95c.26-.43.48-1.06.48-1.72 0-.98-.52-1.55-1.27-1.55-.69 0-1.09.4-1.47 1.4-.43 1.21-1.06 1.96-2.1 1.96-1.15 0-2.01-.96-2.01-2.4 0-.76.18-1.31.36-1.64l.78.26c-.13.24-.35.74-.35 1.41 0 1.01.61 1.4 1.11 1.4.69 0 1.03-.45 1.43-1.47.48-1.25 1.09-1.89 2.18-1.89 1.14 0 2.13.85 2.13 2.6 0 .71-.21 1.5-.47 1.89l-.8-.25zm-1.33-6.13c1.31-.02 1.85-.86 1.85-1.83 0-.69-.12-1.11-.27-1.47l.69-.17c.15.34.33.92.33 1.77 0 1.64-1.08 2.62-2.68 2.62-1.61 0-2.87-.95-2.87-2.5 0-1.74 1.53-2.2 2.51-2.2.2 0 .35.02.45.03v3.75h-.01zm-.69-2.84c-.62-.01-1.57.25-1.57 1.34 0 .98.9 1.41 1.57 1.49v-2.83zm.69-2.67c1.31-.02 1.85-.86 1.85-1.83 0-.69-.12-1.11-.27-1.47l.69-.17c.15.34.33.92.33 1.77 0 1.64-1.08 2.62-2.68 2.62-1.61 0-2.87-.95-2.87-2.5 0-1.74 1.53-2.2 2.51-2.2.2 0 .35.02.45.03v3.75h-.01zm-.69-2.84c-.62-.01-1.57.25-1.57 1.34 0 .98.9 1.41 1.57 1.49v-2.83zm-4.63-6.73h6.44c.47 0 1.01-.01 1.38-.04v.87l-.92.04v.02c.59.3 1.05.95 1.05 1.82 0 1.29-1.09 2.28-2.71 2.28-1.77.01-2.86-1.09-2.86-2.39 0-.81.39-1.36.81-1.61v-.02H30.5v-.97h-.01zm4.65.96c-.12 0-.29.01-.41.04-.62.14-1.12.67-1.12 1.4 0 1 .88 1.59 2.06 1.59 1.08 0 1.97-.53 1.97-1.57 0-.65-.43-1.24-1.16-1.42-.13-.03-.26-.04-.42-.04h-.92zm-3.44-5.89v2.26h-.81v-5.49h.81v2.27h6.6v.97h-6.6v-.01zm2.72-3.53c-.55 0-1 .01-1.44.04v-.85l.86-.04v-.03c-.51-.3-.98-.79-.98-1.67 0-.73.44-1.28 1.07-1.51v-.02c-.3-.17-.53-.37-.69-.59-.24-.32-.37-.67-.37-1.18 0-.7.46-1.75 2.31-1.75h3.14v.95h-3.01c-1.02 0-1.64.37-1.64 1.16 0 .55.41.98.88 1.14.13.04.31.08.48.08h3.29v.95h-3.19c-.85 0-1.46.37-1.46 1.11 0 .6.48 1.04.97 1.2.14.05.31.08.47.08h3.21v.95h-3.9v-.02zM20.74 76.43h.96v6.61h3.17v.8h-4.13v-7.41zm9.82 4.71c0 1.97-1.36 2.83-2.65 2.83-1.44 0-2.55-1.06-2.55-2.74 0-1.78 1.17-2.83 2.64-2.83 1.53 0 2.56 1.11 2.56 2.74zm-4.22.06c0 1.17.67 2.05 1.62 2.05.92 0 1.62-.87 1.62-2.07 0-.9-.45-2.05-1.6-2.05-1.15 0-1.64 1.05-1.64 2.07zm5.75-2.68.7 2.71c.15.59.3 1.14.4 1.69h.03c.12-.54.3-1.11.47-1.68l.87-2.72h.81l.83 2.66c.2.64.35 1.2.47 1.74h.03c.09-.54.23-1.1.41-1.73l.76-2.67h.96l-1.72 5.33h-.88l-.81-2.54c-.19-.59-.34-1.12-.47-1.75h-.02c-.13.64-.3 1.19-.48 1.76l-.86 2.53h-.88l-1.61-5.33h.99zm40.63 8.26-.77 2.33h-.99l2.52-7.42h1.16l2.53 7.42h-1.02l-.79-2.33h-2.64zm2.43-.75-.73-2.13c-.17-.48-.27-.92-.38-1.35h-.02c-.11.44-.23.89-.37 1.34l-.73 2.15h2.23v-.01zm3.03-4.73h.97v7.81h-.97V81.3zm2.6 0h.97v7.81h-.97V81.3zm4.8 6.82c.29.19.79.38 1.28.38.7 0 1.03-.35 1.03-.79 0-.46-.28-.71-.99-.98-.96-.34-1.41-.87-1.41-1.51 0-.86.69-1.56 1.84-1.56.54 0 1.01.15 1.31.33l-.24.7c-.33-.2-.7-.31-1.09-.31-.57 0-.89.33-.89.73 0 .44.32.64 1.01.9.92.35 1.4.81 1.4 1.61 0 .94-.73 1.6-1.99 1.6-.58 0-1.12-.14-1.5-.36l.24-.74zm5.02-1.49c.02 1.31.86 1.85 1.83 1.85.69 0 1.11-.12 1.47-.28l.17.69c-.34.15-.92.33-1.77.33-1.64 0-2.62-1.08-2.62-2.68s.95-2.87 2.5-2.87c1.74 0 2.2 1.53 2.2 2.51 0 .2-.02.35-.03.45H90.6zm2.84-.69c.01-.62-.25-1.57-1.34-1.57-.98 0-1.41.9-1.49 1.57h2.83zm2.67.69c.02 1.31.86 1.85 1.83 1.85.69 0 1.11-.12 1.47-.28l.17.69c-.34.15-.92.33-1.77.33-1.64 0-2.62-1.08-2.62-2.68s.95-2.87 2.5-2.87c1.74 0 2.2 1.53 2.2 2.51 0 .2-.02.35-.03.45h-3.75zm2.84-.69c.01-.62-.25-1.57-1.34-1.57-.98 0-1.41.9-1.49 1.57h2.83zm6.73-4.64v6.44c0 .47.01 1.01.04 1.38h-.87l-.04-.92h-.02c-.3.59-.95 1.04-1.82 1.04-1.29 0-2.28-1.09-2.28-2.71-.01-1.77 1.09-2.86 2.39-2.86.81 0 1.36.38 1.61.81h.02V81.3h.97zm-.96 4.66c0-.12-.01-.29-.04-.41-.14-.62-.67-1.12-1.4-1.12-1 0-1.59.88-1.59 2.06 0 1.08.53 1.97 1.57 1.97.65 0 1.24-.43 1.42-1.16.03-.13.04-.26.04-.42v-.92zm2.44 2.16c.29.19.79.38 1.28.38.7 0 1.03-.35 1.03-.79 0-.46-.28-.71-.99-.98-.96-.34-1.41-.87-1.41-1.51 0-.86.69-1.56 1.84-1.56.54 0 1.01.15 1.31.33l-.24.7c-.33-.2-.7-.31-1.09-.31-.57 0-.89.33-.89.73 0 .44.32.64 1.01.9.92.35 1.4.81 1.4 1.61 0 .94-.73 1.6-1.99 1.6-.58 0-1.12-.14-1.5-.36l.24-.74zM20.19 10.58v3.1h3.59v-3.1h.97V18h-.98v-3.49h-3.58v3.48h-.96v-7.41h.96zm7.37.59c.01.33-.23.59-.62.59a.57.57 0 0 1-.58-.56v-.03c0-.34.25-.61.6-.61.37 0 .6.27.6.61zm-1.08 6.82v-5.32h.97v5.32h-.97zm7.16-5.32c-.02.38-.04.81-.04 1.46v3.09c0 1.22-.24 1.97-.76 2.43-.52.48-1.27.64-1.94.64-.64 0-1.34-.15-1.77-.44l.24-.74c.35.22.9.42 1.56.42.99 0 1.72-.52 1.72-1.86v-.59h-.02c-.3.5-.87.89-1.69.89-1.32 0-2.27-1.12-2.27-2.6 0-1.8 1.18-2.83 2.4-2.83.92 0 1.43.48 1.66.92h.02l.04-.8h.85v.01zm-1 2.1c0-.17-.01-.31-.06-.44-.17-.56-.64-1.03-1.35-1.03-.92 0-1.58.78-1.58 2.01 0 1.04.53 1.91 1.57 1.91.59 0 1.13-.37 1.34-.99.06-.17.08-.35.08-.52v-.94zm2.56-4.59h.97v3.32h.02c.15-.27.4-.52.69-.68.29-.17.63-.27.99-.27.71 0 1.86.44 1.86 2.28V18h-.97v-3.07c0-.86-.32-1.58-1.23-1.58-.63 0-1.12.44-1.3.97-.06.13-.07.27-.07.46v3.21h-.97l.01-7.81z"/><path d="M69.15 48.42h107.3v26.25H69.15V48.42z" style="fill:#ffffbf;stroke:#ef9b06;stroke-width:1.4"/><path d="M83.94 55.91c0 2.78-1.69 4.26-3.75 4.26-2.13 0-3.63-1.66-3.63-4.1 0-2.57 1.59-4.25 3.75-4.25 2.2 0 3.63 1.69 3.63 4.09zm-6.27.13c0 1.73.94 3.27 2.58 3.27 1.66 0 2.59-1.52 2.59-3.36 0-1.61-.84-3.29-2.58-3.29-1.73.01-2.59 1.61-2.59 3.38zm11.18 3.99v-5h-2.43v5h-1.04v-5h-.82v-.8h.82v-.19c0-.82.19-1.52.65-1.98.34-.34.82-.54 1.46-.54.34 0 .65.11.83.2l-.22.78c-.16-.07-.38-.14-.62-.14-.83 0-1.05.71-1.05 1.62v.25h2.43v-.28c0-.82.19-1.56.68-2.03.4-.38.92-.54 1.4-.54.38 0 .7.08.9.17l-.13.82c-.17-.07-.37-.13-.68-.13-.89 0-1.13.79-1.13 1.68v.31h1.4v.8h-1.39v5h-1.06zm5.86-3.63v.78h-2.96v-.78h2.96zm2.51-3.84v1.67h1.51v.8h-1.51v3.13c0 .72.2 1.13.79 1.13.28 0 .48-.04.61-.07l.05.79c-.2.08-.53.14-.94.14-.49 0-.89-.16-1.14-.44-.3-.31-.41-.83-.41-1.51v-3.17h-.9v-.8h.9v-1.39l1.04-.28zm5.91 7.47-.08-.73h-.04c-.32.46-.95.86-1.78.86-1.17 0-1.77-.83-1.77-1.67 0-1.4 1.25-2.17 3.49-2.16v-.12c0-.48-.13-1.34-1.32-1.34-.54 0-1.1.17-1.51.43l-.24-.7c.48-.31 1.17-.52 1.91-.52 1.78 0 2.21 1.21 2.21 2.37v2.17c0 .5.02 1 .1 1.39h-.97v.02zm-.16-2.96c-1.15-.02-2.46.18-2.46 1.31 0 .68.46 1.01 1 1.01.76 0 1.24-.48 1.4-.97.04-.11.06-.23.06-.34v-1.01zm2.73-1.03c0-.68-.01-1.27-.05-1.81h.92l.04 1.14h.05c.26-.78.9-1.27 1.61-1.27.12 0 .2.01.3.04v1c-.11-.02-.22-.04-.36-.04-.74 0-1.27.56-1.42 1.36-.02.14-.05.31-.05.49v3.09h-1.04v-4zm8.93-1.81c-.02.42-.05.89-.05 1.59v3.37c0 1.33-.26 2.15-.83 2.65-.56.53-1.38.7-2.11.7-.7 0-1.46-.17-1.93-.48l.26-.8c.38.24.98.46 1.7.46 1.08 0 1.87-.56 1.87-2.03v-.65h-.02c-.32.54-.95.97-1.85.97-1.44 0-2.47-1.22-2.47-2.83 0-1.97 1.28-3.08 2.61-3.08 1.01 0 1.56.53 1.81 1.01h.02l.05-.88h.94zm-1.1 2.29c0-.18-.01-.34-.06-.48-.19-.61-.71-1.12-1.48-1.12-1.01 0-1.73.85-1.73 2.2 0 1.14.58 2.09 1.71 2.09.65 0 1.24-.41 1.46-1.08.06-.18.08-.38.08-.56v-1.05h.02zm3.39.8c.02 1.43.94 2.02 1.99 2.02.76 0 1.21-.13 1.61-.3l.18.75c-.37.17-1.01.36-1.93.36-1.79 0-2.85-1.18-2.85-2.93s1.03-3.13 2.72-3.13c1.89 0 2.4 1.67 2.4 2.73 0 .22-.02.38-.04.49l-4.08.01zm3.09-.75c.01-.67-.28-1.71-1.46-1.71-1.07 0-1.54.98-1.62 1.71h3.08zm3.6-4.01v1.67h1.51v.8h-1.51v3.13c0 .72.2 1.13.79 1.13.28 0 .48-.04.61-.07l.05.79c-.2.08-.53.14-.94.14-.49 0-.89-.16-1.14-.44-.3-.31-.41-.83-.41-1.51v-3.17h-.9v-.8h.9v-1.39l1.04-.28zm5.25 3.48c0-.68-.01-1.27-.05-1.81h.92l.04 1.14h.05c.26-.78.9-1.27 1.61-1.27.12 0 .2.01.3.04v1c-.11-.02-.22-.04-.36-.04-.74 0-1.27.56-1.42 1.36-.02.14-.05.31-.05.49v3.09h-1.04v-4zm4.51 1.28c.02 1.43.94 2.02 1.99 2.02.76 0 1.21-.13 1.61-.3l.18.75c-.37.17-1.01.36-1.93.36-1.79 0-2.85-1.18-2.85-2.93s1.03-3.13 2.72-3.13c1.89 0 2.4 1.67 2.4 2.73 0 .22-.02.38-.04.49l-4.08.01zm3.1-.75c.01-.67-.28-1.71-1.46-1.71-1.07 0-1.54.98-1.62 1.71h3.08zm7.34-5.05v7.02c0 .52.01 1.1.05 1.5h-.95l-.05-1.01h-.02c-.32.65-1.03 1.14-1.98 1.14-1.4 0-2.48-1.19-2.48-2.95-.01-1.93 1.19-3.12 2.6-3.12.89 0 1.49.42 1.75.89h.02v-3.47h1.06zm-1.06 5.07c0-.13-.01-.31-.05-.44-.16-.67-.73-1.22-1.52-1.22-1.09 0-1.74.96-1.74 2.24 0 1.17.58 2.15 1.71 2.15.71 0 1.36-.47 1.55-1.26.04-.14.05-.29.05-.46v-1.01zm7.67 1.86c0 .6.01 1.13.05 1.58h-.94l-.06-.95h-.02a2.19 2.19 0 0 1-1.92 1.08c-.91 0-2-.5-2-2.54v-3.39h1.05v3.21c0 1.1.34 1.85 1.3 1.85.71 0 1.2-.49 1.39-.96.06-.16.1-.35.1-.54v-3.56h1.05v4.22zm5.89 1.37c-.28.14-.89.34-1.67.34-1.75 0-2.89-1.19-2.89-2.96 0-1.79 1.22-3.08 3.12-3.08.62 0 1.17.16 1.46.3l-.24.82c-.25-.14-.65-.28-1.22-.28-1.33 0-2.05.98-2.05 2.19 0 1.34.86 2.17 2.01 2.17.6 0 1-.16 1.29-.29l.19.79zm1.83-2.5c.02 1.43.94 2.02 1.99 2.02.76 0 1.21-.13 1.61-.3l.18.75c-.37.17-1.01.36-1.93.36-1.79 0-2.85-1.18-2.85-2.93s1.03-3.13 2.72-3.13c1.89 0 2.4 1.67 2.4 2.73 0 .22-.02.38-.04.49l-4.08.01zm3.09-.75c.01-.67-.28-1.71-1.46-1.71-1.07 0-1.54.98-1.62 1.71h3.08zm7.35-5.05v7.02c0 .52.01 1.1.05 1.5h-.95l-.05-1.01h-.02c-.32.65-1.03 1.14-1.98 1.14-1.4 0-2.48-1.19-2.48-2.95-.01-1.93 1.19-3.12 2.6-3.12.89 0 1.49.42 1.75.89h.02v-3.47h1.06zm-1.06 5.07c0-.13-.01-.31-.05-.44-.16-.67-.73-1.22-1.52-1.22-1.09 0-1.74.96-1.74 2.24 0 1.17.58 2.15 1.71 2.15.71 0 1.36-.47 1.55-1.26.04-.14.05-.29.05-.46v-1.01zm-61 14.37c.31.2.86.42 1.39.42.77 0 1.13-.38 1.13-.86 0-.5-.3-.78-1.08-1.07-1.04-.37-1.54-.95-1.54-1.64 0-.94.76-1.7 2-1.7.59 0 1.1.17 1.43.36l-.26.77c-.23-.14-.65-.34-1.19-.34-.62 0-.97.36-.97.79 0 .48.35.7 1.1.98 1.01.38 1.52.89 1.52 1.75 0 1.02-.79 1.74-2.17 1.74-.64 0-1.22-.16-1.63-.4l.27-.8zm6.07-6.36c.01.36-.25.65-.67.65-.37 0-.64-.29-.64-.65 0-.37.28-.66.66-.66.4 0 .65.29.65.66zm-1.18 7.43v-5.8h1.05v5.8h-1.05zm2.85-7.97c.53-.11 1.28-.17 2-.17 1.12 0 1.83.2 2.34.66.41.36.64.91.64 1.54 0 1.07-.67 1.77-1.52 2.06v.04c.62.22 1 .79 1.19 1.63.26 1.13.46 1.91.62 2.22h-1.08c-.13-.23-.31-.92-.54-1.93-.24-1.12-.67-1.54-1.62-1.57h-.98v3.5h-1.04l-.01-7.98zm1.04 3.68h1.07c1.12 0 1.82-.61 1.82-1.54 0-1.04-.76-1.5-1.86-1.51-.5 0-.86.05-1.03.1v2.95zm5.41 4.29v-8.08h1.14l2.59 4.09c.6.95 1.07 1.8 1.45 2.63l.02-.01c-.1-1.08-.12-2.06-.12-3.32v-3.38h.98v8.08h-1.06l-2.57-4.1c-.56-.9-1.1-1.82-1.51-2.7l-.04.01c.06 1.02.08 1.99.08 3.33v3.45h-.96zm9.2-2.54-.84 2.54h-1.08l2.75-8.08H132l2.76 8.08h-1.12l-.86-2.54h-2.87zm2.65-.81-.79-2.33c-.18-.53-.3-1.01-.42-1.48h-.02c-.12.48-.25.97-.41 1.46l-.79 2.34h2.43v.01zm3.21 2.28c.31.2.86.42 1.39.42.77 0 1.13-.38 1.13-.86 0-.5-.3-.78-1.08-1.07-1.04-.37-1.54-.95-1.54-1.64 0-.94.76-1.7 2-1.7.59 0 1.1.17 1.43.36l-.26.77c-.23-.14-.65-.34-1.19-.34-.62 0-.97.36-.97.79 0 .48.35.7 1.1.98 1.01.38 1.52.89 1.52 1.75 0 1.02-.79 1.74-2.17 1.74-.64 0-1.22-.16-1.63-.4l.27-.8z"/><path d="m55.84 56.87 15.7-.68" style="fill:none;stroke:red;stroke-width:2;stroke-linecap:round"/><path d="M58.68 56.87c0 1.57-1.27 2.83-2.83 2.83-1.57 0-2.83-1.27-2.83-2.83s1.27-2.83 2.83-2.83 2.83 1.25 2.83 2.81v.02z" style="fill:red"/></svg>