<svg xmlns="http://www.w3.org/2000/svg" xml:space="preserve" style="enable-background:new 0 0 964.24 387.88" viewBox="0 0 964.24 387.88"><style>.st1{fill:none;stroke:#007f00;stroke-width:1.25;stroke-linecap:round;stroke-dasharray:4,5}.st2{fill:red}.st3{fill:#0000ad}</style><g id="レイヤー_2"><path d="M390.13 34.64v85.97" style="fill:none"/><path d="M42.73 34.64v123.47M74.22 34.64v123.47M359.04 34.64v123.47" class="st1"/><path d="M50.12 41.26h-5.28v-2.12h13.08v2.12h-5.28v14.25h-2.51V41.26zM64.92 39.14h2.92l5.41 16.37h-2.68l-2.64-8.91c-.53-1.77-1.07-3.6-1.54-5.45h-.1c-.49 1.85-1 3.68-1.53 5.45l-2.68 8.91h-2.57l5.41-16.37zm-2.38 9.68h7.59v2h-7.59v-2zM75.14 47.35c0-5.34 3.1-8.51 7.34-8.51 2.18 0 3.63 1.02 4.58 2.02l-1.41 1.57c-.76-.79-1.67-1.4-3.17-1.4-2.83 0-4.73 2.38-4.73 6.24 0 3.92 1.69 6.33 4.73 6.33 1.01 0 1.97-.3 2.5-.83v-3.9h-3.02v-2.06h5.32v7.06c-1.04 1.04-2.83 1.92-4.95 1.92-4.13.02-7.19-3.06-7.19-8.44zM94.91 39.14h2.92l5.41 16.37h-2.68l-2.64-8.91c-.53-1.77-1.07-3.6-1.54-5.45h-.1c-.49 1.85-1 3.68-1.53 5.45l-2.68 8.91H89.5l5.41-16.37zm-2.37 9.68h7.59v2h-7.59v-2zM105.14 47.35c0-5.34 3.1-8.51 7.34-8.51 2.18 0 3.63 1.02 4.58 2.02l-1.41 1.57c-.76-.79-1.67-1.4-3.17-1.4-2.83 0-4.73 2.38-4.73 6.24 0 3.92 1.69 6.33 4.73 6.33 1.01 0 1.97-.3 2.5-.83v-3.9h-3.02v-2.06h5.32v7.06c-1.04 1.04-2.83 1.92-4.95 1.92-4.13.02-7.19-3.06-7.19-8.44zM124.91 39.14h2.92l5.41 16.37h-2.68l-2.64-8.91c-.53-1.77-1.07-3.6-1.54-5.45h-.1c-.49 1.85-1 3.68-1.53 5.45l-2.68 8.91h-2.57l5.41-16.37zm-2.37 9.68h7.59v2h-7.59v-2zM140.12 41.26h-5.28v-2.12h13.08v2.12h-5.28v14.25h-2.51V41.26zM150.14 47.35c0-5.34 3.1-8.51 7.34-8.51 2.18 0 3.63 1.02 4.58 2.02l-1.41 1.57c-.76-.79-1.67-1.4-3.17-1.4-2.83 0-4.73 2.38-4.73 6.24 0 3.92 1.69 6.33 4.73 6.33 1.01 0 1.97-.3 2.5-.83v-3.9h-3.02v-2.06h5.32v7.06c-1.04 1.04-2.83 1.92-4.95 1.92-4.13.02-7.19-3.06-7.19-8.44zM165.14 47.35c0-5.34 3.1-8.51 7.34-8.51 2.18 0 3.63 1.02 4.58 2.02l-1.41 1.57c-.76-.79-1.67-1.4-3.17-1.4-2.83 0-4.73 2.38-4.73 6.24 0 3.92 1.69 6.33 4.73 6.33 1.01 0 1.97-.3 2.5-.83v-3.9h-3.02v-2.06h5.32v7.06c-1.04 1.04-2.83 1.92-4.95 1.92-4.13.02-7.19-3.06-7.19-8.44zM184.91 39.14h2.92l5.41 16.37h-2.68l-2.64-8.91c-.53-1.77-1.07-3.6-1.54-5.45h-.1c-.49 1.85-1 3.68-1.53 5.45l-2.68 8.91h-2.57l5.41-16.37zm-2.37 9.68h7.59v2h-7.59v-2zM195.43 47.35c0-5.31 3.16-8.51 7.46-8.51 2 0 3.58.96 4.59 2.02l-1.41 1.57c-.83-.85-1.85-1.4-3.18-1.4-2.91 0-4.87 2.38-4.87 6.24 0 3.92 1.96 6.33 4.91 6.33 1.42 0 2.52-.63 3.48-1.71l1.41 1.52c-1.29 1.52-2.96 2.38-5.14 2.38-4.05.02-7.25-3.06-7.25-8.44zM214.91 39.14h2.92l5.41 16.37h-2.68l-2.64-8.91c-.53-1.77-1.07-3.6-1.54-5.45h-.1c-.49 1.85-1 3.68-1.53 5.45l-2.68 8.91h-2.57l5.41-16.37zm-2.37 9.68h7.59v2h-7.59v-2zM225.14 47.35c0-5.34 3.1-8.51 7.34-8.51 2.18 0 3.63 1.02 4.58 2.02l-1.41 1.57c-.76-.79-1.67-1.4-3.17-1.4-2.83 0-4.73 2.38-4.73 6.24 0 3.92 1.69 6.33 4.73 6.33 1.01 0 1.97-.3 2.5-.83v-3.9h-3.02v-2.06h5.32v7.06c-1.04 1.04-2.84 1.92-4.95 1.92-4.13.02-7.19-3.06-7.19-8.44zM240.14 47.35c0-5.34 3.1-8.51 7.34-8.51 2.18 0 3.63 1.02 4.58 2.02l-1.41 1.57c-.76-.79-1.67-1.4-3.17-1.4-2.83 0-4.73 2.38-4.73 6.24 0 3.92 1.69 6.33 4.73 6.33 1.01 0 1.97-.3 2.5-.83v-3.9h-3.02v-2.06h5.32v7.06c-1.04 1.04-2.84 1.92-4.95 1.92-4.13.02-7.19-3.06-7.19-8.44zM260.12 41.26h-5.28v-2.12h13.08v2.12h-5.28v14.25h-2.51V41.26zM275.12 41.26h-5.28v-2.12h13.08v2.12h-5.28v14.25h-2.51V41.26zM289.91 39.14h2.92l5.41 16.37h-2.68l-2.64-8.91c-.53-1.77-1.07-3.6-1.54-5.45h-.1c-.49 1.85-1 3.68-1.53 5.45l-2.68 8.91h-2.57l5.41-16.37zm-2.37 9.68h7.59v2h-7.59v-2zM305.12 41.26h-5.28v-2.12h13.08v2.12h-5.28v14.25h-2.51V41.26zM315.43 47.35c0-5.31 3.16-8.51 7.46-8.51 2 0 3.59.96 4.59 2.02l-1.42 1.57c-.83-.85-1.85-1.4-3.18-1.4-2.91 0-4.87 2.38-4.87 6.24 0 3.92 1.96 6.33 4.91 6.33 1.42 0 2.52-.63 3.48-1.71l1.41 1.52c-1.29 1.52-2.96 2.38-5.14 2.38-4.04.02-7.24-3.06-7.24-8.44zM334.91 39.14h2.92l5.41 16.37h-2.68l-2.64-8.91c-.53-1.77-1.07-3.6-1.54-5.45h-.1c-.49 1.85-1 3.68-1.53 5.45l-2.68 8.91h-2.57l5.41-16.37zm-2.37 9.68h7.59v2h-7.59v-2zM349.91 39.14h2.92l5.41 16.37h-2.68l-2.64-8.91c-.53-1.77-1.07-3.6-1.54-5.45h-.1c-.49 1.85-1 3.68-1.53 5.45l-2.68 8.91h-2.57l5.41-16.37zm-2.37 9.68h7.59v2h-7.59v-2zM360.43 47.35c0-5.31 3.16-8.51 7.46-8.51 2 0 3.58.96 4.59 2.02l-1.41 1.57c-.83-.85-1.85-1.4-3.18-1.4-2.91 0-4.87 2.38-4.87 6.24 0 3.92 1.96 6.33 4.91 6.33 1.42 0 2.52-.63 3.48-1.71l1.41 1.52c-1.29 1.52-2.96 2.38-5.14 2.38-4.05.02-7.25-3.06-7.25-8.44zM375.14 47.35c0-5.34 3.1-8.51 7.34-8.51 2.18 0 3.63 1.02 4.58 2.02l-1.41 1.57c-.76-.79-1.67-1.4-3.17-1.4-2.83 0-4.73 2.38-4.73 6.24 0 3.92 1.69 6.33 4.73 6.33 1.01 0 1.97-.3 2.5-.83v-3.9h-3.02v-2.06h5.32v7.06c-1.04 1.04-2.84 1.92-4.95 1.92-4.13.02-7.19-3.06-7.19-8.44z"/><path d="M30.21 113.62 31.4 112c1.07.93 2.34 1.76 4.3 1.76 2.12 0 3.78-1.26 3.78-3.33 0-2.04-1.47-3.21-3.64-3.21-1.25 0-1.99.29-3.1.91l-1.24-.79.5-7.76h9.2v2.14h-7.03l-.38 4.25c.87-.36 1.63-.58 2.73-.58 3.02 0 5.47 1.55 5.47 4.98 0 3.47-2.88 5.44-5.98 5.44-2.83 0-4.55-1.05-5.8-2.19zM50.67 98.29h2.47l-.46 2.79-.93 4.12h-1.64l.56-6.91zM60.9 106.35h10.94v1.82H60.9v-1.82zM75.14 107.35c0-5.34 3.1-8.51 7.34-8.51 2.18 0 3.63 1.02 4.58 2.02l-1.41 1.57c-.76-.79-1.67-1.4-3.17-1.4-2.83 0-4.73 2.38-4.73 6.24 0 3.92 1.69 6.33 4.73 6.33 1.01 0 1.97-.3 2.5-.83v-3.9h-3.02v-2.06h5.32v7.06c-1.04 1.04-2.83 1.92-4.95 1.92-4.13.02-7.19-3.06-7.19-8.44zM94.91 99.14h2.92l5.41 16.37h-2.68l-2.64-8.91c-.53-1.77-1.07-3.6-1.54-5.45h-.1c-.49 1.85-1 3.68-1.53 5.45l-2.68 8.91H89.5l5.41-16.37zm-2.37 9.68h7.59v2h-7.59v-2zM105.14 107.35c0-5.34 3.1-8.51 7.34-8.51 2.18 0 3.63 1.02 4.58 2.02l-1.41 1.57c-.76-.79-1.67-1.4-3.17-1.4-2.83 0-4.73 2.38-4.73 6.24 0 3.92 1.69 6.33 4.73 6.33 1.01 0 1.97-.3 2.5-.83v-3.9h-3.02v-2.06h5.32v7.06c-1.04 1.04-2.83 1.92-4.95 1.92-4.13.02-7.19-3.06-7.19-8.44zM124.91 99.14h2.92l5.41 16.37h-2.68l-2.64-8.91c-.53-1.77-1.07-3.6-1.54-5.45h-.1c-.49 1.85-1 3.68-1.53 5.45l-2.68 8.91h-2.57l5.41-16.37zm-2.37 9.68h7.59v2h-7.59v-2zM135.75 109.29V99.14h2.53v10.29c0 3.01 1.28 4.19 3.12 4.19 1.86 0 3.17-1.18 3.17-4.19V99.14H147v10.15c0 4.58-2.2 6.52-5.59 6.52-3.42 0-5.66-1.94-5.66-6.52zM150.14 107.35c0-5.34 3.1-8.51 7.34-8.51 2.18 0 3.63 1.02 4.58 2.02l-1.41 1.57c-.76-.79-1.67-1.4-3.17-1.4-2.83 0-4.73 2.38-4.73 6.24 0 3.92 1.69 6.33 4.73 6.33 1.01 0 1.97-.3 2.5-.83v-3.9h-3.02v-2.06h5.32v7.06c-1.04 1.04-2.83 1.92-4.95 1.92-4.13.02-7.19-3.06-7.19-8.44zM165.14 107.35c0-5.34 3.1-8.51 7.34-8.51 2.18 0 3.63 1.02 4.58 2.02l-1.41 1.57c-.76-.79-1.67-1.4-3.17-1.4-2.83 0-4.73 2.38-4.73 6.24 0 3.92 1.69 6.33 4.73 6.33 1.01 0 1.97-.3 2.5-.83v-3.9h-3.02v-2.06h5.32v7.06c-1.04 1.04-2.83 1.92-4.95 1.92-4.13.02-7.19-3.06-7.19-8.44zM184.91 99.14h2.92l5.41 16.37h-2.68l-2.64-8.91c-.53-1.77-1.07-3.6-1.54-5.45h-.1c-.49 1.85-1 3.68-1.53 5.45l-2.68 8.91h-2.57l5.41-16.37zm-2.37 9.68h7.59v2h-7.59v-2zM195.43 107.35c0-5.31 3.16-8.51 7.46-8.51 2 0 3.58.96 4.59 2.02l-1.41 1.57c-.83-.85-1.85-1.4-3.18-1.4-2.91 0-4.87 2.38-4.87 6.24 0 3.92 1.96 6.33 4.91 6.33 1.42 0 2.52-.63 3.48-1.71l1.41 1.52c-1.29 1.52-2.96 2.38-5.14 2.38-4.05.02-7.25-3.06-7.25-8.44zM214.91 99.14h2.92l5.41 16.37h-2.68l-2.64-8.91c-.53-1.77-1.07-3.6-1.54-5.45h-.1c-.49 1.85-1 3.68-1.53 5.45l-2.68 8.91h-2.57l5.41-16.37zm-2.37 9.68h7.59v2h-7.59v-2zM225.14 107.35c0-5.34 3.1-8.51 7.34-8.51 2.18 0 3.63 1.02 4.58 2.02l-1.41 1.57c-.76-.79-1.67-1.4-3.17-1.4-2.83 0-4.73 2.38-4.73 6.24 0 3.92 1.69 6.33 4.73 6.33 1.01 0 1.97-.3 2.5-.83v-3.9h-3.02v-2.06h5.32v7.06c-1.04 1.04-2.84 1.92-4.95 1.92-4.13.02-7.19-3.06-7.19-8.44zM240.14 107.35c0-5.34 3.1-8.51 7.34-8.51 2.18 0 3.63 1.02 4.58 2.02l-1.41 1.57c-.76-.79-1.67-1.4-3.17-1.4-2.83 0-4.73 2.38-4.73 6.24 0 3.92 1.69 6.33 4.73 6.33 1.01 0 1.97-.3 2.5-.83v-3.9h-3.02v-2.06h5.32v7.06c-1.04 1.04-2.84 1.92-4.95 1.92-4.13.02-7.19-3.06-7.19-8.44zM255.75 109.29V99.14h2.53v10.29c0 3.01 1.28 4.19 3.12 4.19 1.86 0 3.17-1.18 3.17-4.19V99.14H267v10.15c0 4.58-2.2 6.52-5.59 6.52-3.42 0-5.66-1.94-5.66-6.52zM270.75 109.29V99.14h2.53v10.29c0 3.01 1.28 4.19 3.12 4.19 1.86 0 3.17-1.18 3.17-4.19V99.14h2.42v10.15c0 4.58-2.2 6.52-5.59 6.52-3.41 0-5.65-1.94-5.65-6.52zM289.91 99.14h2.92l5.41 16.37h-2.68l-2.64-8.91c-.53-1.77-1.07-3.6-1.54-5.45h-.1c-.49 1.85-1 3.68-1.53 5.45l-2.68 8.91h-2.57l5.41-16.37zm-2.37 9.68h7.59v2h-7.59v-2zM300.75 109.29V99.14h2.53v10.29c0 3.01 1.28 4.19 3.12 4.19 1.86 0 3.17-1.18 3.17-4.19V99.14h2.42v10.15c0 4.58-2.2 6.52-5.59 6.52-3.41 0-5.65-1.94-5.65-6.52zM315.43 107.35c0-5.31 3.16-8.51 7.46-8.51 2 0 3.59.96 4.59 2.02l-1.42 1.57c-.83-.85-1.85-1.4-3.18-1.4-2.91 0-4.87 2.38-4.87 6.24 0 3.92 1.96 6.33 4.91 6.33 1.42 0 2.52-.63 3.48-1.71l1.41 1.52c-1.29 1.52-2.96 2.38-5.14 2.38-4.04.02-7.24-3.06-7.24-8.44zM334.91 99.14h2.92l5.41 16.37h-2.68l-2.64-8.91c-.53-1.77-1.07-3.6-1.54-5.45h-.1c-.49 1.85-1 3.68-1.53 5.45l-2.68 8.91h-2.57l5.41-16.37zm-2.37 9.68h7.59v2h-7.59v-2zM349.91 99.14h2.92l5.41 16.37h-2.68l-2.64-8.91c-.53-1.77-1.07-3.6-1.54-5.45h-.1c-.49 1.85-1 3.68-1.53 5.45l-2.68 8.91h-2.57l5.41-16.37zm-2.37 9.68h7.59v2h-7.59v-2zM360.43 107.35c0-5.31 3.16-8.51 7.46-8.51 2 0 3.58.96 4.59 2.02l-1.41 1.57c-.83-.85-1.85-1.4-3.18-1.4-2.91 0-4.87 2.38-4.87 6.24 0 3.92 1.96 6.33 4.91 6.33 1.42 0 2.52-.63 3.48-1.71l1.41 1.52c-1.29 1.52-2.96 2.38-5.14 2.38-4.05.02-7.25-3.06-7.25-8.44zM375.14 107.35c0-5.34 3.1-8.51 7.34-8.51 2.18 0 3.63 1.02 4.58 2.02l-1.41 1.57c-.76-.79-1.67-1.4-3.17-1.4-2.83 0-4.73 2.38-4.73 6.24 0 3.92 1.69 6.33 4.73 6.33 1.01 0 1.97-.3 2.5-.83v-3.9h-3.02v-2.06h5.32v7.06c-1.04 1.04-2.84 1.92-4.95 1.92-4.13.02-7.19-3.06-7.19-8.44zM390.14 107.35c0-5.34 3.1-8.51 7.34-8.51 2.18 0 3.63 1.02 4.58 2.02l-1.41 1.57c-.76-.79-1.67-1.4-3.17-1.4-2.83 0-4.73 2.38-4.73 6.24 0 3.92 1.69 6.33 4.73 6.33 1.01 0 1.97-.3 2.5-.83v-3.9h-3.02v-2.06h5.32v7.06c-1.04 1.04-2.84 1.92-4.95 1.92-4.13.02-7.19-3.06-7.19-8.44zM79.12 120.54c0-1.35.97-2.33 2.25-2.33s2.25.99 2.25 2.33c0 1.37-.97 2.33-2.25 2.33s-2.25-.96-2.25-2.33zm0 8.72c0-1.35.97-2.33 2.25-2.33s2.25.99 2.25 2.33c0 1.37-.97 2.33-2.25 2.33s-2.25-.95-2.25-2.33zM94.12 120.54c0-1.35.97-2.33 2.25-2.33s2.25.99 2.25 2.33c0 1.37-.97 2.33-2.25 2.33-1.27 0-2.25-.96-2.25-2.33zm0 8.72c0-1.35.97-2.33 2.25-2.33s2.25.99 2.25 2.33c0 1.37-.97 2.33-2.25 2.33-1.27.01-2.25-.95-2.25-2.33zM109.12 120.54c0-1.35.97-2.33 2.25-2.33s2.25.99 2.25 2.33c0 1.37-.97 2.33-2.25 2.33-1.27 0-2.25-.96-2.25-2.33zm0 8.72c0-1.35.97-2.33 2.25-2.33s2.25.99 2.25 2.33c0 1.37-.97 2.33-2.25 2.33-1.27.01-2.25-.95-2.25-2.33zM124.12 120.54c0-1.35.97-2.33 2.25-2.33s2.25.99 2.25 2.33c0 1.37-.97 2.33-2.25 2.33-1.27 0-2.25-.96-2.25-2.33zm0 8.72c0-1.35.97-2.33 2.25-2.33s2.25.99 2.25 2.33c0 1.37-.97 2.33-2.25 2.33-1.27.01-2.25-.95-2.25-2.33zM139.12 120.54c0-1.35.97-2.33 2.25-2.33s2.25.99 2.25 2.33c0 1.37-.97 2.33-2.25 2.33-1.27 0-2.25-.96-2.25-2.33zm0 8.72c0-1.35.97-2.33 2.25-2.33s2.25.99 2.25 2.33c0 1.37-.97 2.33-2.25 2.33-1.27.01-2.25-.95-2.25-2.33zM154.12 120.54c0-1.35.97-2.33 2.25-2.33s2.25.99 2.25 2.33c0 1.37-.97 2.33-2.25 2.33-1.27 0-2.25-.96-2.25-2.33zm0 8.72c0-1.35.97-2.33 2.25-2.33s2.25.99 2.25 2.33c0 1.37-.97 2.33-2.25 2.33-1.27.01-2.25-.95-2.25-2.33zM169.12 120.54c0-1.35.97-2.33 2.25-2.33s2.25.99 2.25 2.33c0 1.37-.97 2.33-2.25 2.33s-2.25-.96-2.25-2.33zm0 8.72c0-1.35.97-2.33 2.25-2.33s2.25.99 2.25 2.33c0 1.37-.97 2.33-2.25 2.33s-2.25-.95-2.25-2.33zM184.12 120.54c0-1.35.97-2.33 2.25-2.33s2.25.99 2.25 2.33c0 1.37-.97 2.33-2.25 2.33-1.27 0-2.25-.96-2.25-2.33zm0 8.72c0-1.35.97-2.33 2.25-2.33s2.25.99 2.25 2.33c0 1.37-.97 2.33-2.25 2.33-1.27.01-2.25-.95-2.25-2.33zM199.12 120.54c0-1.35.97-2.33 2.25-2.33s2.25.99 2.25 2.33c0 1.37-.97 2.33-2.25 2.33-1.27 0-2.25-.96-2.25-2.33zm0 8.72c0-1.35.97-2.33 2.25-2.33s2.25.99 2.25 2.33c0 1.37-.97 2.33-2.25 2.33-1.27.01-2.25-.95-2.25-2.33zM214.12 120.54c0-1.35.97-2.33 2.25-2.33s2.25.99 2.25 2.33c0 1.37-.97 2.33-2.25 2.33-1.27 0-2.25-.96-2.25-2.33zm0 8.72c0-1.35.97-2.33 2.25-2.33s2.25.99 2.25 2.33c0 1.37-.97 2.33-2.25 2.33-1.27.01-2.25-.95-2.25-2.33zM229.12 120.54c0-1.35.97-2.33 2.25-2.33s2.25.99 2.25 2.33c0 1.37-.97 2.33-2.25 2.33s-2.25-.96-2.25-2.33zm0 8.72c0-1.35.97-2.33 2.25-2.33s2.25.99 2.25 2.33c0 1.37-.97 2.33-2.25 2.33-1.28.01-2.25-.95-2.25-2.33zM244.12 120.54c0-1.35.97-2.33 2.25-2.33s2.25.99 2.25 2.33c0 1.37-.97 2.33-2.25 2.33s-2.25-.96-2.25-2.33zm0 8.72c0-1.35.97-2.33 2.25-2.33s2.25.99 2.25 2.33c0 1.37-.97 2.33-2.25 2.33-1.28.01-2.25-.95-2.25-2.33zM259.12 120.54c0-1.35.97-2.33 2.25-2.33s2.25.99 2.25 2.33c0 1.37-.97 2.33-2.25 2.33s-2.25-.96-2.25-2.33zm0 8.72c0-1.35.97-2.33 2.25-2.33s2.25.99 2.25 2.33c0 1.37-.97 2.33-2.25 2.33-1.28.01-2.25-.95-2.25-2.33zM274.12 120.54c0-1.35.97-2.33 2.25-2.33s2.25.99 2.25 2.33c0 1.37-.97 2.33-2.25 2.33s-2.25-.96-2.25-2.33zm0 8.72c0-1.35.97-2.33 2.25-2.33s2.25.99 2.25 2.33c0 1.37-.97 2.33-2.25 2.33-1.28.01-2.25-.95-2.25-2.33zM289.12 120.54c0-1.35.97-2.33 2.25-2.33s2.25.99 2.25 2.33c0 1.37-.97 2.33-2.25 2.33s-2.25-.96-2.25-2.33zm0 8.72c0-1.35.97-2.33 2.25-2.33s2.25.99 2.25 2.33c0 1.37-.97 2.33-2.25 2.33-1.28.01-2.25-.95-2.25-2.33zM304.12 120.54c0-1.35.97-2.33 2.25-2.33s2.25.99 2.25 2.33c0 1.37-.97 2.33-2.25 2.33s-2.25-.96-2.25-2.33zm0 8.72c0-1.35.97-2.33 2.25-2.33s2.25.99 2.25 2.33c0 1.37-.97 2.33-2.25 2.33-1.28.01-2.25-.95-2.25-2.33zM319.12 120.54c0-1.35.97-2.33 2.25-2.33s2.25.99 2.25 2.33c0 1.37-.97 2.33-2.25 2.33s-2.25-.96-2.25-2.33zm0 8.72c0-1.35.97-2.33 2.25-2.33s2.25.99 2.25 2.33c0 1.37-.97 2.33-2.25 2.33-1.28.01-2.25-.95-2.25-2.33zM334.12 120.54c0-1.35.97-2.33 2.25-2.33s2.25.99 2.25 2.33c0 1.37-.97 2.33-2.25 2.33s-2.25-.96-2.25-2.33zm0 8.72c0-1.35.97-2.33 2.25-2.33s2.25.99 2.25 2.33c0 1.37-.97 2.33-2.25 2.33-1.28.01-2.25-.95-2.25-2.33zM349.12 120.54c0-1.35.97-2.33 2.25-2.33s2.25.99 2.25 2.33c0 1.37-.97 2.33-2.25 2.33s-2.25-.96-2.25-2.33zm0 8.72c0-1.35.97-2.33 2.25-2.33s2.25.99 2.25 2.33c0 1.37-.97 2.33-2.25 2.33-1.28.01-2.25-.95-2.25-2.33zM364.12 120.54c0-1.35.97-2.33 2.25-2.33s2.25.99 2.25 2.33c0 1.37-.97 2.33-2.25 2.33s-2.25-.96-2.25-2.33zm0 8.72c0-1.35.97-2.33 2.25-2.33s2.25.99 2.25 2.33c0 1.37-.97 2.33-2.25 2.33-1.28.01-2.25-.95-2.25-2.33zM379.12 120.54c0-1.35.97-2.33 2.25-2.33s2.25.99 2.25 2.33c0 1.37-.97 2.33-2.25 2.33s-2.25-.96-2.25-2.33zm0 8.72c0-1.35.97-2.33 2.25-2.33s2.25.99 2.25 2.33c0 1.37-.97 2.33-2.25 2.33-1.28.01-2.25-.95-2.25-2.33zM394.12 120.54c0-1.35.97-2.33 2.25-2.33s2.25.99 2.25 2.33c0 1.37-.97 2.33-2.25 2.33s-2.25-.96-2.25-2.33zm0 8.72c0-1.35.97-2.33 2.25-2.33s2.25.99 2.25 2.33c0 1.37-.97 2.33-2.25 2.33-1.28.01-2.25-.95-2.25-2.33zM.21 149.35l1.22-1.6c1.05.98 2.5 1.8 4.39 1.8 2.06 0 3.58-1.01 3.58-2.64 0-1.77-1.46-2.94-5.52-2.94v-1.84c3.6 0 4.98-1.19 4.98-2.75 0-1.42-1.22-2.3-3.02-2.3-1.43 0-2.72.63-3.78 1.54l-1.3-1.54c1.38-1.18 3.12-2.01 5.17-2.01 3.12 0 5.43 1.5 5.43 4.13 0 1.85-1.35 3.06-3.31 3.73v.1c2.09.47 3.85 1.84 3.85 4 0 2.86-2.69 4.57-5.91 4.57-2.73 0-4.6-1.03-5.78-2.25zM20.67 134.08h2.47l-.46 2.79-.93 4.12h-1.64l.56-6.91zM30.9 142.14h10.94v1.82H30.9v-1.82zM45.75 145.08v-10.15h2.53v10.28c0 3.01 1.28 4.19 3.12 4.19 1.86 0 3.17-1.18 3.17-4.19v-10.28H57v10.15c0 4.58-2.2 6.52-5.59 6.52-3.42 0-5.66-1.94-5.66-6.52zM60.75 145.08v-10.15h2.53v10.28c0 3.01 1.28 4.19 3.12 4.19 1.86 0 3.17-1.18 3.17-4.19v-10.28H72v10.15c0 4.58-2.2 6.52-5.59 6.52-3.42 0-5.66-1.94-5.66-6.52zM75.43 143.14c0-5.31 3.16-8.51 7.46-8.51 2 0 3.59.96 4.59 2.02l-1.41 1.57c-.83-.85-1.85-1.4-3.18-1.4-2.91 0-4.87 2.38-4.87 6.24 0 3.92 1.96 6.33 4.91 6.33 1.42 0 2.52-.63 3.48-1.71l1.41 1.52c-1.29 1.52-2.96 2.38-5.14 2.38-4.05.02-7.25-3.06-7.25-8.44zM90.75 145.08v-10.15h2.53v10.28c0 3.01 1.28 4.19 3.12 4.19 1.86 0 3.17-1.18 3.17-4.19v-10.28H102v10.15c0 4.58-2.2 6.52-5.59 6.52-3.42 0-5.66-1.94-5.66-6.52zM105.43 143.14c0-5.31 3.16-8.51 7.46-8.51 2 0 3.58.96 4.59 2.02l-1.41 1.57c-.83-.85-1.85-1.4-3.18-1.4-2.91 0-4.87 2.38-4.87 6.24 0 3.92 1.96 6.33 4.91 6.33 1.42 0 2.52-.63 3.48-1.71l1.41 1.52c-1.29 1.52-2.96 2.38-5.14 2.38-4.05.02-7.25-3.06-7.25-8.44zM120.75 145.08v-10.15h2.53v10.28c0 3.01 1.28 4.19 3.12 4.19 1.86 0 3.17-1.18 3.17-4.19v-10.28H132v10.15c0 4.58-2.2 6.52-5.59 6.52-3.42 0-5.66-1.94-5.66-6.52zM139.91 134.93h2.92l5.41 16.37h-2.68l-2.64-8.91c-.53-1.77-1.07-3.6-1.54-5.45h-.1c-.49 1.85-1 3.68-1.53 5.45l-2.68 8.91h-2.57l5.41-16.37zm-2.37 9.68h7.59v2h-7.59v-2zM150.43 143.14c0-5.31 3.16-8.51 7.46-8.51 2 0 3.58.96 4.59 2.02l-1.41 1.57c-.83-.85-1.85-1.4-3.18-1.4-2.91 0-4.87 2.38-4.87 6.24 0 3.92 1.96 6.33 4.91 6.33 1.42 0 2.52-.63 3.48-1.71l1.41 1.52c-1.29 1.52-2.96 2.38-5.14 2.38-4.05.02-7.25-3.06-7.25-8.44zM165.43 143.14c0-5.31 3.16-8.51 7.46-8.51 2 0 3.58.96 4.59 2.02l-1.41 1.57c-.83-.85-1.85-1.4-3.18-1.4-2.91 0-4.87 2.38-4.87 6.24 0 3.92 1.96 6.33 4.91 6.33 1.42 0 2.52-.63 3.48-1.71l1.41 1.52c-1.29 1.52-2.96 2.38-5.14 2.38-4.05.02-7.25-3.06-7.25-8.44zM180.75 145.08v-10.15h2.53v10.28c0 3.01 1.28 4.19 3.12 4.19 1.86 0 3.17-1.18 3.17-4.19v-10.28H192v10.15c0 4.58-2.2 6.52-5.59 6.52-3.42 0-5.66-1.94-5.66-6.52zM195.14 143.14c0-5.34 3.1-8.51 7.34-8.51 2.18 0 3.63 1.02 4.58 2.02l-1.41 1.57c-.76-.79-1.67-1.4-3.17-1.4-2.83 0-4.73 2.38-4.73 6.24 0 3.92 1.69 6.33 4.73 6.33 1.01 0 1.97-.3 2.5-.83v-3.9h-3.02v-2.06h5.32v7.06c-1.04 1.04-2.84 1.92-4.95 1.92-4.13.02-7.19-3.06-7.19-8.44zM210.75 145.08v-10.15h2.53v10.28c0 3.01 1.28 4.19 3.12 4.19 1.86 0 3.17-1.18 3.17-4.19v-10.28H222v10.15c0 4.58-2.2 6.52-5.59 6.52-3.42 0-5.66-1.94-5.66-6.52zM225.43 143.14c0-5.31 3.16-8.51 7.46-8.51 2 0 3.59.96 4.59 2.02l-1.41 1.57c-.83-.85-1.86-1.4-3.18-1.4-2.91 0-4.87 2.38-4.87 6.24 0 3.92 1.96 6.33 4.91 6.33 1.42 0 2.52-.63 3.48-1.71l1.41 1.52c-1.29 1.52-2.96 2.38-5.14 2.38-4.05.02-7.25-3.06-7.25-8.44zM240.43 143.14c0-5.31 3.16-8.51 7.46-8.51 2 0 3.59.96 4.59 2.02l-1.41 1.57c-.83-.85-1.85-1.4-3.18-1.4-2.91 0-4.87 2.38-4.87 6.24 0 3.92 1.96 6.33 4.91 6.33 1.42 0 2.52-.63 3.48-1.71l1.41 1.52c-1.29 1.52-2.96 2.38-5.14 2.38-4.05.02-7.25-3.06-7.25-8.44zM259.91 134.93h2.92l5.41 16.37h-2.68l-2.64-8.91c-.53-1.77-1.07-3.6-1.54-5.45h-.1c-.49 1.85-1 3.68-1.53 5.45l-2.68 8.91h-2.57l5.41-16.37zm-2.37 9.68h7.59v2h-7.59v-2zM274.91 134.93h2.92l5.41 16.37h-2.68l-2.64-8.91c-.53-1.77-1.07-3.6-1.54-5.45h-.1c-.49 1.85-1 3.68-1.53 5.45l-2.68 8.91h-2.57l5.41-16.37zm-2.37 9.68h7.59v2h-7.59v-2zM285.75 145.08v-10.15h2.53v10.28c0 3.01 1.28 4.19 3.12 4.19 1.86 0 3.17-1.18 3.17-4.19v-10.28h2.42v10.15c0 4.58-2.2 6.52-5.59 6.52-3.41 0-5.65-1.94-5.65-6.52zM304.91 134.93h2.92l5.41 16.37h-2.68l-2.64-8.91c-.53-1.77-1.07-3.6-1.54-5.45h-.1c-.49 1.85-1 3.68-1.53 5.45l-2.68 8.91h-2.57l5.41-16.37zm-2.37 9.68h7.59v2h-7.59v-2zM315.14 143.14c0-5.34 3.1-8.51 7.34-8.51 2.18 0 3.63 1.02 4.58 2.02l-1.41 1.57c-.76-.79-1.67-1.4-3.17-1.4-2.83 0-4.73 2.38-4.73 6.24 0 3.92 1.69 6.33 4.73 6.33 1.01 0 1.97-.3 2.5-.83v-3.9h-3.02v-2.06h5.32v7.06c-1.04 1.04-2.83 1.92-4.95 1.92-4.13.02-7.19-3.06-7.19-8.44zM330.75 145.08v-10.15h2.53v10.28c0 3.01 1.28 4.19 3.12 4.19 1.86 0 3.17-1.18 3.17-4.19v-10.28h2.42v10.15c0 4.58-2.2 6.52-5.59 6.52-3.41 0-5.65-1.94-5.65-6.52zM345.75 145.08v-10.15h2.53v10.28c0 3.01 1.28 4.19 3.12 4.19 1.86 0 3.17-1.18 3.17-4.19v-10.28h2.42v10.15c0 4.58-2.2 6.52-5.59 6.52-3.41 0-5.65-1.94-5.65-6.52zM360.14 143.14c0-5.34 3.1-8.51 7.34-8.51 2.18 0 3.63 1.02 4.58 2.02l-1.42 1.57c-.76-.79-1.67-1.4-3.17-1.4-2.83 0-4.73 2.38-4.73 6.24 0 3.92 1.69 6.33 4.73 6.33 1.01 0 1.97-.3 2.5-.83v-3.9h-3.02v-2.06h5.32v7.06c-1.04 1.04-2.83 1.92-4.95 1.92-4.12.02-7.18-3.06-7.18-8.44zM375.43 143.14c0-5.31 3.16-8.51 7.46-8.51 2 0 3.58.96 4.59 2.02l-1.42 1.57c-.83-.85-1.85-1.4-3.18-1.4-2.91 0-4.87 2.38-4.87 6.24 0 3.92 1.96 6.33 4.91 6.33 1.42 0 2.52-.63 3.48-1.71l1.41 1.52c-1.29 1.52-2.96 2.38-5.14 2.38-4.04.02-7.24-3.06-7.24-8.44zM390.43 143.14c0-5.31 3.16-8.51 7.46-8.51 2 0 3.58.96 4.59 2.02l-1.41 1.57c-.83-.85-1.85-1.4-3.18-1.4-2.91 0-4.87 2.38-4.87 6.24 0 3.92 1.96 6.33 4.91 6.33 1.42 0 2.52-.63 3.48-1.71l1.41 1.52c-1.29 1.52-2.96 2.38-5.14 2.38-4.05.02-7.25-3.06-7.25-8.44zM176.3 174.79c-1.07-.36-1.85-.57-3.12-.57-.94 0-2.05.34-2.05 1.48 0 2.13 6.06.78 6.06 5.62 0 3.12-2.78 4.37-5.62 4.37-1.33 0-2.68-.23-3.95-.57l.21-2.86c1.09.55 2.24.88 3.43.88.88 0 2.29-.34 2.29-1.64 0-2.63-6.06-.83-6.06-5.67 0-2.89 2.52-4.16 5.25-4.16 1.64 0 2.7.26 3.8.49l-.24 2.63zM179.89 165.88h3.48v7.93h.05c.88-1.3 2.39-2.13 4.21-2.13 3.17 0 4.55 2.24 4.55 5.25v8.45h-3.48v-7.15c0-1.64-.03-3.85-2.26-3.85-2.52 0-3.07 2.73-3.07 4.45v6.55h-3.48v-19.5zM195.78 167.23h3.93c3.9 0 8.55-.13 8.55 4.91 0 2.13-1.43 3.9-3.74 4.21v.05c.99.08 1.56 1.07 1.92 1.87l2.91 7.1h-4.06l-2.18-5.67c-.52-1.35-.99-1.87-2.52-1.87h-1.17v7.54h-3.64v-18.14zm3.64 7.75h1.2c1.79 0 3.85-.26 3.85-2.52 0-2.18-2.03-2.37-3.85-2.37h-1.2v4.89zM211.79 167.23h4.47l6.92 13.57h.05v-13.57h3.48v18.15h-4.45l-6.94-13.57h-.05v13.57h-3.48v-18.15zM235.95 167.23h4.11l7.12 18.15h-4.03l-1.56-4.16h-7.36l-1.59 4.16h-3.77l7.08-18.15zm2 3.64h-.05l-2.63 7.49h5.3l-2.62-7.49z" class="st2"/><path d="M44.67 196.37h2.68v15h-2.68v-15zM54.89 200.83c3.06 0 5.4 2.06 5.4 5.46 0 2.96-1.98 5.32-5.4 5.32-3.4 0-5.38-2.36-5.38-5.32 0-3.4 2.34-5.46 5.38-5.46zm0 8.71c2.06 0 2.6-1.84 2.6-3.56 0-1.58-.84-3.06-2.6-3.06-1.74 0-2.58 1.52-2.58 3.06 0 1.69.54 3.56 2.58 3.56zM67.11 200.83c3.06 0 5.4 2.06 5.4 5.46 0 2.96-1.98 5.32-5.4 5.32-3.4 0-5.38-2.36-5.38-5.32 0-3.4 2.34-5.46 5.38-5.46zm0 8.71c2.06 0 2.6-1.84 2.6-3.56 0-1.58-.84-3.06-2.6-3.06-1.74 0-2.58 1.52-2.58 3.06 0 1.69.54 3.56 2.58 3.56zM74.61 201.07h2.56v1.46h.04c.6-1 1.62-1.7 3.2-1.7 3.16 0 4.32 2.52 4.32 5.36 0 2.82-1.16 5.42-4.38 5.42-1.14 0-2.08-.28-3.02-1.42h-.04v5.38h-2.68v-14.5zm2.7 5.13c0 1.46.58 3.34 2.36 3.34 1.76 0 2.26-1.92 2.26-3.34 0-1.38-.48-3.28-2.22-3.28-1.72-.01-2.4 1.83-2.4 3.28zM98.51 203.23c-.82-.28-1.42-.44-2.4-.44-.72 0-1.58.26-1.58 1.14 0 1.64 4.66.6 4.66 4.32 0 2.4-2.14 3.36-4.32 3.36-1.02 0-2.06-.18-3.04-.44l.16-2.2c.84.42 1.72.68 2.64.68.68 0 1.76-.26 1.76-1.26 0-2.02-4.66-.64-4.66-4.36 0-2.22 1.94-3.2 4.04-3.2 1.26 0 2.08.2 2.92.38l-.18 2.02zM109.53 210.8c-.98.54-2.1.82-3.54.82-3.4 0-5.38-1.96-5.38-5.34 0-2.98 1.58-5.44 4.78-5.44 3.82 0 4.9 2.62 4.9 6.22h-7.12c.12 1.66 1.28 2.6 2.94 2.6 1.3 0 2.42-.48 3.42-1.04v2.18zm-1.8-5.59c-.08-1.3-.68-2.42-2.18-2.42s-2.26 1.04-2.38 2.42h4.56zM119.17 210.2h-.04c-.94 1.14-1.88 1.42-3.02 1.42-3.22 0-4.38-2.6-4.38-5.42 0-2.84 1.16-5.36 4.38-5.36 1.52 0 2.5.64 3.14 1.7h.04v-1.46h2.56v14.5h-2.68v-5.38zm-4.64-4c0 1.42.5 3.34 2.26 3.34 1.78 0 2.36-1.88 2.36-3.34 0-1.44-.68-3.28-2.4-3.28-1.74-.01-2.22 1.89-2.22 3.28zM134.07 211.38h-2.54v-1.4h-.04c-.82 1-1.98 1.64-3.38 1.64-2.44 0-3.5-1.72-3.5-4.04v-6.5h2.68v5.5c0 1.26.02 2.96 1.74 2.96 1.94 0 2.36-2.1 2.36-3.42v-5.04h2.68v10.3zM145.09 210.8c-.98.54-2.1.82-3.54.82-3.4 0-5.38-1.96-5.38-5.34 0-2.98 1.58-5.44 4.78-5.44 3.82 0 4.9 2.62 4.9 6.22h-7.12c.12 1.66 1.28 2.6 2.94 2.6 1.3 0 2.42-.48 3.42-1.04v2.18zm-1.8-5.59c-.08-1.3-.68-2.42-2.18-2.42s-2.26 1.04-2.38 2.42h4.56zM147.95 201.07h2.54v1.4h.04c.84-1.18 1.98-1.64 3.38-1.64 2.44 0 3.5 1.72 3.5 4.04v6.5h-2.68v-5.5c0-1.26-.02-2.96-1.74-2.96-1.94 0-2.36 2.1-2.36 3.42v5.04h-2.68v-10.3zM166.85 203.29c-.48-.22-1-.38-1.82-.38-1.66 0-2.72 1.32-2.72 3.26 0 1.9.9 3.36 2.78 3.36.76 0 1.6-.28 2.06-.48l.12 2.22c-.78.24-1.58.34-2.68.34-3.38 0-5.08-2.3-5.08-5.44 0-2.98 1.76-5.34 4.98-5.34 1.08 0 1.86.12 2.6.34l-.24 2.12zM177.31 210.8c-.98.54-2.1.82-3.54.82-3.4 0-5.38-1.96-5.38-5.34 0-2.98 1.58-5.44 4.78-5.44 3.82 0 4.9 2.62 4.9 6.22h-7.12c.12 1.66 1.28 2.6 2.94 2.6 1.3 0 2.42-.48 3.42-1.04v2.18zm-1.8-5.59c-.08-1.3-.68-2.42-2.18-2.42s-2.26 1.04-2.38 2.42h4.56zM185.79 196.63h2.68v2.56h-2.68v-2.56zm0 4.44h2.68v10.3h-2.68v-10.3zM197.41 203.23c-.82-.28-1.42-.44-2.4-.44-.72 0-1.58.26-1.58 1.14 0 1.64 4.66.6 4.66 4.32 0 2.4-2.14 3.36-4.32 3.36-1.02 0-2.06-.18-3.04-.44l.16-2.2c.84.42 1.72.68 2.64.68.68 0 1.76-.26 1.76-1.26 0-2.02-4.66-.64-4.66-4.36 0-2.22 1.94-3.2 4.04-3.2 1.26 0 2.08.2 2.92.38l-.18 2.02zM206.71 203.03h-1.98v-1.96h1.98v-1.44c0-2.06 1.16-3.5 3.28-3.5.68 0 1.44.1 1.96.22l-.22 2.22c-.24-.14-.58-.36-1.16-.36-.9 0-1.18.78-1.18 1.58v1.28h2.34v1.96h-2.34v8.34h-2.68v-8.34zM213.57 201.07h2.38v2.34h.04c.12-.96 1.22-2.58 2.82-2.58.26 0 .54 0 .82.08v2.7c-.24-.14-.72-.22-1.2-.22-2.18 0-2.18 2.72-2.18 4.2v3.78h-2.68v-10.3zM225.65 200.83c3.06 0 5.4 2.06 5.4 5.46 0 2.96-1.98 5.32-5.4 5.32-3.4 0-5.38-2.36-5.38-5.32 0-3.4 2.34-5.46 5.38-5.46zm0 8.71c2.06 0 2.6-1.84 2.6-3.56 0-1.58-.84-3.06-2.6-3.06-1.74 0-2.58 1.52-2.58 3.06 0 1.69.54 3.56 2.58 3.56zM233.11 201.07h2.5v1.44h.04c.84-1.26 2.06-1.68 3.06-1.68 1.44 0 2.46.54 3.04 1.82.62-1.24 1.96-1.82 3.22-1.82 2.54 0 3.26 1.74 3.26 4.04v6.5h-2.68v-6.14c0-.96 0-2.32-1.54-2.32-1.78 0-2 2.12-2 3.46v5h-2.68v-6.14c0-.96 0-2.32-1.54-2.32-1.78 0-2 2.12-2 3.46v5h-2.68v-10.3zM256.63 197.41h2.8v8.06c0 2.38.76 3.94 2.9 3.94s2.9-1.56 2.9-3.94v-8.06h2.8v8.92c0 3.74-2.12 5.28-5.7 5.28s-5.7-1.54-5.7-5.28v-8.92zM270.99 196.63h2.68v2.56h-2.68v-2.56zm0 4.44h2.68v10.3h-2.68v-10.3zM275.81 207.09v-2.2h5.26v2.2h-5.26zM285.93 199.61h-4v-2.2h10.8v2.2h-4v11.76h-2.8v-11.76zM300.32 210.8c-.98.54-2.1.82-3.54.82-3.4 0-5.38-1.96-5.38-5.34 0-2.98 1.58-5.44 4.78-5.44 3.82 0 4.9 2.62 4.9 6.22h-7.12c.12 1.66 1.28 2.6 2.94 2.6 1.3 0 2.42-.48 3.42-1.04v2.18zm-1.81-5.59c-.08-1.3-.68-2.42-2.18-2.42s-2.26 1.04-2.38 2.42h4.56zM303.23 196.63h2.68v2.56h-2.68v-2.56zm0 4.44h2.68v10.3h-2.68v-10.3zM316.11 207.05c0 1.9 1.02 2.6 2.86 2.6 1.1 0 2.16-.28 3.16-.74l-.34 2.12c-1.04.32-2.18.58-3.28.58-2.96 0-4.96-1.44-4.96-4.5 0-3.2 2.48-6.28 5.86-6.28 2.54 0 4.22 1.3 4.22 3.92 0 .78-.1 1.54-.26 2.3h-7.26zm4.91-1.84c.04-.24.06-.46.06-.7 0-1.1-.58-1.72-1.7-1.72-1.66 0-2.38 1-2.9 2.42h4.54zM325.51 201.07h1.94l.46-2.12 2.88-.94-.66 3.06h2.4l-.42 1.96h-2.4l-.98 4.5c-.06.24-.12.6-.12 1 0 .62.42 1 1.02 1 .48 0 .96-.1 1.3-.24l-.46 2.08c-.46.1-.98.24-1.44.24-1.82 0-3.1-.72-3.1-2.7 0-.8.16-1.58.34-2.4l.76-3.48h-1.94l.42-1.96zM344.33 209.8h-.04c-.92 1.16-1.84 1.82-3.32 1.82-1.86 0-3.18-1.04-3.18-2.94 0-3.4 3.8-3.66 6.32-3.66h.94c.08-.28.08-.58.08-.88 0-1.04-1.12-1.34-2.06-1.34-1.18 0-2.32.3-3.38.8l.38-2.14c1.14-.4 2.3-.62 3.5-.62 2.06 0 4 .76 4 3.18 0 1.38-1.02 5.42-1.26 7.36h-2.26l.28-1.58zm-2.62-.14c2 0 2.62-1.38 3.04-3.04h-.94c-1.3 0-3.46.22-3.46 1.96 0 .72.68 1.08 1.36 1.08zM352.09 196.37h2.68l-3.18 15h-2.68l3.18-15zM355.05 208.58h2.8l-.58 2.8h-2.8l.58-2.8zM361.35 208.58h2.9l-1.82 5h-2.36l1.28-5zM55.99 219.41h3.54l2.98 10.6h.04l2.28-10.6h2.64l-3.02 13.96h-3.6l-2.92-10.7h-.04l-2.22 10.7h-2.68l3-13.96zM77.03 231.9c-.12.62-.22 1.16-.26 1.48h-2.62l.18-1h-.04c-.74.68-1.76 1.24-2.92 1.24-2.02 0-3.36-1.26-3.36-3.3 0-.78.2-1.6.34-2.24l1.08-5h2.68l-1 4.86c-.14.7-.3 1.4-.3 2.16 0 .86.6 1.44 1.46 1.44 1.86 0 2.54-1.74 2.88-3.28l1.1-5.18h2.68l-1.9 8.82zM88.07 225.43c-.52-.34-1.22-.52-1.96-.52-2.14 0-3.34 2-3.34 3.94 0 1.34.44 2.68 2.28 2.68.66 0 1.48-.18 2.18-.52l-.3 2.12c-.82.4-1.7.48-2.58.48-2.66 0-4.38-1.78-4.38-4.44 0-3.6 2.38-6.34 6.08-6.34 1 0 1.96.18 2.68.4l-.66 2.2zM91.63 218.37h2.68l-3.18 15h-2.68l3.18-15zM96.79 229.05c0 1.9 1.02 2.6 2.86 2.6 1.1 0 2.16-.28 3.16-.74l-.34 2.12c-1.04.32-2.18.58-3.28.58-2.96 0-4.96-1.44-4.96-4.5 0-3.2 2.48-6.28 5.86-6.28 2.54 0 4.22 1.3 4.22 3.92 0 .78-.1 1.54-.26 2.3h-7.26zm4.9-1.84c.04-.24.06-.46.06-.7 0-1.1-.58-1.72-1.7-1.72-1.66 0-2.38 1-2.9 2.42h4.54zM107.33 223.07h2.68l-2.2 10.3h-2.68l2.2-10.3zm.98-4.44h2.68l-.56 2.56h-2.68l.56-2.56zM119.19 225.43c-.52-.34-1.22-.52-1.96-.52-2.14 0-3.34 2-3.34 3.94 0 1.34.44 2.68 2.28 2.68.66 0 1.48-.18 2.18-.52l-.3 2.12c-.82.4-1.7.48-2.58.48-2.66 0-4.38-1.78-4.38-4.44 0-3.6 2.38-6.34 6.08-6.34 1 0 1.96.18 2.68.4l-.66 2.2zM132.33 219.41h3.1l2.54 13.96h-2.8l-.48-3.2h-5.94l-1.78 3.2h-3.1l8.46-13.96zm-2.34 8.56h4.32l-.88-6.08h-.08l-3.36 6.08zM148.07 225.43c-.52-.34-1.22-.52-1.96-.52-2.14 0-3.34 2-3.34 3.94 0 1.34.44 2.68 2.28 2.68.66 0 1.48-.18 2.18-.52l-.3 2.12c-.82.4-1.7.48-2.58.48-2.66 0-4.38-1.78-4.38-4.44 0-3.6 2.38-6.34 6.08-6.34 1 0 1.96.18 2.68.4l-.66 2.2zM150.65 223.07h2.68l-2.2 10.3h-2.68l2.2-10.3zm.98-4.44h2.68l-.56 2.56h-2.68l.56-2.56zM166.75 218.37l-2.78 12.72c-.16.88-.32 1.76-.38 2.28h-2.5l.26-1.52h-.04c-.8 1.12-1.8 1.76-3.36 1.76-2.44 0-3.54-2.04-3.54-4.28 0-3.08 1.68-6.5 5.18-6.5 1.32 0 2.34.5 3.18 1.46l1.3-5.92h2.68zm-9.54 10.72c0 1.04.32 2.44 1.64 2.44 1.96 0 3.12-2.28 3.12-4.18 0-1.2-.58-2.44-1.94-2.44-1.92 0-2.82 2.64-2.82 4.18zM174.07 225.27c-.7-.26-1.44-.48-2.2-.48-.8 0-1.8.22-1.8 1.04 0 1.3 3.48 1.78 3.48 4.3 0 2.68-2.34 3.48-4.64 3.48-1.08 0-2.16-.16-3.14-.62l.58-2.14c.76.42 1.52.8 2.56.8.9 0 1.84-.3 1.84-1.14 0-1.66-3.48-1.82-3.48-4.4 0-2.42 2.34-3.28 4.46-3.28.98 0 1.98.18 2.92.42l-.58 2.02zM183.59 219.41h3.3c2.58 0 5.56-.04 5.56 3.3 0 2.4-1.8 3.68-4.08 3.72v.04c.76.04 1.24.52 1.42 1.28l1.34 5.62h-2.94l-.68-3.28c-.32-1.48-.24-2.52-1.76-2.52h-1.06l-1.22 5.8h-2.8l2.92-13.96zm1.6 5.96h1.02c1.5 0 3.32-.46 3.32-2.3 0-1.46-1.26-1.46-2.4-1.46h-1.16l-.78 3.76zM195.67 229.05c0 1.9 1.02 2.6 2.86 2.6 1.1 0 2.16-.28 3.16-.74l-.34 2.12c-1.04.32-2.18.58-3.28.58-2.96 0-4.96-1.44-4.96-4.5 0-3.2 2.48-6.28 5.86-6.28 2.54 0 4.22 1.3 4.22 3.92 0 .78-.1 1.54-.26 2.3h-7.26zm4.9-1.84c.04-.24.06-.46.06-.7 0-1.1-.58-1.72-1.7-1.72-1.66 0-2.38 1-2.9 2.42h4.54zM211.85 225.27c-.7-.26-1.44-.48-2.2-.48-.8 0-1.8.22-1.8 1.04 0 1.3 3.48 1.78 3.48 4.3 0 2.68-2.34 3.48-4.64 3.48-1.08 0-2.16-.16-3.14-.62l.58-2.14c.76.42 1.52.8 2.56.8.9 0 1.84-.3 1.84-1.14 0-1.66-3.48-1.82-3.48-4.4 0-2.42 2.34-3.28 4.46-3.28.98 0 1.98.18 2.92.42l-.58 2.02zM213.47 230.58h2.8l-.58 2.8h-2.8l.58-2.8zM224.85 219.75c1.28-.38 2.52-.58 4.06-.58 2.6 0 5.48.78 5.48 3.82 0 1.6-1.02 2.64-2.56 3.06v.04c1.68.34 2.78 1.44 2.78 3.18 0 3.44-3.38 4.34-6.1 4.34-1.56 0-3.08-.12-4.08-.48l.18-2.94c.9.52 2.14.66 3.46.66 1.1 0 2.82-.34 2.82-1.78s-1.66-1.6-2.54-1.6c-.6 0-1.12.02-1.56.04v-2.48c.64.06 1.08.04 1.6.04.86 0 2.28-.4 2.28-1.54 0-1.34-1.28-1.6-2.4-1.6-1.24 0-2.44.2-3.24.56l-.18-2.74zM236.67 230.72c2.84-2.46 6.12-5.14 6.12-7.02 0-1.24-.86-1.76-1.98-1.76-1.2 0-2.8.46-3.66.96l-.14-2.9c2-.72 3.32-.82 4.14-.82 3.12 0 5.36 1.32 5.36 4.1 0 2.72-2.94 5.46-4.26 6.6l-1 .86h5.52v2.64h-10.1v-2.66zM249.81 230.58h2.9l-1.82 5h-2.36l1.28-5zM261.13 230.86c.74.32 1.5.56 2.44.56 2.42 0 3.24-2.24 3.32-4.32l-.04-.04c-.66.98-1.52 1.4-2.7 1.4-2.64 0-4.08-1.68-4.08-4.26 0-3.02 1.48-5.02 4.64-5.02 3.88 0 4.74 3.22 4.74 6.5 0 3.78-1.22 7.94-5.74 7.94-1.02 0-1.98-.16-2.94-.5l.36-2.26zm5.52-7.13c0-1.32-.56-2.48-1.94-2.48-1.3 0-1.84 1.26-1.84 2.5 0 1.36.56 2.62 1.9 2.62 1.36 0 1.88-1.24 1.88-2.64zM271.37 230.78c.96.38 2 .64 3.1.64 1.16 0 2.94-.56 2.94-1.98 0-1.64-1.3-2.18-3.08-2.18h-1.36v-2.2h1.28c1.88 0 3.1-.62 3.1-1.84 0-1.4-1.14-1.84-2.4-1.84-1.1 0-2.16.26-3.14.74l-.16-2.24c1.12-.44 2.46-.7 3.9-.7 1.72 0 4.6.6 4.6 3.58 0 1.9-1.18 2.8-2.6 3.34v.04c1.78.24 2.66 1.62 2.66 3.32 0 3.32-3.02 4.16-5.34 4.16-1.22 0-2.62-.16-3.66-.46l.16-2.38zM290.63 221.93c-.74-.32-1.5-.56-2.44-.56-2.42 0-3.24 2.24-3.32 4.32l.04.04c.66-.96 1.52-1.4 2.7-1.4 2.64 0 4.08 1.68 4.08 4.26 0 3.02-1.48 5.02-4.64 5.02-3.88 0-4.74-3.22-4.74-6.5 0-3.78 1.22-7.94 5.74-7.94 1.02 0 1.98.16 2.94.5l-.36 2.26zm-5.52 7.12c0 1.32.56 2.48 1.94 2.48 1.3 0 1.84-1.26 1.84-2.5 0-1.36-.56-2.62-1.9-2.62-1.36 0-1.88 1.24-1.88 2.64zM304.63 218.25c-1.72 2.74-2.9 5.26-2.9 8.96 0 3.42 1.18 6.24 2.9 8.96h-2.54c-2-2.72-3.2-5.54-3.2-8.96 0-3.7 1.2-6.22 3.2-8.96h2.54zM305.59 233.38v-2.34c1.3-1.26 6.04-5.22 6.04-7.78 0-1.28-1.14-1.88-2.28-1.88-1.18 0-2.3.52-3.22 1.12l-.22-2.32c1.26-.64 2.72-1 4.14-1 2.66 0 4.38 1.34 4.38 4.08 0 2.96-2.98 5.68-5.26 7.92h5.7v2.2h-9.28zM316.59 226.43c0-3.5 1.06-7.26 4.84-7.26 4.08 0 4.88 4.02 4.88 7.26s-.84 7.18-4.88 7.18c-4.3.01-4.84-4.25-4.84-7.18zm6.92 0c0-1.8 0-5.18-2.08-5.18-2.04 0-2.04 3.38-2.04 5.18 0 1.76-.02 5.1 2.04 5.1 2.1.01 2.08-3.33 2.08-5.1zM327.71 226.43c0-3.5 1.06-7.26 4.84-7.26 4.08 0 4.88 4.02 4.88 7.26s-.84 7.18-4.88 7.18c-4.3.01-4.84-4.25-4.84-7.18zm6.92 0c0-1.8 0-5.18-2.08-5.18-2.04 0-2.04 3.38-2.04 5.18 0 1.76-.02 5.1 2.04 5.1 2.1.01 2.08-3.33 2.08-5.1zM338.45 228.21l5.22-8.8h3.48v8.98h1.78v2.08h-1.78v2.9h-2.68v-2.9h-6.02v-2.26zm6.02.18v-6.06h-.04l-3.46 6.06h3.5zM349.39 236.18c1.7-2.72 2.9-5.54 2.9-8.96 0-3.7-1.2-6.22-2.9-8.96h2.52c1.98 2.74 3.22 5.26 3.22 8.96 0 3.42-1.24 6.24-3.22 8.96h-2.52zM357.29 230.58h2.8v2.8h-2.8v-2.8zM128.29 380.62c-1.27.7-2.73 1.07-4.6 1.07-4.42 0-6.99-2.55-6.99-6.94 0-3.87 2.05-7.07 6.21-7.07 4.97 0 6.37 3.41 6.37 8.09h-9.26c.16 2.16 1.66 3.38 3.82 3.38 1.69 0 3.15-.62 4.45-1.35v2.82zm-2.33-7.25c-.1-1.69-.88-3.15-2.83-3.15s-2.94 1.35-3.09 3.15h5.92zM130.92 367.99h4.11l2.63 4.37 2.57-4.37h3.69l-4 6.37 4.52 7.02h-4.16l-2.99-4.99-3.02 4.99h-3.82l4.6-7.02-4.13-6.37zM147.07 368.69c1.35-.62 3.17-1.01 4.65-1.01 4.08 0 5.77 1.69 5.77 5.64v1.72c0 1.35.03 2.37.05 3.35.03 1.01.08 1.95.16 2.99h-3.07c-.13-.7-.13-1.59-.16-2h-.05c-.81 1.48-2.55 2.31-4.13 2.31-2.37 0-4.68-1.43-4.68-3.98 0-2 .96-3.17 2.29-3.82 1.33-.65 3.04-.78 4.5-.78h1.92c0-2.16-.96-2.89-3.02-2.89-1.48 0-2.96.57-4.13 1.46l-.1-2.99zm4.08 10.45c1.07 0 1.9-.47 2.44-1.2.57-.75.73-1.72.73-2.76h-1.51c-1.56 0-3.87.26-3.87 2.31 0 1.16.96 1.65 2.21 1.65zM160.87 367.99h3.25v1.87h.05c1.09-1.64 2.68-2.18 3.98-2.18 1.87 0 3.2.7 3.95 2.37.81-1.61 2.55-2.37 4.19-2.37 3.3 0 4.24 2.26 4.24 5.25v8.45h-3.48v-7.98c0-1.25 0-3.02-2-3.02-2.31 0-2.6 2.76-2.6 4.5v6.5h-3.48v-7.98c0-1.25 0-3.02-2-3.02-2.31 0-2.6 2.76-2.6 4.5v6.5h-3.48v-13.39zM184.04 367.99h3.33v1.9h.05c.78-1.3 2.11-2.21 4.16-2.21 4.11 0 5.62 3.28 5.62 6.97 0 3.67-1.51 7.05-5.69 7.05-1.48 0-2.7-.36-3.93-1.85h-.05v6.99h-3.48v-18.85zm3.51 6.65c0 1.9.75 4.34 3.07 4.34 2.29 0 2.94-2.5 2.94-4.34 0-1.79-.62-4.26-2.89-4.26-2.24 0-3.12 2.39-3.12 4.26zM200 361.88h3.48v19.5H200v-19.5zM217.89 380.62c-1.27.7-2.73 1.07-4.6 1.07-4.42 0-6.99-2.55-6.99-6.94 0-3.87 2.05-7.07 6.21-7.07 4.97 0 6.37 3.41 6.37 8.09h-9.26c.16 2.16 1.66 3.38 3.82 3.38 1.69 0 3.15-.62 4.45-1.35v2.82zm-2.34-7.25c-.1-1.69-.88-3.15-2.83-3.15-1.95 0-2.94 1.35-3.09 3.15h5.92zM234.97 367.67c3.98 0 7.02 2.68 7.02 7.1 0 3.85-2.57 6.92-7.02 6.92-4.42 0-6.99-3.07-6.99-6.92 0-4.42 3.04-7.1 6.99-7.1zm0 11.31c2.68 0 3.38-2.39 3.38-4.63 0-2.05-1.09-3.98-3.38-3.98-2.26 0-3.35 1.98-3.35 3.98 0 2.22.7 4.63 3.35 4.63zM246 370.53h-2.57v-2.55H246v-1.87c0-2.68 1.51-4.55 4.26-4.55.88 0 1.87.13 2.55.29l-.29 2.89c-.31-.18-.75-.47-1.51-.47-1.17 0-1.53 1.01-1.53 2.05v1.66h3.04v2.55h-3.04v10.84H246v-10.84zM268.2 367.67c3.98 0 7.02 2.68 7.02 7.1 0 3.85-2.57 6.92-7.02 6.92-4.42 0-6.99-3.07-6.99-6.92 0-4.42 3.04-7.1 6.99-7.1zm0 11.31c2.68 0 3.38-2.39 3.38-4.63 0-2.05-1.09-3.98-3.38-3.98-2.26 0-3.35 1.98-3.35 3.98 0 2.22.7 4.63 3.35 4.63zM278.03 361.88h3.48v19.5h-3.48v-19.5zM285.26 362.21h3.48v3.33h-3.48v-3.33zm0 5.78h3.48v13.39h-3.48v-13.39zM304.7 367.99v12.09c0 3.64-1.46 7.07-7.07 7.07-1.38 0-2.96-.21-4.63-.91l.29-2.96c1.07.57 2.81 1.17 3.9 1.17 3.85 0 4.03-2.89 4.03-5.2h-.05c-.65 1.14-2.21 2.13-4.16 2.13-3.95 0-5.46-3.17-5.46-6.76 0-3.22 1.66-6.94 5.67-6.94 1.77 0 3.15.6 4.11 2.13h.05v-1.82h3.32zm-3.48 6.55c0-2.29-.88-4.16-2.91-4.16-2.37 0-3.12 2.18-3.12 4.24 0 1.82.96 4.06 2.96 4.06 2.19-.01 3.07-1.91 3.07-4.14zM314.43 367.67c3.98 0 7.02 2.68 7.02 7.1 0 3.85-2.57 6.92-7.02 6.92-4.42 0-6.99-3.07-6.99-6.92-.01-4.42 3.04-7.1 6.99-7.1zm0 11.31c2.68 0 3.38-2.39 3.38-4.63 0-2.05-1.09-3.98-3.38-3.98-2.26 0-3.35 1.98-3.35 3.98-.01 2.22.7 4.63 3.35 4.63zM324.18 367.99h3.3v1.82h.05c1.09-1.53 2.57-2.13 4.39-2.13 3.17 0 4.55 2.24 4.55 5.25v8.45h-3.48v-7.15c0-1.64-.03-3.85-2.26-3.85-2.52 0-3.07 2.73-3.07 4.45v6.55h-3.48v-13.39zM352.36 381.38h-3.3v-1.82h-.05c-1.07 1.3-2.57 2.13-4.39 2.13-3.17 0-4.55-2.24-4.55-5.25v-8.45h3.48v7.15c0 1.64.03 3.85 2.26 3.85 2.52 0 3.07-2.73 3.07-4.45v-6.55h3.48v13.39zM364.63 370.87c-.62-.29-1.3-.49-2.37-.49-2.16 0-3.54 1.72-3.54 4.24 0 2.47 1.17 4.37 3.61 4.37.99 0 2.08-.36 2.68-.62l.16 2.89c-1.01.31-2.05.44-3.48.44-4.39 0-6.6-2.99-6.6-7.07 0-3.88 2.29-6.94 6.47-6.94 1.4 0 2.42.16 3.38.44l-.31 2.74zM367.57 361.88h3.48v19.5h-3.48v-19.5zM385.46 380.62c-1.27.7-2.73 1.07-4.6 1.07-4.42 0-6.99-2.55-6.99-6.94 0-3.87 2.05-7.07 6.21-7.07 4.97 0 6.37 3.41 6.37 8.09h-9.26c.16 2.16 1.66 3.38 3.82 3.38 1.69 0 3.15-.62 4.45-1.35v2.82zm-2.34-7.25c-.1-1.69-.88-3.15-2.83-3.15-1.95 0-2.94 1.35-3.09 3.15h5.92zM395.31 367.67c3.98 0 7.02 2.68 7.02 7.1 0 3.85-2.57 6.92-7.02 6.92-4.42 0-6.99-3.07-6.99-6.92 0-4.42 3.04-7.1 6.99-7.1zm0 11.31c2.68 0 3.38-2.39 3.38-4.63 0-2.05-1.09-3.98-3.38-3.98-2.26 0-3.35 1.98-3.35 3.98 0 2.22.7 4.63 3.35 4.63zM406.21 370.53h-2.57v-2.55h2.57v-2.68l3.48-1.12v3.8h3.09v2.55h-3.09v6.24c0 1.14.31 2.21 1.64 2.21.62 0 1.22-.13 1.59-.36l.1 2.76c-.73.21-1.53.31-2.57.31-2.73 0-4.24-1.69-4.24-4.34v-6.82zM415.25 362.21h3.48v3.33h-3.48v-3.33zm0 5.78h3.48v13.39h-3.48v-13.39zM431.32 379.87h-.05c-1.04 1.3-2.47 1.82-4.11 1.82-4.11 0-5.62-3.38-5.62-7.05 0-3.69 1.51-6.97 5.62-6.97 1.74 0 2.96.6 4 1.87h.05v-7.67h3.48v19.5h-3.38v-1.5zm-3.2-.89c2.31 0 3.07-2.44 3.07-4.34 0-1.87-.88-4.26-3.12-4.26-2.26 0-2.89 2.47-2.89 4.26.01 1.85.66 4.34 2.94 4.34zM449.03 380.62c-1.27.7-2.73 1.07-4.6 1.07-4.42 0-6.99-2.55-6.99-6.94 0-3.87 2.05-7.07 6.21-7.07 4.97 0 6.37 3.41 6.37 8.09h-9.26c.16 2.16 1.66 3.38 3.82 3.38 1.69 0 3.15-.62 4.45-1.35v2.82zm-2.34-7.25c-.1-1.69-.88-3.15-2.83-3.15s-2.94 1.35-3.09 3.15h5.92zM460.05 362.21h3.48v3.33h-3.48v-3.33zm0 5.78h3.48v13.39h-3.48v-13.39zM467.2 367.99h3.3v1.82h.05c1.09-1.53 2.57-2.13 4.39-2.13 3.17 0 4.55 2.24 4.55 5.25v8.45h-3.48v-7.15c0-1.64-.03-3.85-2.26-3.85-2.52 0-3.07 2.73-3.07 4.45v6.55h-3.48v-13.39zM491.04 370.79c-1.07-.36-1.85-.57-3.12-.57-.94 0-2.05.34-2.05 1.48 0 2.13 6.06.78 6.06 5.62 0 3.12-2.78 4.37-5.62 4.37-1.33 0-2.68-.23-3.95-.57l.21-2.86c1.09.55 2.24.88 3.43.88.88 0 2.29-.34 2.29-1.64 0-2.63-6.06-.83-6.06-5.67 0-2.89 2.52-4.16 5.25-4.16 1.64 0 2.7.26 3.8.49l-.24 2.63zM505.37 380.62c-1.27.7-2.73 1.07-4.6 1.07-4.42 0-6.99-2.55-6.99-6.94 0-3.87 2.05-7.07 6.21-7.07 4.97 0 6.37 3.41 6.37 8.09h-9.26c.16 2.16 1.66 3.38 3.82 3.38 1.69 0 3.15-.62 4.45-1.35v2.82zm-2.34-7.25c-.1-1.69-.88-3.15-2.83-3.15s-2.94 1.35-3.09 3.15h5.92zM509.17 367.99h3.09v3.04h.05c.16-1.25 1.59-3.35 3.67-3.35.34 0 .7 0 1.07.1v3.51c-.31-.18-.94-.29-1.56-.29-2.83 0-2.83 3.54-2.83 5.46v4.91h-3.48v-13.38zM520.34 370.53h-2.57v-2.55h2.57v-2.68l3.48-1.12v3.8h3.09v2.55h-3.09v6.24c0 1.14.31 2.21 1.64 2.21.62 0 1.22-.13 1.59-.36l.1 2.76c-.73.21-1.53.31-2.57.31-2.73 0-4.24-1.69-4.24-4.34v-6.82zM548.5 365.25c-1.72 2.74-2.9 5.26-2.9 8.96 0 3.42 1.18 6.24 2.9 8.96h-2.54c-2-2.72-3.2-5.54-3.2-8.96 0-3.7 1.2-6.22 3.2-8.96h2.54zM550.86 371.07h2.84l2.28 7.62h.04l2.08-7.62h3.12l2.24 7.62h.04l2.14-7.62h2.56l-3.16 10.3h-3.16l-2.24-7.86h-.04l-2.2 7.86h-3.06l-3.48-10.3zM569.86 366.63h2.68v2.56h-2.68v-2.56zm0 4.44h2.68v10.3h-2.68v-10.3zM576.24 373.03h-1.98v-1.96h1.98v-2.06l2.68-.86v2.92h2.38v1.96h-2.38v4.8c0 .88.24 1.7 1.26 1.7.48 0 .94-.1 1.22-.28l.08 2.12c-.56.16-1.18.24-1.98.24-2.1 0-3.26-1.3-3.26-3.34v-5.24zM583.14 366.37h2.68v6.1h.04c.68-1 1.84-1.64 3.24-1.64 2.44 0 3.5 1.72 3.5 4.04v6.5h-2.68v-5.5c0-1.26-.02-2.96-1.74-2.96-1.94 0-2.36 2.1-2.36 3.42v5.04h-2.68v-15zM601.16 367.41h4.88c1.8 0 4.5.52 4.5 3.58 0 1.66-1.12 2.82-2.78 3.12v.04c1.9.18 3.2 1.46 3.2 3.18 0 3.52-3.16 4.04-4.92 4.04h-4.88v-13.96zm2.8 5.64h1.14c1.18 0 2.64-.26 2.64-1.7 0-1.62-1.42-1.74-2.7-1.74h-1.08v3.44zm0 6.13h1.32c1.3 0 2.88-.32 2.88-1.94 0-1.82-1.48-2.1-2.88-2.1h-1.32v4.04zM613.6 371.61c1.04-.48 2.44-.78 3.58-.78 3.14 0 4.44 1.3 4.44 4.34v1.32c0 1.04.02 1.82.04 2.58.02.78.06 1.5.12 2.3h-2.36c-.1-.54-.1-1.22-.12-1.54h-.04c-.62 1.14-1.96 1.78-3.18 1.78-1.82 0-3.6-1.1-3.6-3.06 0-1.54.74-2.44 1.76-2.94s2.34-.6 3.46-.6h1.48c0-1.66-.74-2.22-2.32-2.22-1.14 0-2.28.44-3.18 1.12l-.08-2.3zm3.14 8.05c.82 0 1.46-.36 1.88-.92.44-.58.56-1.32.56-2.12h-1.16c-1.2 0-2.98.2-2.98 1.78 0 .88.74 1.26 1.7 1.26zM624.22 371.07h2.5v1.44h.04c.84-1.26 2.06-1.68 3.06-1.68 1.44 0 2.46.54 3.04 1.82.62-1.24 1.96-1.82 3.22-1.82 2.54 0 3.26 1.74 3.26 4.04v6.5h-2.68v-6.14c0-.96 0-2.32-1.54-2.32-1.78 0-2 2.12-2 3.46v5h-2.68v-6.14c0-.96 0-2.32-1.54-2.32-1.78 0-2 2.12-2 3.46v5h-2.68v-10.3zM642.28 367.41h2.8v5.64h5.6v-5.64h2.8v13.96h-2.8v-6.12h-5.6v6.12h-2.8v-13.96zM656.48 367.41h2.8v13.96h-2.8v-13.96zM667.96 367.17h2.08l-4.88 14.44h-2.08l4.88-14.44zM674.06 367.41h2.8v5.64h5.6v-5.64h2.8v13.96h-2.8v-6.12h-5.6v6.12h-2.8v-13.96zM688.32 366.63H691v2.56h-2.68v-2.56zm0 4.44H691v10.3h-2.68v-10.3zM693.82 371.07h2.54v1.4h.04c.84-1.18 1.98-1.64 3.38-1.64 2.44 0 3.5 1.72 3.5 4.04v6.5h-2.68v-5.5c0-1.26-.02-2.96-1.74-2.96-1.94 0-2.36 2.1-2.36 3.42v5.04h-2.68v-10.3zM712.9 380.22h-.04c-.8 1-1.9 1.4-3.16 1.4-3.16 0-4.32-2.6-4.32-5.42 0-2.84 1.16-5.36 4.32-5.36 1.34 0 2.28.46 3.08 1.44h.04v-5.9h2.68v15h-2.6v-1.16zm-2.46-.68c1.78 0 2.36-1.88 2.36-3.34 0-1.44-.68-3.28-2.4-3.28-1.74 0-2.22 1.9-2.22 3.28 0 1.42.5 3.34 2.26 3.34zM718.25 367.41h2.8v13.96h-2.8v-13.96zM723.82 367.41h2.8v13.96h-2.8v-13.96zM729.37 367.41h2.8v13.96h-2.8v-13.96zM748.76 380.8c-.98.54-2.1.82-3.54.82-3.4 0-5.38-1.96-5.38-5.34 0-2.98 1.58-5.44 4.78-5.44 3.82 0 4.9 2.62 4.9 6.22h-7.12c.12 1.66 1.28 2.6 2.94 2.6 1.3 0 2.42-.48 3.42-1.04v2.18zm-1.8-5.59c-.08-1.3-.68-2.42-2.18-2.42s-2.26 1.04-2.38 2.42h4.56zM751.62 371.07h2.54v1.4h.04c.84-1.18 1.98-1.64 3.38-1.64 2.44 0 3.5 1.72 3.5 4.04v6.5h-2.68v-5.5c0-1.26-.02-2.96-1.74-2.96-1.94 0-2.36 2.1-2.36 3.42v5.04h-2.68v-10.3zM770.7 380.22h-.04c-.8 1-1.9 1.4-3.16 1.4-3.16 0-4.32-2.6-4.32-5.42 0-2.84 1.16-5.36 4.32-5.36 1.34 0 2.28.46 3.08 1.44h.04v-5.9h2.68v15h-2.6v-1.16zm-2.46-.68c1.78 0 2.36-1.88 2.36-3.34 0-1.44-.68-3.28-2.4-3.28-1.74 0-2.22 1.9-2.22 3.28 0 1.42.5 3.34 2.26 3.34zM776.81 383.18c1.7-2.72 2.9-5.54 2.9-8.96 0-3.7-1.2-6.22-2.9-8.96h2.52c1.98 2.74 3.22 5.26 3.22 8.96 0 3.42-1.24 6.24-3.22 8.96h-2.52z"/><path d="M65.11 10.61c-.98-.34-1.7-.53-2.88-.53-.86 0-1.9.31-1.9 1.37 0 1.97 5.59.72 5.59 5.18 0 2.88-2.57 4.03-5.18 4.03-1.22 0-2.47-.22-3.65-.53l.19-2.64c1.01.5 2.06.82 3.17.82.82 0 2.11-.31 2.11-1.51 0-2.42-5.59-.77-5.59-5.23 0-2.66 2.33-3.84 4.85-3.84 1.51 0 2.5.24 3.5.46l-.21 2.42zM68.49 2.69h3.22v3.07h-3.22V2.69zm0 5.33h3.22v12.36h-3.22V8.02zM75.38 3.62h4.58c5.14 0 9.67 1.73 9.67 8.38s-4.54 8.38-9.67 8.38h-4.58V3.62zm3.36 14.12h1.87c2.81 0 5.52-2.09 5.52-5.74 0-3.65-2.71-5.74-5.52-5.74h-1.87v11.48zM92.49 2.69h3.22v3.07h-3.22V2.69zm0 5.33h3.22v12.36h-3.22V8.02zM99.17 8.02h2.86v2.81h.05c.14-1.15 1.46-3.1 3.38-3.1.31 0 .65 0 .98.1v3.24c-.29-.17-.86-.26-1.44-.26-2.62 0-2.62 3.26-2.62 5.04v4.54h-3.22V8.02zM117.92 19.68c-1.18.65-2.52.98-4.25.98-4.08 0-6.46-2.35-6.46-6.41 0-3.58 1.9-6.53 5.74-6.53 4.58 0 5.88 3.14 5.88 7.46h-8.54c.14 1.99 1.54 3.12 3.53 3.12 1.56 0 2.9-.58 4.1-1.25v2.63zm-2.17-6.7c-.1-1.56-.82-2.9-2.62-2.9-1.8 0-2.71 1.25-2.86 2.9h5.48zM129.36 10.68c-.58-.26-1.2-.46-2.18-.46-1.99 0-3.26 1.58-3.26 3.91 0 2.28 1.08 4.03 3.34 4.03.91 0 1.92-.34 2.47-.58l.14 2.66c-.94.29-1.9.41-3.22.41-4.06 0-6.1-2.76-6.1-6.53 0-3.58 2.11-6.41 5.98-6.41 1.3 0 2.23.14 3.12.41l-.29 2.56zM133.06 10.37h-2.38V8.02h2.38V5.54l3.22-1.03v3.5h2.86v2.35h-2.86v5.76c0 1.06.29 2.04 1.51 2.04.58 0 1.13-.12 1.46-.34l.1 2.54c-.67.19-1.42.29-2.38.29-2.52 0-3.91-1.56-3.91-4.01v-6.27zM148.08 8.02h2.86v2.81h.05c.14-1.15 1.46-3.1 3.38-3.1.31 0 .65 0 .98.1v3.24c-.29-.17-.86-.26-1.44-.26-2.62 0-2.62 3.26-2.62 5.04v4.54h-3.22V8.02zM166.83 19.68c-1.18.65-2.52.98-4.25.98-4.08 0-6.46-2.35-6.46-6.41 0-3.58 1.9-6.53 5.74-6.53 4.58 0 5.88 3.14 5.88 7.46h-8.54c.14 1.99 1.54 3.12 3.53 3.12 1.56 0 2.9-.58 4.1-1.25v2.63zm-2.16-6.7c-.1-1.56-.82-2.9-2.62-2.9s-2.71 1.25-2.86 2.9h5.48zM177.61 10.61c-.98-.34-1.7-.53-2.88-.53-.86 0-1.9.31-1.9 1.37 0 1.97 5.59.72 5.59 5.18 0 2.88-2.57 4.03-5.18 4.03-1.22 0-2.47-.22-3.65-.53l.19-2.64c1.01.5 2.06.82 3.17.82.82 0 2.11-.31 2.11-1.51 0-2.42-5.59-.77-5.59-5.23 0-2.66 2.33-3.84 4.85-3.84 1.51 0 2.5.24 3.5.46l-.21 2.42zM192.27 20.38h-3.05V18.7h-.05c-.98 1.2-2.38 1.97-4.06 1.97-2.93 0-4.2-2.06-4.2-4.85v-7.8h3.22v6.6c0 1.51.02 3.55 2.09 3.55 2.33 0 2.83-2.52 2.83-4.1V8.02h3.22v12.36zM195.65 2.37h3.22v18h-3.22v-18zM203.31 10.37h-2.38V8.02h2.38V5.54l3.22-1.03v3.5h2.86v2.35h-2.86v5.76c0 1.06.29 2.04 1.51 2.04.58 0 1.13-.12 1.46-.34l.1 2.54c-.67.19-1.42.29-2.38.29-2.52 0-3.91-1.56-3.91-4.01v-6.27zM223.13 5.25c-1.72 2.74-2.9 5.26-2.9 8.96 0 3.42 1.18 6.24 2.9 8.96h-2.54c-2-2.72-3.2-5.54-3.2-8.96 0-3.7 1.2-6.22 3.2-8.96h2.54zM225.53 12.03h-1.98v-1.96h1.98V8.01l2.68-.86v2.92h2.38v1.96h-2.38v4.8c0 .88.24 1.7 1.26 1.7.48 0 .94-.1 1.22-.28l.08 2.12c-.56.16-1.18.24-1.98.24-2.1 0-3.26-1.3-3.26-3.34v-5.24zM232.89 10.61c1.04-.48 2.44-.78 3.58-.78 3.14 0 4.44 1.3 4.44 4.34v1.32c0 1.04.02 1.82.04 2.58.02.78.06 1.5.12 2.3h-2.36c-.1-.54-.1-1.22-.12-1.54h-.04c-.62 1.14-1.96 1.78-3.18 1.78-1.82 0-3.6-1.1-3.6-3.06 0-1.54.74-2.44 1.76-2.94s2.34-.6 3.46-.6h1.48c0-1.66-.74-2.22-2.32-2.22-1.14 0-2.28.44-3.18 1.12l-.08-2.3zm3.14 8.05c.82 0 1.46-.36 1.88-.92.44-.58.56-1.32.56-2.12h-1.16c-1.2 0-2.98.2-2.98 1.78 0 .88.74 1.26 1.7 1.26zM243.6 10.07h2.38v2.34h.04c.12-.96 1.22-2.58 2.82-2.58.26 0 .54 0 .82.08v2.7c-.24-.14-.72-.22-1.2-.22-2.18 0-2.18 2.72-2.18 4.2v3.78h-2.68v-10.3zM260.79 10.07v9.3c0 2.8-1.12 5.44-5.44 5.44-1.06 0-2.28-.16-3.56-.7l.22-2.28c.82.44 2.16.9 3 .9 2.96 0 3.1-2.22 3.1-4h-.04c-.5.88-1.7 1.64-3.2 1.64-3.04 0-4.2-2.44-4.2-5.2 0-2.48 1.28-5.34 4.36-5.34 1.36 0 2.42.46 3.16 1.64h.04v-1.4h2.56zm-2.68 5.04c0-1.76-.68-3.2-2.24-3.2-1.82 0-2.4 1.68-2.4 3.26 0 1.4.74 3.12 2.28 3.12 1.68.01 2.36-1.45 2.36-3.18zM271.81 19.8c-.98.54-2.1.82-3.54.82-3.4 0-5.38-1.96-5.38-5.34 0-2.98 1.58-5.44 4.78-5.44 3.82 0 4.9 2.62 4.9 6.22h-7.12c.12 1.66 1.28 2.6 2.94 2.6 1.3 0 2.42-.48 3.42-1.04v2.18zm-1.8-5.59c-.08-1.3-.68-2.42-2.18-2.42s-2.26 1.04-2.38 2.42h4.56zM275.54 12.03h-1.98v-1.96h1.98V8.01l2.68-.86v2.92h2.38v1.96h-2.38v4.8c0 .88.24 1.7 1.26 1.7.48 0 .94-.1 1.22-.28l.08 2.12c-.56.16-1.18.24-1.98.24-2.1 0-3.26-1.3-3.26-3.34v-5.24zM294.13 12.23c-.82-.28-1.42-.44-2.4-.44-.72 0-1.58.26-1.58 1.14 0 1.64 4.66.6 4.66 4.32 0 2.4-2.14 3.36-4.32 3.36-1.02 0-2.06-.18-3.04-.44l.16-2.2c.84.42 1.72.68 2.64.68.68 0 1.76-.26 1.76-1.26 0-2.02-4.66-.64-4.66-4.36 0-2.22 1.94-3.2 4.04-3.2 1.26 0 2.08.2 2.92.38l-.18 2.02zM305.15 19.8c-.98.54-2.1.82-3.54.82-3.4 0-5.38-1.96-5.38-5.34 0-2.98 1.58-5.44 4.78-5.44 3.82 0 4.9 2.62 4.9 6.22h-7.12c.12 1.66 1.28 2.6 2.94 2.6 1.3 0 2.42-.48 3.42-1.04v2.18zm-1.8-5.59c-.08-1.3-.68-2.42-2.18-2.42s-2.26 1.04-2.38 2.42h4.56zM314.79 19.2h-.04c-.94 1.14-1.88 1.42-3.02 1.42-3.22 0-4.38-2.6-4.38-5.42 0-2.84 1.16-5.36 4.38-5.36 1.52 0 2.5.64 3.14 1.7h.04v-1.46h2.56v14.5h-2.68V19.2zm-4.65-4.01c0 1.42.5 3.34 2.26 3.34 1.78 0 2.36-1.88 2.36-3.34 0-1.44-.68-3.28-2.4-3.28-1.74 0-2.22 1.9-2.22 3.28zM329.69 20.38h-2.54v-1.4h-.04c-.82 1-1.98 1.64-3.38 1.64-2.44 0-3.5-1.72-3.5-4.04v-6.5h2.68v5.5c0 1.26.02 2.96 1.74 2.96 1.94 0 2.36-2.1 2.36-3.42v-5.04h2.68v10.3zM340.71 19.8c-.98.54-2.1.82-3.54.82-3.4 0-5.38-1.96-5.38-5.34 0-2.98 1.58-5.44 4.78-5.44 3.82 0 4.9 2.62 4.9 6.22h-7.12c.12 1.66 1.28 2.6 2.94 2.6 1.3 0 2.42-.48 3.42-1.04v2.18zm-1.8-5.59c-.08-1.3-.68-2.42-2.18-2.42s-2.26 1.04-2.38 2.42h4.56zM343.56 10.07h2.54v1.4h.04c.84-1.18 1.98-1.64 3.38-1.64 2.44 0 3.5 1.72 3.5 4.04v6.5h-2.68v-5.5c0-1.26-.02-2.96-1.74-2.96-1.94 0-2.36 2.1-2.36 3.42v5.04h-2.68v-10.3zM362.46 12.29c-.48-.22-1-.38-1.82-.38-1.66 0-2.72 1.32-2.72 3.26 0 1.9.9 3.36 2.78 3.36.76 0 1.6-.28 2.06-.48l.12 2.22c-.78.24-1.58.34-2.68.34-3.38 0-5.08-2.3-5.08-5.44 0-2.98 1.76-5.34 4.98-5.34 1.08 0 1.86.12 2.6.34l-.24 2.12zM372.92 19.8c-.98.54-2.1.82-3.54.82-3.4 0-5.38-1.96-5.38-5.34 0-2.98 1.58-5.44 4.78-5.44 3.82 0 4.9 2.62 4.9 6.22h-7.12c.12 1.66 1.28 2.6 2.94 2.6 1.3 0 2.42-.48 3.42-1.04v2.18zm-1.8-5.59c-.08-1.3-.68-2.42-2.18-2.42s-2.26 1.04-2.38 2.42h4.56zM374.54 23.18c1.7-2.72 2.9-5.54 2.9-8.96 0-3.7-1.2-6.22-2.9-8.96h2.52c1.98 2.74 3.22 5.26 3.22 8.96 0 3.42-1.24 6.24-3.22 8.96h-2.52z" class="st3"/><path d="M7.82 34.99 9 33.37c1.07.93 2.34 1.76 4.3 1.76 2.12 0 3.78-1.26 3.78-3.33 0-2.04-1.47-3.21-3.64-3.21-1.25 0-1.99.29-3.1.91l-1.24-.79.5-7.76h9.21v2.14h-7.03l-.38 4.25c.87-.36 1.63-.58 2.73-.58 3.02 0 5.47 1.55 5.47 4.98 0 3.47-2.88 5.44-5.98 5.44-2.83 0-4.56-1.06-5.8-2.19zM28.27 19.66h2.47l-.46 2.79-.93 4.12h-1.64l.56-6.91zM407.93 34.93l1.22-1.6c1.05.98 2.5 1.8 4.39 1.8 2.06 0 3.58-1.01 3.58-2.64 0-1.77-1.46-2.94-5.52-2.94v-1.84c3.6 0 4.98-1.19 4.98-2.75 0-1.42-1.22-2.3-3.02-2.3-1.43 0-2.72.63-3.78 1.54l-1.29-1.54c1.38-1.18 3.12-2.01 5.17-2.01 3.12 0 5.43 1.5 5.43 4.13 0 1.85-1.35 3.06-3.31 3.73v.1c2.09.47 3.85 1.84 3.85 4 0 2.86-2.69 4.57-5.91 4.57-2.73 0-4.6-1.04-5.79-2.25zM428.4 19.66h2.47l-.46 2.79-.93 4.12h-1.64l.56-6.91z"/><path d="M42.73 35.13h347.4v26H42.73z" style="fill:none;stroke:red;stroke-width:3"/><path d="M469.81 155.28c0-5.34 3.1-8.51 7.34-8.51 2.18 0 3.63 1.02 4.58 2.02l-1.42 1.57c-.76-.79-1.67-1.4-3.17-1.4-2.83 0-4.73 2.38-4.73 6.24 0 3.92 1.69 6.33 4.73 6.33 1.01 0 1.97-.3 2.5-.83v-3.9h-3.02v-2.06h5.32v7.06c-1.04 1.04-2.83 1.92-4.95 1.92-4.12.02-7.18-3.06-7.18-8.44zM428.1 162.28c0-5.31 3.16-8.51 7.46-8.51 2 0 3.59.96 4.59 2.02l-1.41 1.57c-.83-.85-1.85-1.4-3.18-1.4-2.91 0-4.87 2.38-4.87 6.24 0 3.92 1.96 6.33 4.91 6.33 1.42 0 2.52-.63 3.48-1.71l1.41 1.52c-1.29 1.52-2.96 2.38-5.14 2.38-4.05.02-7.25-3.06-7.25-8.44zM480.1 110.94c0-5.31 3.16-8.51 7.46-8.51 2 0 3.58.96 4.59 2.02l-1.41 1.57c-.83-.85-1.86-1.4-3.18-1.4-2.91 0-4.87 2.38-4.87 6.24 0 3.92 1.96 6.33 4.91 6.33 1.41 0 2.52-.63 3.48-1.71l1.41 1.52c-1.29 1.52-2.96 2.38-5.14 2.38-4.05.03-7.25-3.05-7.25-8.44zM468.43 91.28c0-5.31 3.16-8.51 7.46-8.51 2 0 3.58.96 4.59 2.02l-1.41 1.57c-.83-.85-1.85-1.4-3.18-1.4-2.91 0-4.87 2.38-4.87 6.24 0 3.92 1.96 6.33 4.91 6.33 1.42 0 2.52-.63 3.48-1.71l1.41 1.52c-1.29 1.52-2.96 2.38-5.14 2.38-4.04.02-7.25-3.05-7.25-8.44zM408.43 95.28c0-5.31 3.16-8.51 7.46-8.51 2 0 3.58.96 4.59 2.02l-1.41 1.57c-.83-.85-1.86-1.4-3.18-1.4-2.91 0-4.87 2.38-4.87 6.24 0 3.92 1.96 6.33 4.91 6.33 1.42 0 2.52-.63 3.48-1.71l1.41 1.52c-1.29 1.52-2.96 2.38-5.14 2.38-4.05.02-7.25-3.05-7.25-8.44zM449.09 164.89v-10.15h2.53v10.29c0 3 1.28 4.19 3.12 4.19 1.86 0 3.17-1.18 3.17-4.19v-10.29h2.42v10.15c0 4.58-2.2 6.52-5.59 6.52-3.42-.01-5.65-1.95-5.65-6.52zM481.09 135.55V125.4h2.53v10.29c0 3 1.28 4.19 3.12 4.19 1.86 0 3.17-1.18 3.17-4.19V125.4h2.42v10.15c0 4.58-2.2 6.52-5.59 6.52-3.42 0-5.65-1.94-5.65-6.52zM448.76 85.89V75.74h2.53v10.29c0 3.01 1.28 4.19 3.12 4.19 1.86 0 3.17-1.18 3.17-4.19V75.74H460v10.15c0 4.58-2.2 6.52-5.59 6.52-3.42 0-5.65-1.94-5.65-6.52zM428.09 86.89V76.74h2.53v10.29c0 3.01 1.28 4.19 3.12 4.19 1.86 0 3.17-1.18 3.17-4.19V76.74h2.42v10.15c0 4.58-2.2 6.52-5.59 6.52-3.42-.01-5.65-1.95-5.65-6.52zM412.58 144.74h2.92l5.41 16.37h-2.68l-2.64-8.91c-.53-1.77-1.07-3.6-1.54-5.45h-.1c-.49 1.85-1 3.68-1.53 5.45l-2.68 8.91h-2.57l5.41-16.37zm-2.37 9.67h7.59v2h-7.59v-2z" class="st2"/><path d="m0 302.92 1-1.36c.9.78 1.97 1.48 3.61 1.48 1.78 0 3.17-1.06 3.17-2.8 0-1.71-1.23-2.7-3.06-2.7-1.05 0-1.67.25-2.6.77l-1.04-.67.42-6.52h7.73v1.79h-5.9l-.32 3.57c.73-.3 1.37-.48 2.29-.48 2.53 0 4.59 1.3 4.59 4.18 0 2.91-2.42 4.57-5.03 4.57-2.37.01-3.81-.87-4.86-1.83zM17.18 290.04h2.07l-.38 2.34-.78 3.46h-1.38l.47-5.8zM25.78 296.82h9.19v1.53h-9.19v-1.53zM37.74 297.65c0-4.48 2.6-7.15 6.17-7.15 1.83 0 3.05.86 3.85 1.7l-1.19 1.32c-.64-.66-1.4-1.17-2.66-1.17-2.38 0-3.97 2-3.97 5.25 0 3.3 1.42 5.32 3.97 5.32.85 0 1.65-.25 2.1-.7v-3.27h-2.54v-1.73h4.47v5.93c-.87.87-2.38 1.61-4.16 1.61-3.47 0-6.04-2.58-6.04-7.11zM54.35 290.76h2.45l4.54 13.75H59.1l-2.22-7.49c-.45-1.49-.9-3.03-1.29-4.58h-.09c-.41 1.56-.84 3.09-1.29 4.58l-2.25 7.49H49.8l4.55-13.75zm-1.99 8.13h6.38v1.68h-6.38v-1.68zM67.12 292.54h-4.44v-1.78h10.99v1.78h-4.44v11.97h-2.11v-11.97zM75.78 297.65c0-4.46 2.66-7.15 6.27-7.15 1.68 0 3.01.81 3.86 1.7l-1.19 1.32c-.7-.72-1.56-1.17-2.67-1.17-2.45 0-4.09 2-4.09 5.25 0 3.3 1.64 5.32 4.12 5.32 1.19 0 2.12-.53 2.93-1.43l1.19 1.28c-1.08 1.28-2.49 2-4.32 2-3.41-.01-6.1-2.59-6.1-7.12zM88.38 297.65c0-4.46 2.66-7.15 6.27-7.15 1.68 0 3.01.81 3.86 1.7l-1.19 1.32c-.7-.72-1.56-1.17-2.67-1.17-2.45 0-4.09 2-4.09 5.25 0 3.3 1.64 5.32 4.12 5.32 1.19 0 2.12-.53 2.93-1.43l1.19 1.28c-1.08 1.28-2.49 2-4.32 2-3.41-.01-6.1-2.59-6.1-7.12zM100.98 297.65c0-4.46 2.66-7.15 6.27-7.15 1.68 0 3.01.81 3.86 1.7l-1.19 1.32c-.7-.72-1.56-1.17-2.67-1.17-2.45 0-4.09 2-4.09 5.25 0 3.3 1.64 5.32 4.12 5.32 1.19 0 2.12-.53 2.93-1.43l1.19 1.28c-1.08 1.28-2.49 2-4.32 2-3.41-.01-6.1-2.59-6.1-7.12z"/><path d="M113.34 297.65c0-4.48 2.6-7.15 6.17-7.15 1.83 0 3.05.86 3.85 1.7l-1.19 1.32c-.64-.66-1.4-1.17-2.66-1.17-2.38 0-3.97 2-3.97 5.25 0 3.3 1.42 5.32 3.97 5.32.85 0 1.65-.25 2.1-.7v-3.27h-2.54v-1.73h4.47v5.93c-.87.87-2.38 1.61-4.16 1.61-3.47 0-6.04-2.58-6.04-7.11zM129.95 290.76h2.46l4.54 13.75h-2.25l-2.22-7.49c-.45-1.49-.9-3.03-1.29-4.58h-.08c-.41 1.56-.84 3.09-1.29 4.58l-2.25 7.49h-2.16l4.54-13.75zm-1.99 8.13h6.38v1.68h-6.38v-1.68zM138.54 297.65c0-4.48 2.6-7.15 6.17-7.15 1.83 0 3.05.86 3.85 1.7l-1.19 1.32c-.64-.66-1.4-1.17-2.66-1.17-2.38 0-3.97 2-3.97 5.25 0 3.3 1.42 5.32 3.97 5.32.85 0 1.65-.25 2.1-.7v-3.27h-2.54v-1.73h4.47v5.93c-.87.87-2.38 1.61-4.16 1.61-3.47 0-6.04-2.58-6.04-7.11zM155.15 290.76h2.45l4.54 13.75h-2.25l-2.22-7.49c-.45-1.49-.9-3.03-1.29-4.58h-.08c-.41 1.56-.84 3.09-1.29 4.58l-2.25 7.49h-2.16l4.55-13.75zm-1.99 8.13h6.38v1.68h-6.38v-1.68zM167.92 292.54h-4.44v-1.78h10.99v1.78h-4.44v11.97h-2.11v-11.97zM176.34 297.65c0-4.48 2.6-7.15 6.17-7.15 1.83 0 3.05.86 3.85 1.7l-1.19 1.32c-.64-.66-1.4-1.17-2.66-1.17-2.38 0-3.97 2-3.97 5.25 0 3.3 1.42 5.32 3.97 5.32.85 0 1.65-.25 2.1-.7v-3.27h-2.54v-1.73h4.47v5.93c-.87.87-2.38 1.61-4.16 1.61-3.47 0-6.04-2.58-6.04-7.11zM188.94 297.65c0-4.48 2.6-7.15 6.17-7.15 1.83 0 3.05.86 3.85 1.7l-1.19 1.32c-.64-.66-1.4-1.17-2.66-1.17-2.38 0-3.97 2-3.97 5.25 0 3.3 1.42 5.32 3.97 5.32.85 0 1.65-.25 2.1-.7v-3.27h-2.54v-1.73h4.47v5.93c-.87.87-2.38 1.61-4.16 1.61-3.47 0-6.04-2.58-6.04-7.11zM205.55 290.76H208l4.54 13.75h-2.25l-2.22-7.49c-.45-1.49-.9-3.03-1.29-4.58h-.08c-.41 1.56-.84 3.09-1.29 4.58l-2.25 7.49H201l4.55-13.75zm-1.99 8.13h6.38v1.68h-6.38v-1.68zM214.38 297.65c0-4.46 2.66-7.15 6.27-7.15 1.68 0 3.01.81 3.86 1.7l-1.19 1.32c-.7-.72-1.56-1.17-2.67-1.17-2.45 0-4.09 2-4.09 5.25 0 3.3 1.64 5.32 4.12 5.32 1.19 0 2.12-.53 2.93-1.43l1.19 1.28c-1.08 1.28-2.49 2-4.32 2-3.41-.01-6.1-2.59-6.1-7.12zM230.75 290.76h2.45l4.54 13.75h-2.25l-2.22-7.49c-.45-1.49-.9-3.03-1.29-4.58h-.08c-.41 1.56-.84 3.09-1.29 4.58l-2.25 7.49h-2.16l4.55-13.75zm-1.99 8.13h6.38v1.68h-6.38v-1.68zM239.34 297.65c0-4.48 2.6-7.15 6.17-7.15 1.83 0 3.05.86 3.85 1.7l-1.19 1.32c-.64-.66-1.4-1.17-2.66-1.17-2.38 0-3.97 2-3.97 5.25 0 3.3 1.42 5.32 3.97 5.32.85 0 1.65-.25 2.1-.7v-3.27h-2.54v-1.73h4.47v5.93c-.87.87-2.38 1.61-4.16 1.61-3.47 0-6.04-2.58-6.04-7.11zM251.94 297.65c0-4.48 2.6-7.15 6.17-7.15 1.83 0 3.05.86 3.85 1.7l-1.19 1.32c-.63-.66-1.4-1.17-2.66-1.17-2.38 0-3.97 2-3.97 5.25 0 3.3 1.42 5.32 3.97 5.32.85 0 1.65-.25 2.1-.7v-3.27h-2.54v-1.73h4.47v5.93c-.87.87-2.38 1.61-4.16 1.61-3.47 0-6.04-2.58-6.04-7.11zM268.72 292.54h-4.44v-1.78h10.99v1.78h-4.44v11.97h-2.11v-11.97zM281.32 292.54h-4.44v-1.78h10.99v1.78h-4.44v11.97h-2.11v-11.97zM293.75 290.76h2.45l4.54 13.75h-2.25l-2.22-7.49c-.45-1.49-.9-3.03-1.29-4.58h-.08c-.41 1.56-.84 3.09-1.29 4.58l-2.25 7.49h-2.16l4.55-13.75zm-2 8.13h6.38v1.68h-6.38v-1.68zM306.52 292.54h-4.44v-1.78h10.99v1.78h-4.44v11.97h-2.11v-11.97zM315.18 297.65c0-4.46 2.66-7.15 6.27-7.15 1.68 0 3.01.81 3.86 1.7l-1.19 1.32c-.7-.72-1.56-1.17-2.67-1.17-2.45 0-4.09 2-4.09 5.25 0 3.3 1.64 5.32 4.12 5.32 1.19 0 2.12-.53 2.93-1.43l1.19 1.28c-1.08 1.28-2.49 2-4.32 2-3.41-.01-6.1-2.59-6.1-7.12zM331.54 290.76H334l4.54 13.75h-2.25l-2.22-7.49c-.45-1.49-.9-3.03-1.29-4.58h-.08c-.41 1.56-.84 3.09-1.29 4.58l-2.25 7.49H327l4.54-13.75zm-1.99 8.13h6.38v1.68h-6.38v-1.68zM344.15 290.76h2.45l4.54 13.75h-2.25l-2.22-7.49c-.45-1.49-.9-3.03-1.29-4.58h-.08c-.41 1.56-.84 3.09-1.29 4.58l-2.25 7.49h-2.16l4.55-13.75zm-2 8.13h6.38v1.68h-6.38v-1.68zM352.98 297.65c0-4.46 2.66-7.15 6.27-7.15 1.68 0 3.01.81 3.86 1.7l-1.19 1.32c-.7-.72-1.56-1.17-2.67-1.17-2.45 0-4.09 2-4.09 5.25 0 3.3 1.64 5.32 4.12 5.32 1.19 0 2.12-.53 2.93-1.43l1.19 1.28c-1.08 1.28-2.49 2-4.32 2-3.41-.01-6.1-2.59-6.1-7.12zM365.33 297.65c0-4.48 2.6-7.15 6.17-7.15 1.83 0 3.05.86 3.85 1.7l-1.19 1.32c-.64-.66-1.4-1.17-2.66-1.17-2.38 0-3.97 2-3.97 5.25 0 3.3 1.42 5.32 3.97 5.32.85 0 1.65-.25 2.1-.7v-3.27h-2.54v-1.73h4.47v5.93c-.87.87-2.38 1.61-4.16 1.61-3.46 0-6.04-2.58-6.04-7.11z" class="st2"/><path d="M377.93 297.65c0-4.48 2.6-7.15 6.17-7.15 1.83 0 3.05.86 3.85 1.7l-1.19 1.32c-.63-.66-1.4-1.17-2.66-1.17-2.38 0-3.97 2-3.97 5.25 0 3.3 1.42 5.32 3.97 5.32.85 0 1.65-.25 2.1-.7v-3.27h-2.54v-1.73h4.47v5.93c-.87.87-2.38 1.61-4.16 1.61-3.46 0-6.04-2.58-6.04-7.11zM390.78 297.65c0-4.46 2.66-7.15 6.27-7.15 1.68 0 3.01.81 3.86 1.7l-1.19 1.32c-.7-.72-1.56-1.17-2.67-1.17-2.45 0-4.09 2-4.09 5.25 0 3.3 1.64 5.32 4.12 5.32 1.19 0 2.12-.53 2.93-1.43l1.19 1.28c-1.08 1.28-2.49 2-4.32 2-3.41-.01-6.1-2.59-6.1-7.12zM407.32 292.54h-4.44v-1.78h10.99v1.78h-4.44v11.97h-2.11v-11.97zM419.92 292.54h-4.44v-1.78h10.99v1.78h-4.44v11.97h-2.11v-11.97zM428.58 297.65c0-4.46 2.66-7.15 6.27-7.15 1.68 0 3.01.81 3.86 1.7l-1.19 1.32c-.7-.72-1.56-1.17-2.67-1.17-2.45 0-4.09 2-4.09 5.25 0 3.3 1.64 5.32 4.12 5.32 1.19 0 2.12-.53 2.93-1.43l1.19 1.28c-1.08 1.28-2.49 2-4.32 2-3.41-.01-6.1-2.59-6.1-7.12zM441.18 297.65c0-4.46 2.66-7.15 6.27-7.15 1.68 0 3.01.81 3.86 1.7l-1.19 1.32c-.7-.72-1.56-1.17-2.67-1.17-2.45 0-4.09 2-4.09 5.25 0 3.3 1.64 5.32 4.12 5.32 1.19 0 2.12-.53 2.93-1.43l1.19 1.28c-1.08 1.28-2.49 2-4.32 2-3.41-.01-6.1-2.59-6.1-7.12zM457.72 292.54h-4.44v-1.78h10.99v1.78h-4.44v11.97h-2.11v-11.97zM466.13 297.65c0-4.48 2.6-7.15 6.17-7.15 1.83 0 3.05.86 3.85 1.7l-1.19 1.32c-.63-.66-1.4-1.17-2.66-1.17-2.38 0-3.97 2-3.97 5.25 0 3.3 1.42 5.32 3.97 5.32.85 0 1.65-.25 2.1-.7v-3.27h-2.54v-1.73h4.47v5.93c-.87.87-2.38 1.61-4.16 1.61-3.46 0-6.04-2.58-6.04-7.11zM482.92 292.54h-4.44v-1.78h10.99v1.78h-4.44v11.97h-2.11v-11.97zM491.58 297.65c0-4.46 2.66-7.15 6.27-7.15 1.68 0 3.01.81 3.86 1.7l-1.19 1.32c-.7-.72-1.56-1.17-2.67-1.17-2.45 0-4.09 2-4.09 5.25 0 3.3 1.64 5.32 4.12 5.32 1.19 0 2.12-.53 2.93-1.43l1.19 1.28c-1.08 1.28-2.49 2-4.32 2-3.41-.01-6.1-2.59-6.1-7.12zM507.94 290.76h2.46l4.54 13.75h-2.25l-2.21-7.49c-.45-1.49-.9-3.03-1.29-4.58h-.08c-.41 1.56-.84 3.09-1.29 4.58l-2.25 7.49h-2.16l4.53-13.75zm-1.99 8.13h6.38v1.68h-6.38v-1.68zM516.78 297.65c0-4.46 2.66-7.15 6.27-7.15 1.68 0 3.01.81 3.86 1.7l-1.19 1.32c-.7-.72-1.56-1.17-2.67-1.17-2.45 0-4.09 2-4.09 5.25 0 3.3 1.64 5.32 4.12 5.32 1.19 0 2.12-.53 2.93-1.43l1.19 1.28c-1.08 1.28-2.49 2-4.32 2-3.41-.01-6.1-2.59-6.1-7.12z"/><path d="M529.38 297.65c0-4.46 2.66-7.15 6.27-7.15 1.68 0 3.01.81 3.86 1.7l-1.19 1.32c-.7-.72-1.56-1.17-2.67-1.17-2.45 0-4.09 2-4.09 5.25 0 3.3 1.64 5.32 4.12 5.32 1.19 0 2.12-.53 2.93-1.43l1.19 1.28c-1.08 1.28-2.49 2-4.32 2-3.41-.01-6.1-2.59-6.1-7.12zM541.73 297.65c0-4.48 2.6-7.15 6.17-7.15 1.83 0 3.05.86 3.85 1.7l-1.19 1.32c-.63-.66-1.4-1.17-2.66-1.17-2.38 0-3.97 2-3.97 5.25 0 3.3 1.42 5.32 3.97 5.32.85 0 1.65-.25 2.1-.7v-3.27h-2.54v-1.73h4.47v5.93c-.87.87-2.38 1.61-4.16 1.61-3.47 0-6.04-2.58-6.04-7.11zM558.51 292.54h-4.44v-1.78h10.99v1.78h-4.44v11.97h-2.11v-11.97zM571.11 292.54h-4.44v-1.78h10.99v1.78h-4.44v11.97h-2.11v-11.97zM579.53 297.65c0-4.48 2.6-7.15 6.17-7.15 1.83 0 3.05.86 3.85 1.7l-1.19 1.32c-.63-.66-1.4-1.17-2.66-1.17-2.38 0-3.97 2-3.97 5.25 0 3.3 1.42 5.32 3.97 5.32.85 0 1.65-.25 2.1-.7v-3.27h-2.54v-1.73h4.47v5.93c-.87.87-2.38 1.61-4.16 1.61-3.47 0-6.04-2.58-6.04-7.11zM596.14 290.76h2.46l4.54 13.75h-2.25l-2.22-7.49c-.45-1.49-.9-3.03-1.29-4.58h-.08c-.41 1.56-.84 3.09-1.29 4.58l-2.25 7.49h-2.16l4.54-13.75zm-1.99 8.13h6.38v1.68h-6.38v-1.68zM608.91 292.54h-4.44v-1.78h10.99v1.78h-4.44v11.97h-2.11v-11.97zM621.34 290.76h2.45l4.54 13.75h-2.25l-2.22-7.49c-.45-1.49-.9-3.03-1.29-4.58h-.08c-.41 1.56-.84 3.09-1.29 4.58l-2.25 7.49h-2.16l4.55-13.75zm-1.99 8.13h6.38v1.68h-6.38v-1.68zM633.94 290.76h2.46l4.54 13.75h-2.25l-2.22-7.49c-.45-1.49-.9-3.03-1.29-4.58h-.08c-.41 1.56-.84 3.09-1.29 4.58l-2.25 7.49h-2.16l4.54-13.75zm-1.99 8.13h6.38v1.68h-6.38v-1.68zM642.77 297.65c0-4.46 2.66-7.15 6.27-7.15 1.68 0 3.01.81 3.86 1.7l-1.19 1.32c-.7-.72-1.56-1.17-2.67-1.17-2.45 0-4.09 2-4.09 5.25 0 3.3 1.64 5.32 4.12 5.32 1.19 0 2.12-.53 2.93-1.43l1.19 1.28c-1.08 1.28-2.49 2-4.32 2-3.41-.01-6.1-2.59-6.1-7.12zM655.37 297.65c0-4.46 2.66-7.15 6.27-7.15 1.68 0 3.01.81 3.86 1.7l-1.19 1.32c-.7-.72-1.56-1.17-2.67-1.17-2.45 0-4.09 2-4.09 5.25 0 3.3 1.64 5.32 4.12 5.32 1.19 0 2.12-.53 2.93-1.43l1.19 1.28c-1.08 1.28-2.49 2-4.32 2-3.41-.01-6.1-2.59-6.1-7.12zM671.91 292.54h-4.44v-1.78h10.99v1.78h-4.44v11.97h-2.11v-11.97zM680.33 297.65c0-4.48 2.6-7.15 6.17-7.15 1.83 0 3.05.86 3.85 1.7l-1.19 1.32c-.63-.66-1.4-1.17-2.66-1.17-2.38 0-3.97 2-3.97 5.25 0 3.3 1.42 5.32 3.97 5.32.85 0 1.65-.25 2.1-.7v-3.27h-2.54v-1.73h4.47v5.93c-.87.87-2.38 1.61-4.16 1.61-3.47 0-6.04-2.58-6.04-7.11zM697.11 292.54h-4.44v-1.78h10.99v1.78h-4.44v11.97h-2.11v-11.97zM705.77 297.65c0-4.46 2.66-7.15 6.27-7.15 1.68 0 3.01.81 3.86 1.7l-1.19 1.32c-.7-.72-1.56-1.17-2.67-1.17-2.45 0-4.09 2-4.09 5.25 0 3.3 1.64 5.32 4.12 5.32 1.19 0 2.12-.53 2.92-1.43l1.19 1.28c-1.08 1.28-2.49 2-4.32 2-3.4-.01-6.09-2.59-6.09-7.12zM718.37 297.65c0-4.46 2.66-7.15 6.27-7.15 1.68 0 3.01.81 3.86 1.7l-1.19 1.32c-.7-.72-1.56-1.17-2.67-1.17-2.45 0-4.09 2-4.09 5.25 0 3.3 1.64 5.32 4.12 5.32 1.19 0 2.12-.53 2.93-1.43l1.19 1.28c-1.08 1.28-2.49 2-4.32 2-3.41-.01-6.1-2.59-6.1-7.12zM734.74 290.76h2.46l4.54 13.75h-2.25l-2.22-7.49c-.45-1.49-.9-3.03-1.29-4.58h-.08c-.41 1.56-.84 3.09-1.29 4.58l-2.25 7.49h-2.16l4.54-13.75zm-1.99 8.13h6.38v1.68h-6.38v-1.68zM747.51 292.54h-4.44v-1.78h10.99v1.78h-4.44v11.97h-2.11v-11.97zM756.17 297.65c0-4.46 2.66-7.15 6.27-7.15 1.68 0 3.01.81 3.86 1.7l-1.19 1.32c-.7-.72-1.56-1.17-2.67-1.17-2.45 0-4.09 2-4.09 5.25 0 3.3 1.64 5.32 4.12 5.32 1.19 0 2.12-.53 2.93-1.43l1.19 1.28c-1.08 1.28-2.49 2-4.32 2-3.41-.01-6.1-2.59-6.1-7.12zM772.71 292.54h-4.44v-1.78h10.99v1.78h-4.44v11.97h-2.11v-11.97zM781.37 297.65c0-4.46 2.66-7.15 6.27-7.15 1.68 0 3.01.81 3.86 1.7l-1.19 1.32c-.7-.72-1.56-1.17-2.67-1.17-2.45 0-4.09 2-4.09 5.25 0 3.3 1.64 5.32 4.12 5.32 1.19 0 2.12-.53 2.93-1.43l1.19 1.28c-1.08 1.28-2.49 2-4.32 2-3.41-.01-6.1-2.59-6.1-7.12z" class="st2"/><path d="M797.91 292.54h-4.44v-1.78h10.99v1.78h-4.44v11.97h-2.11v-11.97zM810.51 292.54h-4.44v-1.78h10.99v1.78h-4.44v11.97h-2.11v-11.97zM823.11 292.54h-4.44v-1.78h10.99v1.78h-4.44v11.97h-2.11v-11.97zM835.71 292.54h-4.44v-1.78h10.99v1.78h-4.44v11.97h-2.11v-11.97zM848.31 292.54h-4.44v-1.78h10.99v1.78h-4.44v11.97h-2.11v-11.97zM860.91 292.54h-4.44v-1.78h10.99v1.78h-4.44v11.97h-2.11v-11.97zM873.34 290.76h2.45l4.54 13.75h-2.25l-2.22-7.49c-.45-1.49-.9-3.03-1.29-4.58h-.08c-.41 1.56-.84 3.09-1.29 4.58l-2.25 7.49h-2.16l4.55-13.75zm-2 8.13h6.38v1.68h-6.38v-1.68zM882.57 296.82h9.19v1.53h-9.19v-1.53zM894.58 302.87l1.02-1.35c.88.82 2.1 1.52 3.69 1.52 1.73 0 3.01-.85 3.01-2.22 0-1.49-1.23-2.47-4.63-2.47v-1.55c3.03 0 4.18-1 4.18-2.31 0-1.19-1.02-1.93-2.53-1.93-1.2 0-2.29.53-3.17 1.3l-1.09-1.3c1.16-.99 2.62-1.69 4.35-1.69 2.62 0 4.56 1.26 4.56 3.47 0 1.55-1.13 2.57-2.78 3.13v.08c1.76.39 3.23 1.55 3.23 3.36 0 2.4-2.26 3.84-4.96 3.84-2.31.01-3.88-.86-4.88-1.88zM911.77 290.04h2.07l-.38 2.34-.78 3.46h-1.38l.47-5.8zM91.48 311.26c0-1.13.82-1.96 1.89-1.96 1.07 0 1.89.83 1.89 1.96 0 1.15-.82 1.96-1.89 1.96-1.07 0-1.89-.81-1.89-1.96zm0 7.33c0-1.13.82-1.96 1.89-1.96 1.07 0 1.89.83 1.89 1.96 0 1.15-.82 1.96-1.89 1.96-1.07 0-1.89-.81-1.89-1.96zM104.08 311.26c0-1.13.82-1.96 1.89-1.96 1.07 0 1.89.83 1.89 1.96 0 1.15-.82 1.96-1.89 1.96-1.07 0-1.89-.81-1.89-1.96zm0 7.33c0-1.13.82-1.96 1.89-1.96 1.07 0 1.89.83 1.89 1.96 0 1.15-.82 1.96-1.89 1.96-1.07 0-1.89-.81-1.89-1.96z"/><path d="M116.68 311.26c0-1.13.82-1.96 1.89-1.96 1.07 0 1.89.83 1.89 1.96 0 1.15-.82 1.96-1.89 1.96-1.07 0-1.89-.81-1.89-1.96zm0 7.33c0-1.13.82-1.96 1.89-1.96 1.07 0 1.89.83 1.89 1.96 0 1.15-.82 1.96-1.89 1.96-1.07 0-1.89-.81-1.89-1.96zM129.28 311.26c0-1.13.82-1.96 1.89-1.96 1.07 0 1.89.83 1.89 1.96 0 1.15-.82 1.96-1.89 1.96-1.07 0-1.89-.81-1.89-1.96zm0 7.33c0-1.13.82-1.96 1.89-1.96 1.07 0 1.89.83 1.89 1.96 0 1.15-.82 1.96-1.89 1.96-1.07 0-1.89-.81-1.89-1.96zM141.88 311.26c0-1.13.82-1.96 1.89-1.96 1.07 0 1.89.83 1.89 1.96 0 1.15-.82 1.96-1.89 1.96-1.07 0-1.89-.81-1.89-1.96zm0 7.33c0-1.13.82-1.96 1.89-1.96 1.07 0 1.89.83 1.89 1.96 0 1.15-.82 1.96-1.89 1.96-1.07 0-1.89-.81-1.89-1.96zM154.48 311.26c0-1.13.82-1.96 1.89-1.96 1.07 0 1.89.83 1.89 1.96 0 1.15-.82 1.96-1.89 1.96-1.07 0-1.89-.81-1.89-1.96zm0 7.33c0-1.13.82-1.96 1.89-1.96 1.07 0 1.89.83 1.89 1.96 0 1.15-.82 1.96-1.89 1.96-1.07 0-1.89-.81-1.89-1.96zM167.08 311.26c0-1.13.82-1.96 1.89-1.96 1.07 0 1.89.83 1.89 1.96 0 1.15-.82 1.96-1.89 1.96-1.07 0-1.89-.81-1.89-1.96zm0 7.33c0-1.13.82-1.96 1.89-1.96 1.07 0 1.89.83 1.89 1.96 0 1.15-.82 1.96-1.89 1.96-1.07 0-1.89-.81-1.89-1.96zM179.68 311.26c0-1.13.82-1.96 1.89-1.96 1.07 0 1.89.83 1.89 1.96 0 1.15-.82 1.96-1.89 1.96-1.07 0-1.89-.81-1.89-1.96zm0 7.33c0-1.13.82-1.96 1.89-1.96 1.07 0 1.89.83 1.89 1.96 0 1.15-.82 1.96-1.89 1.96-1.07 0-1.89-.81-1.89-1.96zM192.28 311.26c0-1.13.82-1.96 1.89-1.96 1.07 0 1.89.83 1.89 1.96 0 1.15-.82 1.96-1.89 1.96-1.07 0-1.89-.81-1.89-1.96zm0 7.33c0-1.13.82-1.96 1.89-1.96 1.07 0 1.89.83 1.89 1.96 0 1.15-.82 1.96-1.89 1.96-1.07 0-1.89-.81-1.89-1.96zM204.88 311.26c0-1.13.82-1.96 1.89-1.96 1.07 0 1.89.83 1.89 1.96 0 1.15-.82 1.96-1.89 1.96-1.07 0-1.89-.81-1.89-1.96zm0 7.33c0-1.13.82-1.96 1.89-1.96 1.07 0 1.89.83 1.89 1.96 0 1.15-.82 1.96-1.89 1.96-1.07 0-1.89-.81-1.89-1.96zM217.48 311.26c0-1.13.82-1.96 1.89-1.96 1.07 0 1.89.83 1.89 1.96 0 1.15-.82 1.96-1.89 1.96-1.07 0-1.89-.81-1.89-1.96zm0 7.33c0-1.13.82-1.96 1.89-1.96 1.07 0 1.89.83 1.89 1.96 0 1.15-.82 1.96-1.89 1.96-1.07 0-1.89-.81-1.89-1.96zM230.08 311.26c0-1.13.82-1.96 1.89-1.96s1.89.83 1.89 1.96c0 1.15-.82 1.96-1.89 1.96s-1.89-.81-1.89-1.96zm0 7.33c0-1.13.82-1.96 1.89-1.96s1.89.83 1.89 1.96c0 1.15-.82 1.96-1.89 1.96s-1.89-.81-1.89-1.96zM242.68 311.26c0-1.13.82-1.96 1.89-1.96 1.07 0 1.89.83 1.89 1.96 0 1.15-.82 1.96-1.89 1.96-1.07 0-1.89-.81-1.89-1.96zm0 7.33c0-1.13.82-1.96 1.89-1.96 1.07 0 1.89.83 1.89 1.96 0 1.15-.82 1.96-1.89 1.96-1.07 0-1.89-.81-1.89-1.96zM255.28 311.26c0-1.13.82-1.96 1.89-1.96 1.07 0 1.89.83 1.89 1.96 0 1.15-.82 1.96-1.89 1.96-1.07 0-1.89-.81-1.89-1.96zm0 7.33c0-1.13.82-1.96 1.89-1.96 1.07 0 1.89.83 1.89 1.96 0 1.15-.82 1.96-1.89 1.96-1.07 0-1.89-.81-1.89-1.96zM267.88 311.26c0-1.13.82-1.96 1.89-1.96 1.07 0 1.89.83 1.89 1.96 0 1.15-.82 1.96-1.89 1.96-1.07 0-1.89-.81-1.89-1.96zm0 7.33c0-1.13.82-1.96 1.89-1.96 1.07 0 1.89.83 1.89 1.96 0 1.15-.82 1.96-1.89 1.96-1.07 0-1.89-.81-1.89-1.96zM280.48 311.26c0-1.13.82-1.96 1.89-1.96 1.07 0 1.89.83 1.89 1.96 0 1.15-.82 1.96-1.89 1.96-1.07 0-1.89-.81-1.89-1.96zm0 7.33c0-1.13.82-1.96 1.89-1.96 1.07 0 1.89.83 1.89 1.96 0 1.15-.82 1.96-1.89 1.96-1.07 0-1.89-.81-1.89-1.96zM293.08 311.26c0-1.13.82-1.96 1.89-1.96s1.89.83 1.89 1.96c0 1.15-.82 1.96-1.89 1.96s-1.89-.81-1.89-1.96zm0 7.33c0-1.13.82-1.96 1.89-1.96s1.89.83 1.89 1.96c0 1.15-.82 1.96-1.89 1.96s-1.89-.81-1.89-1.96zM305.68 311.26c0-1.13.82-1.96 1.89-1.96 1.07 0 1.89.83 1.89 1.96 0 1.15-.82 1.96-1.89 1.96-1.07 0-1.89-.81-1.89-1.96zm0 7.33c0-1.13.82-1.96 1.89-1.96 1.07 0 1.89.83 1.89 1.96 0 1.15-.82 1.96-1.89 1.96-1.07 0-1.89-.81-1.89-1.96zM318.28 311.26c0-1.13.82-1.96 1.89-1.96s1.89.83 1.89 1.96c0 1.15-.82 1.96-1.89 1.96s-1.89-.81-1.89-1.96zm0 7.33c0-1.13.82-1.96 1.89-1.96s1.89.83 1.89 1.96c0 1.15-.82 1.96-1.89 1.96s-1.89-.81-1.89-1.96zM330.88 311.26c0-1.13.82-1.96 1.89-1.96 1.07 0 1.89.83 1.89 1.96 0 1.15-.82 1.96-1.89 1.96-1.07 0-1.89-.81-1.89-1.96zm0 7.33c0-1.13.82-1.96 1.89-1.96 1.07 0 1.89.83 1.89 1.96 0 1.15-.82 1.96-1.89 1.96-1.07 0-1.89-.81-1.89-1.96zM343.48 311.26c0-1.13.82-1.96 1.89-1.96 1.07 0 1.89.83 1.89 1.96 0 1.15-.82 1.96-1.89 1.96-1.07 0-1.89-.81-1.89-1.96zm0 7.33c0-1.13.82-1.96 1.89-1.96 1.07 0 1.89.83 1.89 1.96 0 1.15-.82 1.96-1.89 1.96-1.07 0-1.89-.81-1.89-1.96zM356.08 311.26c0-1.13.82-1.96 1.89-1.96 1.07 0 1.89.83 1.89 1.96 0 1.15-.82 1.96-1.89 1.96-1.07 0-1.89-.81-1.89-1.96zm0 7.33c0-1.13.82-1.96 1.89-1.96 1.07 0 1.89.83 1.89 1.96 0 1.15-.82 1.96-1.89 1.96-1.07 0-1.89-.81-1.89-1.96zM368.68 311.26c0-1.13.82-1.96 1.89-1.96 1.07 0 1.89.83 1.89 1.96 0 1.15-.82 1.96-1.89 1.96-1.07 0-1.89-.81-1.89-1.96zm0 7.33c0-1.13.82-1.96 1.89-1.96 1.07 0 1.89.83 1.89 1.96 0 1.15-.82 1.96-1.89 1.96-1.07 0-1.89-.81-1.89-1.96z" class="st2"/><path d="M381.28 311.26c0-1.13.82-1.96 1.89-1.96 1.07 0 1.89.83 1.89 1.96 0 1.15-.82 1.96-1.89 1.96-1.07 0-1.89-.81-1.89-1.96zm0 7.33c0-1.13.82-1.96 1.89-1.96 1.07 0 1.89.83 1.89 1.96 0 1.15-.82 1.96-1.89 1.96-1.07 0-1.89-.81-1.89-1.96zM393.88 311.26c0-1.13.82-1.96 1.89-1.96 1.07 0 1.89.83 1.89 1.96 0 1.15-.82 1.96-1.89 1.96-1.07 0-1.89-.81-1.89-1.96zm0 7.33c0-1.13.82-1.96 1.89-1.96 1.07 0 1.89.83 1.89 1.96 0 1.15-.82 1.96-1.89 1.96-1.07 0-1.89-.81-1.89-1.96zM406.48 311.26c0-1.13.82-1.96 1.89-1.96 1.07 0 1.89.83 1.89 1.96 0 1.15-.82 1.96-1.89 1.96-1.07 0-1.89-.81-1.89-1.96zm0 7.33c0-1.13.82-1.96 1.89-1.96 1.07 0 1.89.83 1.89 1.96 0 1.15-.82 1.96-1.89 1.96-1.07 0-1.89-.81-1.89-1.96zM419.08 311.26c0-1.13.82-1.96 1.89-1.96 1.07 0 1.89.83 1.89 1.96 0 1.15-.82 1.96-1.89 1.96-1.07 0-1.89-.81-1.89-1.96zm0 7.33c0-1.13.82-1.96 1.89-1.96 1.07 0 1.89.83 1.89 1.96 0 1.15-.82 1.96-1.89 1.96-1.07 0-1.89-.81-1.89-1.96zM431.68 311.26c0-1.13.82-1.96 1.89-1.96 1.07 0 1.89.83 1.89 1.96 0 1.15-.82 1.96-1.89 1.96-1.07 0-1.89-.81-1.89-1.96zm0 7.33c0-1.13.82-1.96 1.89-1.96 1.07 0 1.89.83 1.89 1.96 0 1.15-.82 1.96-1.89 1.96-1.07 0-1.89-.81-1.89-1.96zM444.28 311.26c0-1.13.82-1.96 1.89-1.96 1.07 0 1.89.83 1.89 1.96 0 1.15-.82 1.96-1.89 1.96-1.07 0-1.89-.81-1.89-1.96zm0 7.33c0-1.13.82-1.96 1.89-1.96 1.07 0 1.89.83 1.89 1.96 0 1.15-.82 1.96-1.89 1.96-1.07 0-1.89-.81-1.89-1.96zM456.88 311.26c0-1.13.82-1.96 1.89-1.96 1.07 0 1.89.83 1.89 1.96 0 1.15-.82 1.96-1.89 1.96-1.07 0-1.89-.81-1.89-1.96zm0 7.33c0-1.13.82-1.96 1.89-1.96 1.07 0 1.89.83 1.89 1.96 0 1.15-.82 1.96-1.89 1.96-1.07 0-1.89-.81-1.89-1.96zM469.48 311.26c0-1.13.82-1.96 1.89-1.96s1.89.83 1.89 1.96c0 1.15-.82 1.96-1.89 1.96s-1.89-.81-1.89-1.96zm0 7.33c0-1.13.82-1.96 1.89-1.96s1.89.83 1.89 1.96c0 1.15-.82 1.96-1.89 1.96s-1.89-.81-1.89-1.96zM482.08 311.26c0-1.13.82-1.96 1.89-1.96 1.07 0 1.89.83 1.89 1.96 0 1.15-.82 1.96-1.89 1.96-1.07 0-1.89-.81-1.89-1.96zm0 7.33c0-1.13.82-1.96 1.89-1.96 1.07 0 1.89.83 1.89 1.96 0 1.15-.82 1.96-1.89 1.96-1.07 0-1.89-.81-1.89-1.96zM494.68 311.26c0-1.13.82-1.96 1.89-1.96 1.07 0 1.89.83 1.89 1.96 0 1.15-.82 1.96-1.89 1.96-1.07 0-1.89-.81-1.89-1.96zm0 7.33c0-1.13.82-1.96 1.89-1.96 1.07 0 1.89.83 1.89 1.96 0 1.15-.82 1.96-1.89 1.96-1.07 0-1.89-.81-1.89-1.96zM507.28 311.26c0-1.13.82-1.96 1.89-1.96 1.07 0 1.89.83 1.89 1.96 0 1.15-.82 1.96-1.89 1.96-1.07 0-1.89-.81-1.89-1.96zm0 7.33c0-1.13.82-1.96 1.89-1.96 1.07 0 1.89.83 1.89 1.96 0 1.15-.82 1.96-1.89 1.96-1.07 0-1.89-.81-1.89-1.96zM519.88 311.26c0-1.13.82-1.96 1.89-1.96 1.07 0 1.89.83 1.89 1.96 0 1.15-.82 1.96-1.89 1.96-1.07 0-1.89-.81-1.89-1.96zm0 7.33c0-1.13.82-1.96 1.89-1.96 1.07 0 1.89.83 1.89 1.96 0 1.15-.82 1.96-1.89 1.96-1.07 0-1.89-.81-1.89-1.96z"/><path d="M532.48 311.26c0-1.13.82-1.96 1.89-1.96s1.89.83 1.89 1.96c0 1.15-.82 1.96-1.89 1.96s-1.89-.81-1.89-1.96zm0 7.33c0-1.13.82-1.96 1.89-1.96s1.89.83 1.89 1.96c0 1.15-.82 1.96-1.89 1.96s-1.89-.81-1.89-1.96zM545.08 311.26c0-1.13.82-1.96 1.89-1.96s1.89.83 1.89 1.96c0 1.15-.82 1.96-1.89 1.96s-1.89-.81-1.89-1.96zm0 7.33c0-1.13.82-1.96 1.89-1.96s1.89.83 1.89 1.96c0 1.15-.82 1.96-1.89 1.96s-1.89-.81-1.89-1.96zM557.68 311.26c0-1.13.82-1.96 1.89-1.96s1.89.83 1.89 1.96c0 1.15-.82 1.96-1.89 1.96s-1.89-.81-1.89-1.96zm0 7.33c0-1.13.82-1.96 1.89-1.96s1.89.83 1.89 1.96c0 1.15-.82 1.96-1.89 1.96s-1.89-.81-1.89-1.96zM570.28 311.26c0-1.13.82-1.96 1.89-1.96s1.89.83 1.89 1.96c0 1.15-.82 1.96-1.89 1.96s-1.89-.81-1.89-1.96zm0 7.33c0-1.13.82-1.96 1.89-1.96s1.89.83 1.89 1.96c0 1.15-.82 1.96-1.89 1.96s-1.89-.81-1.89-1.96zM582.88 311.26c0-1.13.82-1.96 1.89-1.96s1.89.83 1.89 1.96c0 1.15-.82 1.96-1.89 1.96s-1.89-.81-1.89-1.96zm0 7.33c0-1.13.82-1.96 1.89-1.96s1.89.83 1.89 1.96c0 1.15-.82 1.96-1.89 1.96s-1.89-.81-1.89-1.96zM595.48 311.26c0-1.13.82-1.96 1.89-1.96 1.07 0 1.89.83 1.89 1.96 0 1.15-.82 1.96-1.89 1.96-1.08 0-1.89-.81-1.89-1.96zm0 7.33c0-1.13.82-1.96 1.89-1.96 1.07 0 1.89.83 1.89 1.96 0 1.15-.82 1.96-1.89 1.96-1.08 0-1.89-.81-1.89-1.96zM608.08 311.26c0-1.13.82-1.96 1.89-1.96 1.07 0 1.89.83 1.89 1.96 0 1.15-.82 1.96-1.89 1.96-1.08 0-1.89-.81-1.89-1.96zm0 7.33c0-1.13.82-1.96 1.89-1.96 1.07 0 1.89.83 1.89 1.96 0 1.15-.82 1.96-1.89 1.96-1.08 0-1.89-.81-1.89-1.96zM620.67 311.26c0-1.13.82-1.96 1.89-1.96 1.07 0 1.89.83 1.89 1.96 0 1.15-.82 1.96-1.89 1.96-1.07 0-1.89-.81-1.89-1.96zm0 7.33c0-1.13.82-1.96 1.89-1.96 1.07 0 1.89.83 1.89 1.96 0 1.15-.82 1.96-1.89 1.96-1.07 0-1.89-.81-1.89-1.96zM633.27 311.26c0-1.13.82-1.96 1.89-1.96 1.07 0 1.89.83 1.89 1.96 0 1.15-.82 1.96-1.89 1.96-1.07 0-1.89-.81-1.89-1.96zm0 7.33c0-1.13.82-1.96 1.89-1.96 1.07 0 1.89.83 1.89 1.96 0 1.15-.82 1.96-1.89 1.96-1.07 0-1.89-.81-1.89-1.96zM645.88 311.26c0-1.13.82-1.96 1.89-1.96 1.07 0 1.89.83 1.89 1.96 0 1.15-.82 1.96-1.89 1.96-1.08 0-1.89-.81-1.89-1.96zm0 7.33c0-1.13.82-1.96 1.89-1.96 1.07 0 1.89.83 1.89 1.96 0 1.15-.82 1.96-1.89 1.96-1.08 0-1.89-.81-1.89-1.96zM658.47 311.26c0-1.13.82-1.96 1.89-1.96 1.07 0 1.89.83 1.89 1.96 0 1.15-.82 1.96-1.89 1.96-1.07 0-1.89-.81-1.89-1.96zm0 7.33c0-1.13.82-1.96 1.89-1.96 1.07 0 1.89.83 1.89 1.96 0 1.15-.82 1.96-1.89 1.96-1.07 0-1.89-.81-1.89-1.96zM671.07 311.26c0-1.13.82-1.96 1.89-1.96 1.07 0 1.89.83 1.89 1.96 0 1.15-.82 1.96-1.89 1.96-1.07 0-1.89-.81-1.89-1.96zm0 7.33c0-1.13.82-1.96 1.89-1.96 1.07 0 1.89.83 1.89 1.96 0 1.15-.82 1.96-1.89 1.96-1.07 0-1.89-.81-1.89-1.96zM683.67 311.26c0-1.13.82-1.96 1.89-1.96 1.07 0 1.89.83 1.89 1.96 0 1.15-.82 1.96-1.89 1.96-1.07 0-1.89-.81-1.89-1.96zm0 7.33c0-1.13.82-1.96 1.89-1.96 1.07 0 1.89.83 1.89 1.96 0 1.15-.82 1.96-1.89 1.96-1.07 0-1.89-.81-1.89-1.96zM696.27 311.26c0-1.13.82-1.96 1.89-1.96 1.07 0 1.89.83 1.89 1.96 0 1.15-.82 1.96-1.89 1.96-1.07 0-1.89-.81-1.89-1.96zm0 7.33c0-1.13.82-1.96 1.89-1.96 1.07 0 1.89.83 1.89 1.96 0 1.15-.82 1.96-1.89 1.96-1.07 0-1.89-.81-1.89-1.96zM708.87 311.26c0-1.13.82-1.96 1.89-1.96 1.07 0 1.89.83 1.89 1.96 0 1.15-.82 1.96-1.89 1.96-1.07 0-1.89-.81-1.89-1.96zm0 7.33c0-1.13.82-1.96 1.89-1.96 1.07 0 1.89.83 1.89 1.96 0 1.15-.82 1.96-1.89 1.96-1.07 0-1.89-.81-1.89-1.96zM721.47 311.26c0-1.13.82-1.96 1.89-1.96 1.07 0 1.89.83 1.89 1.96 0 1.15-.82 1.96-1.89 1.96-1.07 0-1.89-.81-1.89-1.96zm0 7.33c0-1.13.82-1.96 1.89-1.96 1.07 0 1.89.83 1.89 1.96 0 1.15-.82 1.96-1.89 1.96-1.07 0-1.89-.81-1.89-1.96zM734.07 311.26c0-1.13.82-1.96 1.89-1.96 1.07 0 1.89.83 1.89 1.96 0 1.15-.82 1.96-1.89 1.96-1.07 0-1.89-.81-1.89-1.96zm0 7.33c0-1.13.82-1.96 1.89-1.96 1.07 0 1.89.83 1.89 1.96 0 1.15-.82 1.96-1.89 1.96-1.07 0-1.89-.81-1.89-1.96zM746.67 311.26c0-1.13.82-1.96 1.89-1.96 1.07 0 1.89.83 1.89 1.96 0 1.15-.82 1.96-1.89 1.96-1.07 0-1.89-.81-1.89-1.96zm0 7.33c0-1.13.82-1.96 1.89-1.96 1.07 0 1.89.83 1.89 1.96 0 1.15-.82 1.96-1.89 1.96-1.07 0-1.89-.81-1.89-1.96zM759.27 311.26c0-1.13.82-1.96 1.89-1.96 1.07 0 1.89.83 1.89 1.96 0 1.15-.82 1.96-1.89 1.96-1.07 0-1.89-.81-1.89-1.96zm0 7.33c0-1.13.82-1.96 1.89-1.96 1.07 0 1.89.83 1.89 1.96 0 1.15-.82 1.96-1.89 1.96-1.07 0-1.89-.81-1.89-1.96zM771.87 311.26c0-1.13.82-1.96 1.89-1.96 1.07 0 1.89.83 1.89 1.96 0 1.15-.82 1.96-1.89 1.96-1.07 0-1.89-.81-1.89-1.96zm0 7.33c0-1.13.82-1.96 1.89-1.96 1.07 0 1.89.83 1.89 1.96 0 1.15-.82 1.96-1.89 1.96-1.07 0-1.89-.81-1.89-1.96zM784.47 311.26c0-1.13.82-1.96 1.89-1.96s1.89.83 1.89 1.96c0 1.15-.82 1.96-1.89 1.96s-1.89-.81-1.89-1.96zm0 7.33c0-1.13.82-1.96 1.89-1.96s1.89.83 1.89 1.96c0 1.15-.82 1.96-1.89 1.96s-1.89-.81-1.89-1.96z" class="st2"/><path d="M797.07 311.26c0-1.13.82-1.96 1.89-1.96s1.89.83 1.89 1.96c0 1.15-.82 1.96-1.89 1.96s-1.89-.81-1.89-1.96zm0 7.33c0-1.13.82-1.96 1.89-1.96s1.89.83 1.89 1.96c0 1.15-.82 1.96-1.89 1.96s-1.89-.81-1.89-1.96zM809.67 311.26c0-1.13.82-1.96 1.89-1.96 1.07 0 1.89.83 1.89 1.96 0 1.15-.82 1.96-1.89 1.96-1.07 0-1.89-.81-1.89-1.96zm0 7.33c0-1.13.82-1.96 1.89-1.96 1.07 0 1.89.83 1.89 1.96 0 1.15-.82 1.96-1.89 1.96-1.07 0-1.89-.81-1.89-1.96zM822.27 311.26c0-1.13.82-1.96 1.89-1.96 1.07 0 1.89.83 1.89 1.96 0 1.15-.82 1.96-1.89 1.96-1.07 0-1.89-.81-1.89-1.96zm0 7.33c0-1.13.82-1.96 1.89-1.96 1.07 0 1.89.83 1.89 1.96 0 1.15-.82 1.96-1.89 1.96-1.07 0-1.89-.81-1.89-1.96zM834.87 311.26c0-1.13.82-1.96 1.89-1.96 1.07 0 1.89.83 1.89 1.96 0 1.15-.82 1.96-1.89 1.96-1.07 0-1.89-.81-1.89-1.96zm0 7.33c0-1.13.82-1.96 1.89-1.96 1.07 0 1.89.83 1.89 1.96 0 1.15-.82 1.96-1.89 1.96-1.07 0-1.89-.81-1.89-1.96zM847.47 311.26c0-1.13.82-1.96 1.89-1.96s1.89.83 1.89 1.96c0 1.15-.82 1.96-1.89 1.96s-1.89-.81-1.89-1.96zm0 7.33c0-1.13.82-1.96 1.89-1.96s1.89.83 1.89 1.96c0 1.15-.82 1.96-1.89 1.96s-1.89-.81-1.89-1.96zM860.07 311.26c0-1.13.82-1.96 1.89-1.96s1.89.83 1.89 1.96c0 1.15-.82 1.96-1.89 1.96s-1.89-.81-1.89-1.96zm0 7.33c0-1.13.82-1.96 1.89-1.96s1.89.83 1.89 1.96c0 1.15-.82 1.96-1.89 1.96s-1.89-.81-1.89-1.96zM872.67 311.26c0-1.13.82-1.96 1.89-1.96 1.07 0 1.89.83 1.89 1.96 0 1.15-.82 1.96-1.89 1.96-1.07 0-1.89-.81-1.89-1.96zm0 7.33c0-1.13.82-1.96 1.89-1.96 1.07 0 1.89.83 1.89 1.96 0 1.15-.82 1.96-1.89 1.96-1.07 0-1.89-.81-1.89-1.96zM50.39 338.66l1.02-1.34c.88.82 2.1 1.52 3.69 1.52 1.73 0 3.01-.85 3.01-2.22 0-1.49-1.23-2.47-4.63-2.47v-1.55c3.03 0 4.18-1 4.18-2.31 0-1.19-1.02-1.94-2.53-1.94-1.2 0-2.29.53-3.17 1.3l-1.09-1.29c1.16-.99 2.62-1.69 4.35-1.69 2.62 0 4.56 1.26 4.56 3.47 0 1.55-1.13 2.57-2.78 3.13v.08c1.76.39 3.23 1.55 3.23 3.36 0 2.4-2.26 3.84-4.96 3.84-2.31 0-3.88-.87-4.88-1.89zM67.58 325.83h2.07l-.38 2.34-.78 3.46h-1.38l.47-5.8zM76.18 332.61h9.19v1.53h-9.19v-1.53zM88.14 333.44c0-4.48 2.6-7.15 6.17-7.15 1.83 0 3.05.86 3.85 1.7l-1.19 1.32c-.64-.67-1.4-1.17-2.66-1.17-2.38 0-3.97 2-3.97 5.25 0 3.29 1.42 5.32 3.97 5.32.85 0 1.65-.25 2.1-.7v-3.27h-2.54v-1.73h4.47v5.93c-.87.87-2.38 1.61-4.16 1.61-3.47 0-6.04-2.58-6.04-7.11zM100.74 333.44c0-4.48 2.6-7.15 6.17-7.15 1.83 0 3.05.86 3.85 1.7l-1.19 1.32c-.64-.67-1.4-1.17-2.66-1.17-2.38 0-3.97 2-3.97 5.25 0 3.29 1.42 5.32 3.97 5.32.85 0 1.65-.25 2.1-.7v-3.27h-2.54v-1.73h4.47v5.93c-.87.87-2.38 1.61-4.16 1.61-3.47 0-6.04-2.58-6.04-7.11z"/><path d="M113.58 333.44c0-4.46 2.66-7.15 6.27-7.15 1.68 0 3.01.81 3.86 1.7l-1.19 1.32c-.7-.72-1.56-1.17-2.67-1.17-2.45 0-4.09 2-4.09 5.25 0 3.29 1.64 5.32 4.12 5.32 1.19 0 2.12-.53 2.93-1.43l1.19 1.28c-1.08 1.28-2.49 2-4.32 2-3.41-.01-6.1-2.59-6.1-7.12zM130.12 328.33h-4.44v-1.78h10.99v1.78h-4.44v11.97h-2.11v-11.97zM138.78 333.44c0-4.46 2.66-7.15 6.27-7.15 1.68 0 3.01.81 3.86 1.7l-1.19 1.32c-.7-.72-1.56-1.17-2.67-1.17-2.45 0-4.09 2-4.09 5.25 0 3.29 1.64 5.32 4.12 5.32 1.19 0 2.12-.53 2.93-1.43l1.19 1.28c-1.08 1.28-2.49 2-4.32 2-3.41-.01-6.1-2.59-6.1-7.12zM155.32 328.33h-4.44v-1.78h10.99v1.78h-4.44v11.97h-2.11v-11.97zM167.75 326.55h2.45l4.54 13.75h-2.25l-2.22-7.49c-.45-1.49-.9-3.02-1.29-4.58h-.08c-.41 1.56-.84 3.09-1.29 4.58l-2.25 7.49h-2.16l4.55-13.75zm-1.99 8.13h6.38v1.68h-6.38v-1.68zM176.58 333.44c0-4.46 2.66-7.15 6.27-7.15 1.68 0 3.01.81 3.86 1.7l-1.19 1.32c-.7-.72-1.56-1.17-2.67-1.17-2.45 0-4.09 2-4.09 5.25 0 3.29 1.64 5.32 4.12 5.32 1.19 0 2.12-.53 2.93-1.43l1.19 1.28c-1.08 1.28-2.49 2-4.32 2-3.41-.01-6.1-2.59-6.1-7.12zM189.18 333.44c0-4.46 2.66-7.15 6.27-7.15 1.68 0 3.01.81 3.86 1.7l-1.19 1.32c-.7-.72-1.56-1.17-2.67-1.17-2.45 0-4.09 2-4.09 5.25 0 3.29 1.64 5.32 4.12 5.32 1.19 0 2.12-.53 2.93-1.43l1.19 1.28c-1.08 1.28-2.49 2-4.32 2-3.41-.01-6.1-2.59-6.1-7.12zM205.72 328.33h-4.44v-1.78h10.99v1.78h-4.44v11.97h-2.11v-11.97zM214.14 333.44c0-4.48 2.6-7.15 6.17-7.15 1.83 0 3.05.86 3.85 1.7l-1.19 1.32c-.64-.67-1.4-1.17-2.66-1.17-2.38 0-3.97 2-3.97 5.25 0 3.29 1.42 5.32 3.97 5.32.85 0 1.65-.25 2.1-.7v-3.27h-2.54v-1.73h4.47v5.93c-.87.87-2.38 1.61-4.16 1.61-3.47 0-6.04-2.58-6.04-7.11zM230.92 328.33h-4.44v-1.78h10.99v1.78h-4.44v11.97h-2.11v-11.97zM239.58 333.44c0-4.46 2.66-7.15 6.27-7.15 1.68 0 3.01.81 3.86 1.7l-1.19 1.32c-.7-.72-1.56-1.17-2.67-1.17-2.45 0-4.09 2-4.09 5.25 0 3.29 1.64 5.32 4.12 5.32 1.19 0 2.12-.53 2.93-1.43l1.19 1.28c-1.08 1.28-2.49 2-4.32 2-3.41-.01-6.1-2.59-6.1-7.12zM252.18 333.44c0-4.46 2.66-7.15 6.27-7.15 1.68 0 3.01.81 3.86 1.7l-1.19 1.32c-.7-.72-1.56-1.17-2.67-1.17-2.45 0-4.09 2-4.09 5.25 0 3.29 1.64 5.32 4.12 5.32 1.19 0 2.12-.53 2.93-1.43l1.19 1.28c-1.08 1.28-2.49 2-4.32 2-3.41-.01-6.1-2.59-6.1-7.12zM268.55 326.55H271l4.54 13.75h-2.25l-2.22-7.49c-.45-1.49-.9-3.02-1.29-4.58h-.08c-.41 1.56-.84 3.09-1.29 4.58l-2.25 7.49H264l4.55-13.75zm-2 8.13h6.38v1.68h-6.38v-1.68zM281.15 326.55h2.45l4.54 13.75h-2.25l-2.22-7.49c-.45-1.49-.9-3.02-1.29-4.58h-.08c-.41 1.56-.84 3.09-1.29 4.58l-2.25 7.49h-2.16l4.55-13.75zm-2 8.13h6.38v1.68h-6.38v-1.68zM293.92 328.33h-4.44v-1.78h10.99v1.78h-4.44v11.97h-2.11v-11.97zM306.35 326.55h2.45l4.54 13.75h-2.25l-2.22-7.49c-.45-1.49-.9-3.02-1.29-4.58h-.08c-.41 1.56-.84 3.09-1.29 4.58l-2.25 7.49h-2.16l4.55-13.75zm-2 8.13h6.38v1.68h-6.38v-1.68zM314.94 333.44c0-4.48 2.6-7.15 6.17-7.15 1.83 0 3.05.86 3.85 1.7l-1.19 1.32c-.63-.67-1.4-1.17-2.66-1.17-2.38 0-3.97 2-3.97 5.25 0 3.29 1.42 5.32 3.97 5.32.85 0 1.65-.25 2.1-.7v-3.27h-2.54v-1.73h4.47v5.93c-.87.87-2.38 1.61-4.16 1.61-3.47 0-6.04-2.58-6.04-7.11zM331.72 328.33h-4.44v-1.78h10.99v1.78h-4.44v11.97h-2.11v-11.97zM344.32 328.33h-4.44v-1.78h10.99v1.78h-4.44v11.97h-2.11v-11.97zM352.74 333.44c0-4.48 2.6-7.15 6.17-7.15 1.83 0 3.05.86 3.85 1.7l-1.19 1.32c-.64-.67-1.4-1.17-2.66-1.17-2.38 0-3.97 2-3.97 5.25 0 3.29 1.42 5.32 3.97 5.32.85 0 1.65-.25 2.1-.7v-3.27h-2.54v-1.73h4.47v5.93c-.87.87-2.38 1.61-4.16 1.61-3.47 0-6.04-2.58-6.04-7.11zM365.58 333.44c0-4.46 2.66-7.15 6.27-7.15 1.68 0 3.01.81 3.86 1.7l-1.19 1.32c-.7-.72-1.56-1.17-2.67-1.17-2.45 0-4.09 2-4.09 5.25 0 3.29 1.64 5.32 4.12 5.32 1.19 0 2.12-.53 2.92-1.43l1.19 1.28c-1.08 1.28-2.49 2-4.32 2-3.4-.01-6.09-2.59-6.09-7.12z" class="st2"/><path d="M378.18 333.44c0-4.46 2.66-7.15 6.27-7.15 1.68 0 3.01.81 3.86 1.7l-1.19 1.32c-.7-.72-1.56-1.17-2.67-1.17-2.45 0-4.09 2-4.09 5.25 0 3.29 1.64 5.32 4.12 5.32 1.19 0 2.12-.53 2.93-1.43l1.19 1.28c-1.08 1.28-2.49 2-4.32 2-3.41-.01-6.1-2.59-6.1-7.12zM390.53 333.44c0-4.48 2.6-7.15 6.17-7.15 1.83 0 3.05.86 3.85 1.7l-1.19 1.32c-.63-.67-1.4-1.17-2.66-1.17-2.38 0-3.97 2-3.97 5.25 0 3.29 1.42 5.32 3.97 5.32.85 0 1.65-.25 2.1-.7v-3.27h-2.54v-1.73h4.47v5.93c-.87.87-2.38 1.61-4.16 1.61-3.46 0-6.04-2.58-6.04-7.11zM407.14 326.55h2.45l4.54 13.75h-2.25l-2.22-7.49c-.45-1.49-.9-3.02-1.29-4.58h-.08c-.41 1.56-.84 3.09-1.29 4.58l-2.25 7.49h-2.16l4.55-13.75zm-1.99 8.13h6.38v1.68h-6.38v-1.68zM419.74 326.55h2.45l4.54 13.75h-2.25l-2.22-7.49c-.45-1.49-.9-3.02-1.29-4.58h-.08c-.41 1.56-.84 3.09-1.29 4.58l-2.25 7.49h-2.16l4.55-13.75zm-1.99 8.13h6.38v1.68h-6.38v-1.68zM428.33 333.44c0-4.48 2.6-7.15 6.17-7.15 1.83 0 3.05.86 3.85 1.7l-1.19 1.32c-.64-.67-1.4-1.17-2.66-1.17-2.38 0-3.97 2-3.97 5.25 0 3.29 1.42 5.32 3.97 5.32.85 0 1.65-.25 2.1-.7v-3.27h-2.54v-1.73h4.47v5.93c-.87.87-2.38 1.61-4.16 1.61-3.46 0-6.04-2.58-6.04-7.11zM440.93 333.44c0-4.48 2.6-7.15 6.17-7.15 1.83 0 3.05.86 3.85 1.7l-1.19 1.32c-.64-.67-1.4-1.17-2.66-1.17-2.38 0-3.97 2-3.97 5.25 0 3.29 1.42 5.32 3.97 5.32.85 0 1.65-.25 2.1-.7v-3.27h-2.54v-1.73h4.47v5.93c-.87.87-2.38 1.61-4.16 1.61-3.46 0-6.04-2.58-6.04-7.11zM457.54 326.55H460l4.54 13.75h-2.25l-2.22-7.49c-.45-1.49-.9-3.02-1.29-4.58h-.08c-.41 1.56-.84 3.09-1.29 4.58l-2.25 7.49H453l4.54-13.75zm-1.99 8.13h6.38v1.68h-6.38v-1.68zM466.38 333.44c0-4.46 2.66-7.15 6.27-7.15 1.68 0 3.01.81 3.86 1.7l-1.19 1.32c-.7-.72-1.56-1.17-2.67-1.17-2.45 0-4.09 2-4.09 5.25 0 3.29 1.64 5.32 4.12 5.32 1.19 0 2.12-.53 2.93-1.43l1.19 1.28c-1.08 1.28-2.49 2-4.32 2-3.41-.01-6.1-2.59-6.1-7.12zM482.74 326.55h2.45l4.54 13.75h-2.25l-2.22-7.49c-.45-1.49-.9-3.02-1.29-4.58h-.08c-.41 1.56-.84 3.09-1.29 4.58l-2.25 7.49h-2.16l4.55-13.75zm-1.99 8.13h6.38v1.68h-6.38v-1.68zM491.33 333.44c0-4.48 2.6-7.15 6.17-7.15 1.83 0 3.05.86 3.85 1.7l-1.19 1.32c-.64-.67-1.4-1.17-2.66-1.17-2.38 0-3.97 2-3.97 5.25 0 3.29 1.42 5.32 3.97 5.32.85 0 1.65-.25 2.1-.7v-3.27h-2.54v-1.73h4.47v5.93c-.87.87-2.38 1.61-4.16 1.61-3.46 0-6.04-2.58-6.04-7.11zM508.12 328.33h-4.44v-1.78h10.99v1.78h-4.44v11.97h-2.11v-11.97zM516.53 333.44c0-4.48 2.6-7.15 6.17-7.15 1.83 0 3.05.86 3.85 1.7l-1.19 1.32c-.63-.67-1.4-1.17-2.66-1.17-2.38 0-3.97 2-3.97 5.25 0 3.29 1.42 5.32 3.97 5.32.85 0 1.65-.25 2.1-.7v-3.27h-2.54v-1.73h4.47v5.93c-.87.87-2.38 1.61-4.16 1.61-3.46 0-6.04-2.58-6.04-7.11z"/><path d="M529.13 333.44c0-4.48 2.6-7.15 6.17-7.15 1.83 0 3.05.86 3.85 1.7l-1.19 1.32c-.63-.67-1.4-1.17-2.66-1.17-2.38 0-3.97 2-3.97 5.25 0 3.29 1.42 5.32 3.97 5.32.85 0 1.65-.25 2.1-.7v-3.27h-2.54v-1.73h4.47v5.93c-.87.87-2.38 1.61-4.16 1.61-3.47 0-6.04-2.58-6.04-7.11zM541.98 333.44c0-4.46 2.66-7.15 6.27-7.15 1.68 0 3.01.81 3.86 1.7l-1.19 1.32c-.7-.72-1.56-1.17-2.67-1.17-2.45 0-4.09 2-4.09 5.25 0 3.29 1.64 5.32 4.12 5.32 1.19 0 2.12-.53 2.93-1.43l1.19 1.28c-1.08 1.28-2.49 2-4.32 2-3.41-.01-6.1-2.59-6.1-7.12zM558.34 326.55h2.45l4.54 13.75h-2.25l-2.22-7.49c-.45-1.49-.9-3.02-1.29-4.58h-.08c-.41 1.56-.84 3.09-1.29 4.58l-2.25 7.49h-2.16l4.55-13.75zm-1.99 8.13h6.38v1.68h-6.38v-1.68zM570.94 326.55h2.45l4.54 13.75h-2.25l-2.22-7.49c-.45-1.49-.9-3.02-1.29-4.58h-.08c-.41 1.56-.84 3.09-1.29 4.58l-2.25 7.49h-2.16l4.55-13.75zm-1.99 8.13h6.38v1.68h-6.38v-1.68zM579.78 333.44c0-4.46 2.66-7.15 6.27-7.15 1.68 0 3.01.81 3.86 1.7l-1.19 1.32c-.7-.72-1.56-1.17-2.67-1.17-2.45 0-4.09 2-4.09 5.25 0 3.29 1.64 5.32 4.12 5.32 1.19 0 2.12-.53 2.93-1.43l1.19 1.28c-1.08 1.28-2.49 2-4.32 2-3.41-.01-6.1-2.59-6.1-7.12zM596.31 328.33h-4.44v-1.78h10.99v1.78h-4.44v11.97h-2.11v-11.97zM608.74 326.55h2.45l4.54 13.75h-2.25l-2.22-7.49c-.45-1.49-.9-3.02-1.29-4.58h-.08c-.41 1.56-.84 3.09-1.29 4.58l-2.25 7.49h-2.16l4.55-13.75zm-1.99 8.13h6.38v1.68h-6.38v-1.68zM621.51 328.33h-4.44v-1.78h10.99v1.78h-4.44v11.97h-2.11v-11.97zM634.11 328.33h-4.44v-1.78h10.99v1.78h-4.44v11.97h-2.11v-11.97zM642.53 333.44c0-4.48 2.6-7.15 6.17-7.15 1.83 0 3.05.86 3.85 1.7l-1.19 1.32c-.63-.67-1.4-1.17-2.66-1.17-2.38 0-3.97 2-3.97 5.25 0 3.29 1.42 5.32 3.97 5.32.85 0 1.65-.25 2.1-.7v-3.27h-2.54v-1.73h4.47v5.93c-.87.87-2.38 1.61-4.16 1.61-3.47 0-6.04-2.58-6.04-7.11zM655.13 333.44c0-4.48 2.6-7.15 6.17-7.15 1.83 0 3.05.86 3.85 1.7l-1.19 1.32c-.63-.67-1.4-1.17-2.66-1.17-2.38 0-3.97 2-3.97 5.25 0 3.29 1.42 5.32 3.97 5.32.85 0 1.65-.25 2.1-.7v-3.27h-2.54v-1.73h4.47v5.93c-.87.87-2.38 1.61-4.16 1.61-3.47 0-6.04-2.58-6.04-7.11zM671.74 326.55h2.46l4.54 13.75h-2.25l-2.22-7.49c-.45-1.49-.9-3.02-1.29-4.58h-.08c-.41 1.56-.84 3.09-1.29 4.58l-2.25 7.49h-2.16l4.54-13.75zm-1.99 8.13h6.38v1.68h-6.38v-1.68zM680.57 333.44c0-4.46 2.66-7.15 6.27-7.15 1.68 0 3.01.81 3.86 1.7l-1.19 1.32c-.7-.72-1.56-1.17-2.67-1.17-2.45 0-4.09 2-4.09 5.25 0 3.29 1.64 5.32 4.12 5.32 1.19 0 2.12-.53 2.93-1.43l1.19 1.28c-1.08 1.28-2.49 2-4.32 2-3.41-.01-6.1-2.59-6.1-7.12zM696.94 326.55h2.45l4.54 13.75h-2.25l-2.22-7.49c-.45-1.49-.9-3.02-1.29-4.58h-.08c-.41 1.56-.84 3.09-1.29 4.58l-2.25 7.49h-2.16l4.55-13.75zm-1.99 8.13h6.38v1.68h-6.38v-1.68zM705.53 333.44c0-4.48 2.6-7.15 6.17-7.15 1.83 0 3.05.86 3.85 1.7l-1.19 1.32c-.64-.67-1.4-1.17-2.66-1.17-2.38 0-3.97 2-3.97 5.25 0 3.29 1.42 5.32 3.97 5.32.85 0 1.65-.25 2.1-.7v-3.27h-2.54v-1.73h4.47v5.93c-.87.87-2.38 1.61-4.16 1.61-3.47 0-6.04-2.58-6.04-7.11zM718.13 333.44c0-4.48 2.6-7.15 6.17-7.15 1.83 0 3.05.86 3.85 1.7l-1.19 1.32c-.63-.67-1.4-1.17-2.66-1.17-2.38 0-3.97 2-3.97 5.25 0 3.29 1.42 5.32 3.97 5.32.85 0 1.65-.25 2.1-.7v-3.27h-2.54v-1.73h4.47v5.93c-.87.87-2.38 1.61-4.16 1.61-3.47 0-6.04-2.58-6.04-7.11zM734.91 328.33h-4.44v-1.78h10.99v1.78h-4.44v11.97h-2.11v-11.97zM747.34 326.55h2.45l4.54 13.75h-2.25l-2.22-7.49c-.45-1.49-.9-3.02-1.29-4.58h-.08c-.41 1.56-.84 3.09-1.29 4.58l-2.25 7.49h-2.16l4.55-13.75zm-1.99 8.13h6.38v1.68h-6.38v-1.68zM755.93 333.44c0-4.48 2.6-7.15 6.17-7.15 1.83 0 3.05.86 3.85 1.7l-1.19 1.32c-.64-.67-1.4-1.17-2.66-1.17-2.38 0-3.97 2-3.97 5.25 0 3.29 1.42 5.32 3.97 5.32.85 0 1.65-.25 2.1-.7v-3.27h-2.54v-1.73h4.47v5.93c-.87.87-2.38 1.61-4.16 1.61-3.47 0-6.04-2.58-6.04-7.11zM772.54 326.55H775l4.54 13.75h-2.25l-2.22-7.49c-.45-1.49-.9-3.02-1.29-4.58h-.08c-.41 1.56-.84 3.09-1.29 4.58l-2.25 7.49H768l4.54-13.75zm-1.99 8.13h6.38v1.68h-6.38v-1.68zM781.13 333.44c0-4.48 2.6-7.15 6.17-7.15 1.83 0 3.05.86 3.85 1.7l-1.19 1.32c-.63-.67-1.4-1.17-2.66-1.17-2.38 0-3.97 2-3.97 5.25 0 3.29 1.42 5.32 3.97 5.32.85 0 1.65-.25 2.1-.7v-3.27h-2.54v-1.73h4.47v5.93c-.87.87-2.38 1.61-4.16 1.61-3.47 0-6.04-2.58-6.04-7.11z" class="st2"/><path d="M797.74 326.55h2.45l4.54 13.75h-2.25l-2.22-7.49c-.45-1.49-.9-3.02-1.29-4.58h-.08c-.41 1.56-.84 3.09-1.29 4.58l-2.25 7.49h-2.16l4.55-13.75zm-1.99 8.13h6.38v1.68h-6.38v-1.68zM810.34 326.55h2.46l4.54 13.75h-2.25l-2.22-7.49c-.45-1.49-.9-3.02-1.29-4.58h-.08c-.41 1.56-.84 3.09-1.29 4.58l-2.25 7.49h-2.16l4.54-13.75zm-1.99 8.13h6.38v1.68h-6.38v-1.68zM822.94 326.55h2.45l4.54 13.75h-2.25l-2.22-7.49c-.45-1.49-.9-3.02-1.29-4.58h-.08c-.41 1.56-.84 3.09-1.29 4.58l-2.25 7.49h-2.16l4.55-13.75zm-1.99 8.13h6.38v1.68h-6.38v-1.68zM835.54 326.55h2.45l4.54 13.75h-2.25l-2.22-7.49c-.45-1.49-.9-3.02-1.29-4.58h-.08c-.41 1.56-.84 3.09-1.29 4.58l-2.25 7.49H831l4.54-13.75zm-1.99 8.13h6.38v1.68h-6.38v-1.68zM848.14 326.55h2.46l4.54 13.75h-2.25l-2.22-7.49c-.45-1.49-.9-3.02-1.29-4.58h-.08c-.41 1.56-.84 3.09-1.29 4.58l-2.25 7.49h-2.16l4.54-13.75zm-1.99 8.13h6.38v1.68h-6.38v-1.68zM860.74 326.55h2.46l4.54 13.75h-2.25l-2.22-7.49c-.45-1.49-.9-3.02-1.29-4.58h-.08c-.41 1.56-.84 3.09-1.29 4.58l-2.25 7.49h-2.16l4.54-13.75zm-1.99 8.13h6.38v1.68h-6.38v-1.68zM873.51 328.33h-4.44v-1.78h10.99v1.78h-4.44v11.97h-2.11v-11.97zM886.11 328.33h-4.44v-1.78h10.99v1.78h-4.44v11.97h-2.11v-11.97zM894.77 333.44c0-4.46 2.66-7.15 6.27-7.15 1.68 0 3.01.81 3.86 1.7l-1.19 1.32c-.7-.72-1.56-1.17-2.67-1.17-2.45 0-4.09 2-4.09 5.25 0 3.29 1.64 5.32 4.12 5.32 1.19 0 2.12-.53 2.93-1.43l1.19 1.28c-1.08 1.28-2.49 2-4.32 2-3.41-.01-6.1-2.59-6.1-7.12zM907.13 333.44c0-4.48 2.6-7.15 6.17-7.15 1.83 0 3.05.86 3.85 1.7l-1.19 1.32c-.64-.67-1.4-1.17-2.66-1.17-2.38 0-3.97 2-3.97 5.25 0 3.29 1.42 5.32 3.97 5.32.85 0 1.65-.25 2.1-.7v-3.27h-2.54v-1.73h4.47v5.93c-.87.87-2.38 1.61-4.16 1.61-3.47 0-6.04-2.58-6.04-7.11zM923.74 326.55h2.46l4.54 13.75h-2.25l-2.22-7.49c-.45-1.49-.9-3.02-1.29-4.58h-.08c-.41 1.56-.84 3.09-1.29 4.58l-2.25 7.49h-2.16l4.54-13.75zm-2 8.13h6.38v1.68h-6.38v-1.68zM932.97 332.61h9.19v1.53h-9.19v-1.53zM944.98 338.71l1-1.36c.9.78 1.97 1.48 3.62 1.48 1.78 0 3.17-1.06 3.17-2.8 0-1.71-1.23-2.69-3.06-2.69-1.05 0-1.67.25-2.6.77l-1.04-.67.42-6.52h7.73v1.79h-5.91l-.32 3.57c.73-.3 1.37-.48 2.29-.48 2.53 0 4.59 1.3 4.59 4.18 0 2.91-2.42 4.57-5.03 4.57-2.36 0-3.81-.88-4.86-1.84zM962.17 325.83h2.07l-.38 2.34-.79 3.46h-1.38l.48-5.8z"/></g></svg>