<svg xmlns="http://www.w3.org/2000/svg" xml:space="preserve" style="enable-background:new 0 0 600.72 191.88" viewBox="0 0 600.72 191.88"><style>.st0{fill:none;stroke:#007f00;stroke-width:1.25;stroke-linecap:round;stroke-dasharray:4,5}.st1{fill:red}.st2{fill:#0000ad}</style><g id="レイヤー_2"><path d="M391.25 34.64v85.97M43.85 34.64v123.47M75.34 34.64v123.47M360.17 34.64v123.47" class="st0"/><path d="M46.55 47.35c0-5.31 3.16-8.51 7.46-8.51 2 0 3.58.96 4.59 2.02l-1.41 1.57c-.83-.85-1.85-1.4-3.18-1.4-2.91 0-4.87 2.38-4.87 6.24 0 3.92 1.96 6.33 4.91 6.33 1.42 0 2.52-.63 3.48-1.71l1.41 1.52c-1.29 1.52-2.96 2.38-5.14 2.38-4.04.02-7.25-3.06-7.25-8.44zM61.55 47.35c0-5.31 3.16-8.51 7.46-8.51 2 0 3.58.96 4.59 2.02l-1.41 1.57c-.83-.85-1.85-1.4-3.18-1.4-2.91 0-4.87 2.38-4.87 6.24 0 3.92 1.96 6.33 4.91 6.33 1.42 0 2.52-.63 3.48-1.71l1.41 1.52c-1.29 1.52-2.96 2.38-5.14 2.38-4.04.02-7.25-3.06-7.25-8.44zM76.26 47.35c0-5.34 3.1-8.51 7.34-8.51 2.18 0 3.63 1.02 4.58 2.02l-1.41 1.57c-.76-.79-1.67-1.4-3.17-1.4-2.83 0-4.73 2.38-4.73 6.24 0 3.92 1.69 6.33 4.73 6.33 1.01 0 1.97-.3 2.5-.83v-3.9h-3.02v-2.06h5.32v7.06c-1.04 1.04-2.83 1.92-4.95 1.92-4.12.02-7.19-3.06-7.19-8.44zM91.26 47.35c0-5.34 3.1-8.51 7.34-8.51 2.18 0 3.63 1.02 4.58 2.02l-1.41 1.57c-.76-.79-1.67-1.4-3.17-1.4-2.83 0-4.73 2.38-4.73 6.24 0 3.92 1.69 6.33 4.73 6.33 1.01 0 1.97-.3 2.5-.83v-3.9h-3.02v-2.06h5.32v7.06c-1.04 1.04-2.83 1.92-4.95 1.92-4.12.02-7.19-3.06-7.19-8.44zM111.24 41.26h-5.28v-2.12h13.08v2.12h-5.28v14.25h-2.51V41.26zM126.24 41.26h-5.28v-2.12h13.08v2.12h-5.28v14.25h-2.51V41.26zM136.26 47.35c0-5.34 3.1-8.51 7.34-8.51 2.18 0 3.63 1.02 4.58 2.02l-1.41 1.57c-.76-.79-1.67-1.4-3.17-1.4-2.83 0-4.73 2.38-4.73 6.24 0 3.92 1.69 6.33 4.73 6.33 1.01 0 1.97-.3 2.5-.83v-3.9h-3.02v-2.06h5.32v7.06c-1.04 1.04-2.83 1.92-4.95 1.92-4.13.02-7.19-3.06-7.19-8.44zM151.55 47.35c0-5.31 3.16-8.51 7.46-8.51 2 0 3.58.96 4.59 2.02l-1.41 1.57c-.83-.85-1.85-1.4-3.18-1.4-2.91 0-4.87 2.38-4.87 6.24 0 3.92 1.96 6.33 4.91 6.33 1.42 0 2.52-.63 3.48-1.71l1.41 1.52c-1.29 1.52-2.96 2.38-5.14 2.38-4.05.02-7.25-3.06-7.25-8.44zM171.03 39.14h2.92l5.41 16.37h-2.68l-2.64-8.91c-.53-1.77-1.07-3.6-1.54-5.45h-.1c-.49 1.85-1 3.68-1.53 5.45l-2.68 8.91h-2.57l5.41-16.37zm-2.37 9.68h7.59v2h-7.59v-2zM186.03 39.14h2.92l5.41 16.37h-2.68l-2.64-8.91c-.53-1.77-1.07-3.6-1.54-5.45h-.1c-.49 1.85-1 3.68-1.53 5.45l-2.68 8.91h-2.57l5.41-16.37zm-2.37 9.68h7.59v2h-7.59v-2zM201.24 41.26h-5.28v-2.12h13.08v2.12h-5.28v14.25h-2.51V41.26zM211.26 47.35c0-5.34 3.1-8.51 7.34-8.51 2.18 0 3.63 1.02 4.58 2.02l-1.41 1.57c-.76-.79-1.67-1.4-3.17-1.4-2.83 0-4.73 2.38-4.73 6.24 0 3.92 1.69 6.33 4.73 6.33 1.01 0 1.97-.3 2.5-.83v-3.9h-3.02v-2.06h5.32v7.06c-1.04 1.04-2.83 1.92-4.95 1.92-4.13.02-7.19-3.06-7.19-8.44zM226.55 47.35c0-5.31 3.16-8.51 7.46-8.51 2 0 3.58.96 4.59 2.02l-1.41 1.57c-.83-.85-1.85-1.4-3.18-1.4-2.91 0-4.87 2.38-4.87 6.24 0 3.92 1.96 6.33 4.91 6.33 1.42 0 2.52-.63 3.48-1.71l1.41 1.52c-1.29 1.52-2.96 2.38-5.14 2.38-4.05.02-7.25-3.06-7.25-8.44zM246.03 39.14h2.92l5.41 16.37h-2.68l-2.64-8.91c-.53-1.77-1.07-3.6-1.54-5.45h-.1c-.49 1.85-1 3.68-1.53 5.45l-2.68 8.91h-2.57l5.41-16.37zm-2.37 9.68h7.59v2h-7.59v-2zM261.03 39.14h2.92l5.41 16.37h-2.68l-2.64-8.91c-.53-1.77-1.07-3.6-1.54-5.45h-.1c-.49 1.85-1 3.68-1.53 5.45l-2.68 8.91h-2.57l5.41-16.37zm-2.37 9.68h7.59v2h-7.59v-2zM271.26 47.35c0-5.34 3.1-8.51 7.34-8.51 2.18 0 3.63 1.02 4.58 2.02l-1.41 1.57c-.76-.79-1.67-1.4-3.17-1.4-2.83 0-4.73 2.38-4.73 6.24 0 3.92 1.69 6.33 4.73 6.33 1.01 0 1.97-.3 2.5-.83v-3.9h-3.02v-2.06h5.32v7.06c-1.04 1.04-2.83 1.92-4.95 1.92-4.13.02-7.19-3.06-7.19-8.44zM291.24 41.26h-5.28v-2.12h13.08v2.12h-5.28v14.25h-2.51V41.26zM306.24 41.26h-5.28v-2.12h13.08v2.12h-5.28v14.25h-2.51V41.26zM316.55 47.35c0-5.31 3.16-8.51 7.46-8.51 2 0 3.58.96 4.59 2.02l-1.42 1.57c-.83-.85-1.85-1.4-3.18-1.4-2.91 0-4.87 2.38-4.87 6.24 0 3.92 1.96 6.33 4.91 6.33 1.42 0 2.52-.63 3.48-1.71l1.41 1.52c-1.29 1.52-2.96 2.38-5.14 2.38-4.04.02-7.24-3.06-7.24-8.44zM336.24 41.26h-5.28v-2.12h13.08v2.12h-5.28v14.25h-2.51V41.26zM351.03 39.14h2.92l5.41 16.37h-2.68l-2.64-8.91c-.53-1.77-1.07-3.6-1.54-5.45h-.1c-.49 1.85-1 3.68-1.53 5.45l-2.68 8.91h-2.57l5.41-16.37zm-2.37 9.68h7.59v2h-7.59v-2zM366.24 41.26h-5.28v-2.12h13.08v2.12h-5.28v14.25h-2.51V41.26zM381.03 39.14h2.92l5.41 16.37h-2.68l-2.64-8.91c-.53-1.77-1.07-3.6-1.54-5.45h-.1c-.49 1.85-1 3.68-1.53 5.45l-2.68 8.91h-2.57l5.41-16.37zm-2.37 9.68h7.59v2h-7.59v-2z"/><path d="m31.33 113.62 1.19-1.62c1.07.93 2.34 1.76 4.3 1.76 2.12 0 3.78-1.26 3.78-3.33 0-2.04-1.47-3.21-3.64-3.21-1.25 0-1.99.29-3.1.91l-1.24-.79.5-7.76h9.2v2.14H35.3l-.38 4.25c.87-.36 1.63-.58 2.73-.58 3.02 0 5.47 1.55 5.47 4.98 0 3.47-2.88 5.44-5.98 5.44-2.84 0-4.56-1.05-5.81-2.19zM51.79 98.29h2.47l-.46 2.79-.93 4.12h-1.64l.56-6.91zM62.03 106.35h10.94v1.82H62.03v-1.82zM76.26 107.35c0-5.34 3.1-8.51 7.34-8.51 2.18 0 3.63 1.02 4.58 2.02l-1.41 1.57c-.76-.79-1.67-1.4-3.17-1.4-2.83 0-4.73 2.38-4.73 6.24 0 3.92 1.69 6.33 4.73 6.33 1.01 0 1.97-.3 2.5-.83v-3.9h-3.02v-2.06h5.32v7.06c-1.04 1.04-2.83 1.92-4.95 1.92-4.12.02-7.19-3.06-7.19-8.44zM91.26 107.35c0-5.34 3.1-8.51 7.34-8.51 2.18 0 3.63 1.02 4.58 2.02l-1.41 1.57c-.76-.79-1.67-1.4-3.17-1.4-2.83 0-4.73 2.38-4.73 6.24 0 3.92 1.69 6.33 4.73 6.33 1.01 0 1.97-.3 2.5-.83v-3.9h-3.02v-2.06h5.32v7.06c-1.04 1.04-2.83 1.92-4.95 1.92-4.12.02-7.19-3.06-7.19-8.44zM106.88 109.29V99.14h2.53v10.29c0 3.01 1.28 4.19 3.12 4.19 1.86 0 3.17-1.18 3.17-4.19V99.14h2.42v10.15c0 4.58-2.2 6.52-5.59 6.52-3.42 0-5.65-1.94-5.65-6.52zM121.87 109.29V99.14h2.53v10.29c0 3.01 1.28 4.19 3.12 4.19 1.86 0 3.17-1.18 3.17-4.19V99.14h2.42v10.15c0 4.58-2.2 6.52-5.59 6.52-3.41 0-5.65-1.94-5.65-6.52zM136.26 107.35c0-5.34 3.1-8.51 7.34-8.51 2.18 0 3.63 1.02 4.58 2.02l-1.41 1.57c-.76-.79-1.67-1.4-3.17-1.4-2.83 0-4.73 2.38-4.73 6.24 0 3.92 1.69 6.33 4.73 6.33 1.01 0 1.97-.3 2.5-.83v-3.9h-3.02v-2.06h5.32v7.06c-1.04 1.04-2.83 1.92-4.95 1.92-4.13.02-7.19-3.06-7.19-8.44zM151.55 107.35c0-5.31 3.16-8.51 7.46-8.51 2 0 3.58.96 4.59 2.02l-1.41 1.57c-.83-.85-1.85-1.4-3.18-1.4-2.91 0-4.87 2.38-4.87 6.24 0 3.92 1.96 6.33 4.91 6.33 1.42 0 2.52-.63 3.48-1.71l1.41 1.52c-1.29 1.52-2.96 2.38-5.14 2.38-4.05.02-7.25-3.06-7.25-8.44zM171.03 99.14h2.92l5.41 16.37h-2.68l-2.64-8.91c-.53-1.77-1.07-3.6-1.54-5.45h-.1c-.49 1.85-1 3.68-1.53 5.45l-2.68 8.91h-2.57l5.41-16.37zm-2.37 9.68h7.59v2h-7.59v-2zM186.03 99.14h2.92l5.41 16.37h-2.68l-2.64-8.91c-.53-1.77-1.07-3.6-1.54-5.45h-.1c-.49 1.85-1 3.68-1.53 5.45l-2.68 8.91h-2.57l5.41-16.37zm-2.37 9.68h7.59v2h-7.59v-2zM196.87 109.29V99.14h2.53v10.29c0 3.01 1.28 4.19 3.12 4.19 1.86 0 3.17-1.18 3.17-4.19V99.14h2.42v10.15c0 4.58-2.2 6.52-5.59 6.52-3.41 0-5.65-1.94-5.65-6.52zM211.26 107.35c0-5.34 3.1-8.51 7.34-8.51 2.18 0 3.63 1.02 4.58 2.02l-1.41 1.57c-.76-.79-1.67-1.4-3.17-1.4-2.83 0-4.73 2.38-4.73 6.24 0 3.92 1.69 6.33 4.73 6.33 1.01 0 1.97-.3 2.5-.83v-3.9h-3.02v-2.06h5.32v7.06c-1.04 1.04-2.83 1.92-4.95 1.92-4.13.02-7.19-3.06-7.19-8.44zM226.55 107.35c0-5.31 3.16-8.51 7.46-8.51 2 0 3.58.96 4.59 2.02l-1.41 1.57c-.83-.85-1.85-1.4-3.18-1.4-2.91 0-4.87 2.38-4.87 6.24 0 3.92 1.96 6.33 4.91 6.33 1.42 0 2.52-.63 3.48-1.71l1.41 1.52c-1.29 1.52-2.96 2.38-5.14 2.38-4.05.02-7.25-3.06-7.25-8.44zM246.03 99.14h2.92l5.41 16.37h-2.68l-2.64-8.91c-.53-1.77-1.07-3.6-1.54-5.45h-.1c-.49 1.85-1 3.68-1.53 5.45l-2.68 8.91h-2.57l5.41-16.37zm-2.37 9.68h7.59v2h-7.59v-2zM261.03 99.14h2.92l5.41 16.37h-2.68l-2.64-8.91c-.53-1.77-1.07-3.6-1.54-5.45h-.1c-.49 1.85-1 3.68-1.53 5.45l-2.68 8.91h-2.57l5.41-16.37zm-2.37 9.68h7.59v2h-7.59v-2zM271.26 107.35c0-5.34 3.1-8.51 7.34-8.51 2.18 0 3.63 1.02 4.58 2.02l-1.41 1.57c-.76-.79-1.67-1.4-3.17-1.4-2.83 0-4.73 2.38-4.73 6.24 0 3.92 1.69 6.33 4.73 6.33 1.01 0 1.97-.3 2.5-.83v-3.9h-3.02v-2.06h5.32v7.06c-1.04 1.04-2.83 1.92-4.95 1.92-4.13.02-7.19-3.06-7.19-8.44zM286.87 109.29V99.14h2.53v10.29c0 3.01 1.28 4.19 3.12 4.19 1.86 0 3.17-1.18 3.17-4.19V99.14h2.42v10.15c0 4.58-2.2 6.52-5.59 6.52-3.41 0-5.65-1.94-5.65-6.52zM301.87 109.29V99.14h2.53v10.29c0 3.01 1.28 4.19 3.12 4.19 1.86 0 3.17-1.18 3.17-4.19V99.14h2.42v10.15c0 4.58-2.2 6.52-5.59 6.52-3.41 0-5.65-1.94-5.65-6.52zM316.55 107.35c0-5.31 3.16-8.51 7.46-8.51 2 0 3.58.96 4.59 2.02l-1.42 1.57c-.83-.85-1.85-1.4-3.18-1.4-2.91 0-4.87 2.38-4.87 6.24 0 3.92 1.96 6.33 4.91 6.33 1.42 0 2.52-.63 3.48-1.71l1.41 1.52c-1.29 1.52-2.96 2.38-5.14 2.38-4.04.02-7.24-3.06-7.24-8.44zM331.87 109.29V99.14h2.53v10.29c0 3.01 1.28 4.19 3.12 4.19 1.86 0 3.17-1.18 3.17-4.19V99.14h2.42v10.15c0 4.58-2.2 6.52-5.59 6.52-3.41 0-5.65-1.94-5.65-6.52zM351.03 99.14h2.92l5.41 16.37h-2.68l-2.64-8.91c-.53-1.77-1.07-3.6-1.54-5.45h-.1c-.49 1.85-1 3.68-1.53 5.45l-2.68 8.91h-2.57l5.41-16.37zm-2.37 9.68h7.59v2h-7.59v-2zM361.87 109.29V99.14h2.53v10.29c0 3.01 1.28 4.19 3.12 4.19 1.86 0 3.17-1.18 3.17-4.19V99.14h2.42v10.15c0 4.58-2.2 6.52-5.59 6.52-3.41 0-5.65-1.94-5.65-6.52zM381.03 99.14h2.92l5.41 16.37h-2.68l-2.64-8.91c-.53-1.77-1.07-3.6-1.54-5.45h-.1c-.49 1.85-1 3.68-1.53 5.45l-2.68 8.91h-2.57l5.41-16.37zm-2.37 9.68h7.59v2h-7.59v-2zM392.02 106.35h10.94v1.82h-10.94v-1.82zM406.32 113.56l1.22-1.6c1.05.98 2.5 1.8 4.39 1.8 2.06 0 3.58-1.01 3.58-2.64 0-1.77-1.46-2.94-5.52-2.94v-1.84c3.6 0 4.98-1.19 4.98-2.75 0-1.42-1.22-2.3-3.02-2.3-1.43 0-2.72.63-3.78 1.54l-1.3-1.54c1.38-1.18 3.12-2.01 5.17-2.01 3.12 0 5.43 1.5 5.43 4.13 0 1.85-1.35 3.06-3.31 3.73v.1c2.09.47 3.85 1.84 3.85 4 0 2.86-2.69 4.57-5.91 4.57-2.72 0-4.59-1.03-5.78-2.25zM426.79 98.29h2.47l-.46 2.79-.93 4.12h-1.64l.56-6.91zM80.24 123.75c0-1.35.97-2.33 2.25-2.33s2.25.99 2.25 2.33c0 1.37-.97 2.33-2.25 2.33s-2.25-.96-2.25-2.33zm0 8.72c0-1.35.97-2.33 2.25-2.33s2.25.99 2.25 2.33c0 1.37-.97 2.33-2.25 2.33s-2.25-.95-2.25-2.33zM95.24 123.75c0-1.35.97-2.33 2.25-2.33s2.25.99 2.25 2.33c0 1.37-.97 2.33-2.25 2.33-1.27 0-2.25-.96-2.25-2.33zm0 8.72c0-1.35.97-2.33 2.25-2.33s2.25.99 2.25 2.33c0 1.37-.97 2.33-2.25 2.33-1.27.01-2.25-.95-2.25-2.33zM110.24 123.75c0-1.35.97-2.33 2.25-2.33s2.25.99 2.25 2.33c0 1.37-.97 2.33-2.25 2.33s-2.25-.96-2.25-2.33zm0 8.72c0-1.35.97-2.33 2.25-2.33s2.25.99 2.25 2.33c0 1.37-.97 2.33-2.25 2.33s-2.25-.95-2.25-2.33zM125.24 123.75c0-1.35.97-2.33 2.25-2.33s2.25.99 2.25 2.33c0 1.37-.97 2.33-2.25 2.33-1.27 0-2.25-.96-2.25-2.33zm0 8.72c0-1.35.97-2.33 2.25-2.33s2.25.99 2.25 2.33c0 1.37-.97 2.33-2.25 2.33-1.27.01-2.25-.95-2.25-2.33zM140.24 123.75c0-1.35.97-2.33 2.25-2.33s2.25.99 2.25 2.33c0 1.37-.97 2.33-2.25 2.33s-2.25-.96-2.25-2.33zm0 8.72c0-1.35.97-2.33 2.25-2.33s2.25.99 2.25 2.33c0 1.37-.97 2.33-2.25 2.33s-2.25-.95-2.25-2.33zM155.24 123.75c0-1.35.97-2.33 2.25-2.33s2.25.99 2.25 2.33c0 1.37-.97 2.33-2.25 2.33-1.27 0-2.25-.96-2.25-2.33zm0 8.72c0-1.35.97-2.33 2.25-2.33s2.25.99 2.25 2.33c0 1.37-.97 2.33-2.25 2.33-1.27.01-2.25-.95-2.25-2.33zM170.24 123.75c0-1.35.97-2.33 2.25-2.33s2.25.99 2.25 2.33c0 1.37-.97 2.33-2.25 2.33s-2.25-.96-2.25-2.33zm0 8.72c0-1.35.97-2.33 2.25-2.33s2.25.99 2.25 2.33c0 1.37-.97 2.33-2.25 2.33s-2.25-.95-2.25-2.33zM185.24 123.75c0-1.35.97-2.33 2.25-2.33s2.25.99 2.25 2.33c0 1.37-.97 2.33-2.25 2.33-1.27 0-2.25-.96-2.25-2.33zm0 8.72c0-1.35.97-2.33 2.25-2.33s2.25.99 2.25 2.33c0 1.37-.97 2.33-2.25 2.33-1.27.01-2.25-.95-2.25-2.33zM200.24 123.75c0-1.35.97-2.33 2.25-2.33s2.25.99 2.25 2.33c0 1.37-.97 2.33-2.25 2.33s-2.25-.96-2.25-2.33zm0 8.72c0-1.35.97-2.33 2.25-2.33s2.25.99 2.25 2.33c0 1.37-.97 2.33-2.25 2.33s-2.25-.95-2.25-2.33zM215.24 123.75c0-1.35.97-2.33 2.25-2.33s2.25.99 2.25 2.33c0 1.37-.97 2.33-2.25 2.33-1.27 0-2.25-.96-2.25-2.33zm0 8.72c0-1.35.97-2.33 2.25-2.33s2.25.99 2.25 2.33c0 1.37-.97 2.33-2.25 2.33-1.27.01-2.25-.95-2.25-2.33zM230.24 123.75c0-1.35.97-2.33 2.25-2.33s2.25.99 2.25 2.33c0 1.37-.97 2.33-2.25 2.33s-2.25-.96-2.25-2.33zm0 8.72c0-1.35.97-2.33 2.25-2.33s2.25.99 2.25 2.33c0 1.37-.97 2.33-2.25 2.33s-2.25-.95-2.25-2.33zM245.24 123.75c0-1.35.97-2.33 2.25-2.33s2.25.99 2.25 2.33c0 1.37-.97 2.33-2.25 2.33-1.27 0-2.25-.96-2.25-2.33zm0 8.72c0-1.35.97-2.33 2.25-2.33s2.25.99 2.25 2.33c0 1.37-.97 2.33-2.25 2.33-1.27.01-2.25-.95-2.25-2.33zM260.24 123.75c0-1.35.97-2.33 2.25-2.33s2.25.99 2.25 2.33c0 1.37-.97 2.33-2.25 2.33-1.27 0-2.25-.96-2.25-2.33zm0 8.72c0-1.35.97-2.33 2.25-2.33s2.25.99 2.25 2.33c0 1.37-.97 2.33-2.25 2.33-1.27.01-2.25-.95-2.25-2.33zM275.24 123.75c0-1.35.97-2.33 2.25-2.33s2.25.99 2.25 2.33c0 1.37-.97 2.33-2.25 2.33s-2.25-.96-2.25-2.33zm0 8.72c0-1.35.97-2.33 2.25-2.33s2.25.99 2.25 2.33c0 1.37-.97 2.33-2.25 2.33s-2.25-.95-2.25-2.33zM290.24 123.75c0-1.35.97-2.33 2.25-2.33s2.25.99 2.25 2.33c0 1.37-.97 2.33-2.25 2.33s-2.25-.96-2.25-2.33zm0 8.72c0-1.35.97-2.33 2.25-2.33s2.25.99 2.25 2.33c0 1.37-.97 2.33-2.25 2.33-1.28.01-2.25-.95-2.25-2.33zM305.24 123.75c0-1.35.97-2.33 2.25-2.33s2.25.99 2.25 2.33c0 1.37-.97 2.33-2.25 2.33s-2.25-.96-2.25-2.33zm0 8.72c0-1.35.97-2.33 2.25-2.33s2.25.99 2.25 2.33c0 1.37-.97 2.33-2.25 2.33-1.28.01-2.25-.95-2.25-2.33zM320.24 123.75c0-1.35.97-2.33 2.25-2.33s2.25.99 2.25 2.33c0 1.37-.97 2.33-2.25 2.33s-2.25-.96-2.25-2.33zm0 8.72c0-1.35.97-2.33 2.25-2.33s2.25.99 2.25 2.33c0 1.37-.97 2.33-2.25 2.33-1.28.01-2.25-.95-2.25-2.33zM335.24 123.75c0-1.35.97-2.33 2.25-2.33s2.25.99 2.25 2.33c0 1.37-.97 2.33-2.25 2.33s-2.25-.96-2.25-2.33zm0 8.72c0-1.35.97-2.33 2.25-2.33s2.25.99 2.25 2.33c0 1.37-.97 2.33-2.25 2.33s-2.25-.95-2.25-2.33zM350.24 123.75c0-1.35.97-2.33 2.25-2.33s2.25.99 2.25 2.33c0 1.37-.97 2.33-2.25 2.33s-2.25-.96-2.25-2.33zm0 8.72c0-1.35.97-2.33 2.25-2.33s2.25.99 2.25 2.33c0 1.37-.97 2.33-2.25 2.33-1.28.01-2.25-.95-2.25-2.33zM1.33 154.56l1.22-1.6c1.05.98 2.5 1.8 4.39 1.8 2.06 0 3.58-1.01 3.58-2.64 0-1.77-1.46-2.94-5.52-2.94v-1.84c3.6 0 4.98-1.19 4.98-2.75 0-1.42-1.22-2.3-3.02-2.3-1.43 0-2.72.63-3.78 1.54l-1.3-1.54c1.38-1.18 3.12-2.01 5.17-2.01 3.12 0 5.43 1.5 5.43 4.13 0 1.85-1.35 3.06-3.31 3.73v.1c2.09.47 3.85 1.84 3.85 4 0 2.86-2.69 4.57-5.91 4.57-2.73 0-4.59-1.03-5.78-2.25zM21.79 139.29h2.47l-.46 2.79-.93 4.12h-1.64l.56-6.91zM32.03 147.35h10.94v1.82H32.03v-1.82zM46.26 148.35c0-5.34 3.1-8.51 7.34-8.51 2.18 0 3.63 1.02 4.58 2.02l-1.41 1.57c-.76-.79-1.67-1.39-3.17-1.39-2.83 0-4.73 2.38-4.73 6.24 0 3.92 1.69 6.33 4.73 6.33 1.01 0 1.97-.3 2.5-.83v-3.9h-3.02v-2.06h5.32v7.06c-1.04 1.04-2.83 1.92-4.95 1.92-4.12.01-7.19-3.07-7.19-8.45zM61.26 148.35c0-5.34 3.1-8.51 7.34-8.51 2.18 0 3.63 1.02 4.58 2.02l-1.41 1.57c-.76-.79-1.67-1.39-3.17-1.39-2.83 0-4.73 2.38-4.73 6.24 0 3.92 1.69 6.33 4.73 6.33 1.01 0 1.97-.3 2.5-.83v-3.9h-3.02v-2.06h5.32v7.06c-1.04 1.04-2.83 1.92-4.95 1.92-4.12.01-7.19-3.07-7.19-8.45zM76.55 148.35c0-5.31 3.16-8.51 7.46-8.51 2 0 3.58.96 4.59 2.02l-1.41 1.57c-.83-.85-1.85-1.39-3.18-1.39-2.91 0-4.87 2.38-4.87 6.24 0 3.92 1.96 6.33 4.91 6.33 1.42 0 2.52-.63 3.48-1.71l1.41 1.52c-1.29 1.52-2.96 2.38-5.14 2.38-4.04.01-7.25-3.07-7.25-8.45zM91.55 148.35c0-5.31 3.16-8.51 7.46-8.51 2 0 3.58.96 4.59 2.02l-1.41 1.57c-.83-.85-1.85-1.39-3.18-1.39-2.91 0-4.87 2.38-4.87 6.24 0 3.92 1.96 6.33 4.91 6.33 1.42 0 2.52-.63 3.48-1.71l1.41 1.52c-1.29 1.52-2.96 2.38-5.14 2.38-4.04.01-7.25-3.07-7.25-8.45zM111.04 140.14h2.92l5.41 16.37h-2.68l-2.64-8.91c-.53-1.77-1.07-3.6-1.54-5.45h-.1c-.49 1.85-1 3.68-1.53 5.45l-2.68 8.91h-2.57l5.41-16.37zm-2.37 9.68h7.59v2h-7.59v-2zM126.04 140.14h2.92l5.41 16.37h-2.68l-2.64-8.91c-.53-1.77-1.07-3.6-1.54-5.45h-.1c-.49 1.85-1 3.68-1.53 5.45l-2.68 8.91h-2.57l5.41-16.37zm-2.38 9.68h7.59v2h-7.59v-2zM136.55 148.35c0-5.31 3.16-8.51 7.46-8.51 2 0 3.58.96 4.59 2.02l-1.41 1.57c-.83-.85-1.85-1.39-3.18-1.39-2.91 0-4.87 2.38-4.87 6.24 0 3.92 1.96 6.33 4.91 6.33 1.42 0 2.52-.63 3.48-1.71l1.41 1.52c-1.29 1.52-2.96 2.38-5.14 2.38-4.05.01-7.25-3.07-7.25-8.45zM151.26 148.35c0-5.34 3.1-8.51 7.34-8.51 2.18 0 3.63 1.02 4.58 2.02l-1.41 1.57c-.76-.79-1.67-1.39-3.17-1.39-2.83 0-4.73 2.38-4.73 6.24 0 3.92 1.69 6.33 4.73 6.33 1.01 0 1.97-.3 2.5-.83v-3.9h-3.02v-2.06h5.32v7.06c-1.04 1.04-2.83 1.92-4.95 1.92-4.13.01-7.19-3.07-7.19-8.45zM166.87 150.29v-10.15h2.53v10.29c0 3.01 1.28 4.19 3.12 4.19 1.86 0 3.17-1.18 3.17-4.19v-10.29h2.42v10.15c0 4.58-2.2 6.52-5.59 6.52-3.41 0-5.65-1.94-5.65-6.52zM181.87 150.29v-10.15h2.53v10.29c0 3.01 1.28 4.19 3.12 4.19 1.86 0 3.17-1.18 3.17-4.19v-10.29h2.42v10.15c0 4.58-2.2 6.52-5.59 6.52-3.41 0-5.65-1.94-5.65-6.52zM201.03 140.14h2.92l5.41 16.37h-2.68l-2.64-8.91c-.53-1.77-1.07-3.6-1.54-5.45h-.1c-.49 1.85-1 3.68-1.53 5.45l-2.68 8.91h-2.57l5.41-16.37zm-2.37 9.68h7.59v2h-7.59v-2zM211.55 148.35c0-5.31 3.16-8.51 7.46-8.51 2 0 3.58.96 4.59 2.02l-1.41 1.57c-.83-.85-1.85-1.39-3.18-1.39-2.91 0-4.87 2.38-4.87 6.24 0 3.92 1.96 6.33 4.91 6.33 1.42 0 2.52-.63 3.48-1.71l1.41 1.52c-1.29 1.52-2.96 2.38-5.14 2.38-4.05.01-7.25-3.07-7.25-8.45zM226.26 148.35c0-5.34 3.1-8.51 7.34-8.51 2.18 0 3.63 1.02 4.58 2.02l-1.41 1.57c-.76-.79-1.67-1.39-3.17-1.39-2.83 0-4.73 2.38-4.73 6.24 0 3.92 1.69 6.33 4.73 6.33 1.01 0 1.97-.3 2.5-.83v-3.9h-3.02v-2.06h5.32v7.06c-1.04 1.04-2.83 1.92-4.95 1.92-4.13.01-7.19-3.07-7.19-8.45zM241.87 150.29v-10.15h2.53v10.29c0 3.01 1.28 4.19 3.12 4.19 1.86 0 3.17-1.18 3.17-4.19v-10.29h2.42v10.15c0 4.58-2.2 6.52-5.59 6.52-3.41 0-5.65-1.94-5.65-6.52zM256.87 150.29v-10.15h2.53v10.29c0 3.01 1.28 4.19 3.12 4.19 1.86 0 3.17-1.18 3.17-4.19v-10.29h2.42v10.15c0 4.58-2.2 6.52-5.59 6.52-3.41 0-5.65-1.94-5.65-6.52zM271.55 148.35c0-5.31 3.16-8.51 7.46-8.51 2 0 3.58.96 4.59 2.02l-1.41 1.57c-.83-.85-1.85-1.39-3.18-1.39-2.91 0-4.87 2.38-4.87 6.24 0 3.92 1.96 6.33 4.91 6.33 1.42 0 2.52-.63 3.48-1.71l1.41 1.52c-1.29 1.52-2.96 2.38-5.14 2.38-4.05.01-7.25-3.07-7.25-8.45zM291.03 140.14h2.92l5.41 16.37h-2.68l-2.64-8.91c-.53-1.77-1.07-3.6-1.54-5.45h-.1c-.49 1.85-1 3.68-1.53 5.45l-2.68 8.91h-2.57l5.41-16.37zm-2.37 9.68h7.59v2h-7.59v-2zM306.03 140.14h2.92l5.41 16.37h-2.68l-2.64-8.91c-.53-1.77-1.07-3.6-1.54-5.45h-.1c-.49 1.85-1 3.68-1.53 5.45l-2.68 8.91h-2.57l5.41-16.37zm-2.37 9.68h7.59v2h-7.59v-2zM316.26 148.35c0-5.34 3.1-8.51 7.34-8.51 2.18 0 3.63 1.02 4.58 2.02l-1.41 1.57c-.76-.79-1.67-1.39-3.17-1.39-2.83 0-4.73 2.38-4.73 6.24 0 3.92 1.69 6.33 4.73 6.33 1.01 0 1.97-.3 2.5-.83v-3.9h-3.02v-2.06h5.32v7.06c-1.04 1.04-2.83 1.92-4.95 1.92-4.13.01-7.19-3.07-7.19-8.45zM336.03 140.14h2.92l5.41 16.37h-2.68l-2.64-8.91c-.53-1.77-1.07-3.6-1.54-5.45h-.1c-.49 1.85-1 3.68-1.53 5.45l-2.68 8.91h-2.57l5.41-16.37zm-2.37 9.68h7.59v2h-7.59v-2zM346.87 150.29v-10.15h2.53v10.29c0 3.01 1.28 4.19 3.12 4.19 1.86 0 3.17-1.18 3.17-4.19v-10.29h2.42v10.15c0 4.58-2.2 6.52-5.59 6.52-3.41 0-5.65-1.94-5.65-6.52zM362.02 147.35h10.94v1.82h-10.94v-1.82zM376.33 154.62l1.19-1.62c1.07.93 2.34 1.76 4.3 1.76 2.12 0 3.78-1.26 3.78-3.33 0-2.04-1.47-3.21-3.64-3.21-1.25 0-1.99.29-3.1.91l-1.24-.79.5-7.76h9.21v2.14h-7.03l-.38 4.25c.87-.36 1.63-.58 2.73-.58 3.02 0 5.47 1.55 5.47 4.98 0 3.47-2.88 5.44-5.98 5.44-2.84 0-4.56-1.05-5.81-2.19zM396.79 139.29h2.47l-.46 2.79-.93 4.12h-1.64l.56-6.91zM181.75 174.79c-1.07-.36-1.85-.57-3.12-.57-.94 0-2.05.34-2.05 1.48 0 2.13 6.06.78 6.06 5.62 0 3.12-2.78 4.37-5.62 4.37-1.33 0-2.68-.23-3.95-.57l.21-2.86c1.09.55 2.24.88 3.43.88.88 0 2.29-.34 2.29-1.64 0-2.63-6.06-.83-6.06-5.67 0-2.89 2.52-4.16 5.25-4.16 1.64 0 2.7.26 3.8.49l-.24 2.63zM185.42 166.21h3.48v3.33h-3.48v-3.33zm0 5.78h3.48v13.39h-3.48v-13.39zM192.57 167.23h3.93c3.9 0 8.55-.13 8.55 4.91 0 2.13-1.43 3.9-3.74 4.21v.05c.99.08 1.56 1.07 1.92 1.87l2.91 7.1h-4.06l-2.18-5.67c-.52-1.35-.99-1.87-2.52-1.87h-1.17v7.54h-3.64v-18.14zm3.64 7.75h1.2c1.79 0 3.85-.26 3.85-2.52 0-2.18-2.03-2.37-3.85-2.37h-1.2v4.89zM208.58 167.23h4.47l6.92 13.57h.05v-13.57h3.48v18.15h-4.45l-6.94-13.57h-.05v13.57h-3.48v-18.15zM232.74 167.23h4.11l7.12 18.15h-4.03l-1.56-4.16h-7.36l-1.59 4.16h-3.77l7.08-18.15zm2 3.64h-.05l-2.63 7.49h5.3l-2.62-7.49zM446.69 109.23c-.82-.28-1.42-.44-2.4-.44-.72 0-1.58.26-1.58 1.14 0 1.64 4.66.6 4.66 4.32 0 2.4-2.14 3.36-4.32 3.36-1.02 0-2.06-.18-3.04-.44l.16-2.2c.84.42 1.72.68 2.64.68.68 0 1.76-.26 1.76-1.26 0-2.02-4.66-.64-4.66-4.36 0-2.22 1.94-3.2 4.04-3.2 1.26 0 2.08.2 2.92.38l-.18 2.02zM457.71 116.8c-.98.54-2.1.82-3.54.82-3.4 0-5.38-1.96-5.38-5.34 0-2.98 1.58-5.44 4.78-5.44 3.82 0 4.9 2.62 4.9 6.22h-7.12c.12 1.66 1.28 2.6 2.94 2.6 1.3 0 2.42-.48 3.42-1.04v2.18zm-1.8-5.59c-.08-1.3-.68-2.42-2.18-2.42s-2.26 1.04-2.38 2.42h4.56zM460.57 107.07h2.54v1.4h.04c.84-1.18 1.98-1.64 3.38-1.64 2.44 0 3.5 1.72 3.5 4.04v6.5h-2.68v-5.5c0-1.26-.02-2.96-1.74-2.96-1.94 0-2.36 2.1-2.36 3.42v5.04h-2.68v-10.3zM478.91 109.23c-.82-.28-1.42-.44-2.4-.44-.72 0-1.58.26-1.58 1.14 0 1.64 4.66.6 4.66 4.32 0 2.4-2.14 3.36-4.32 3.36-1.02 0-2.06-.18-3.04-.44l.16-2.2c.84.42 1.72.68 2.64.68.68 0 1.76-.26 1.76-1.26 0-2.02-4.66-.64-4.66-4.36 0-2.22 1.94-3.2 4.04-3.2 1.26 0 2.08.2 2.92.38l-.18 2.02zM489.93 116.8c-.98.54-2.1.82-3.54.82-3.4 0-5.38-1.96-5.38-5.34 0-2.98 1.58-5.44 4.78-5.44 3.82 0 4.9 2.62 4.9 6.22h-7.12c.12 1.66 1.28 2.6 2.94 2.6 1.3 0 2.42-.48 3.42-1.04v2.18zm-1.8-5.59c-.08-1.3-.68-2.42-2.18-2.42s-2.26 1.04-2.38 2.42h4.56zM498.35 103.41h3.02c3 0 6.58-.1 6.58 3.78 0 1.64-1.1 3-2.88 3.24v.04c.76.06 1.2.82 1.48 1.44l2.24 5.46h-3.12l-1.68-4.36c-.4-1.04-.76-1.44-1.94-1.44h-.9v5.8h-2.8v-13.96zm2.8 5.96h.92c1.38 0 2.96-.2 2.96-1.94 0-1.68-1.56-1.82-2.96-1.82h-.92v3.76zM510.67 103.41h3.44l5.32 10.44h.04v-10.44h2.68v13.96h-3.42l-5.34-10.44h-.04v10.44h-2.68v-13.96zM529.25 103.41h3.16l5.48 13.96h-3.1l-1.2-3.2h-5.66l-1.22 3.2h-2.9l5.44-13.96zm1.54 2.8h-.04l-2.02 5.76h4.08l-2.02-5.76zM549.73 106.83c3.06 0 5.4 2.06 5.4 5.46 0 2.96-1.98 5.32-5.4 5.32-3.4 0-5.38-2.36-5.38-5.32 0-3.4 2.34-5.46 5.38-5.46zm0 8.71c2.06 0 2.6-1.84 2.6-3.56 0-1.58-.84-3.06-2.6-3.06-1.74 0-2.58 1.52-2.58 3.06 0 1.7.54 3.56 2.58 3.56zM557.29 102.37h2.68v15h-2.68v-15zM562.85 102.63h2.68v2.56h-2.68v-2.56zm0 4.44h2.68v10.3h-2.68v-10.3zM577.81 107.07v9.3c0 2.8-1.12 5.44-5.44 5.44-1.06 0-2.28-.16-3.56-.7l.22-2.28c.82.44 2.16.9 3 .9 2.96 0 3.1-2.22 3.1-4h-.04c-.5.88-1.7 1.64-3.2 1.64-3.04 0-4.2-2.44-4.2-5.2 0-2.48 1.28-5.34 4.36-5.34 1.36 0 2.42.46 3.16 1.64h.04v-1.4h2.56zm-2.68 5.04c0-1.76-.68-3.2-2.24-3.2-1.82 0-2.4 1.68-2.4 3.26 0 1.4.74 3.12 2.28 3.12 1.68.01 2.36-1.45 2.36-3.18zM585.29 106.83c3.06 0 5.4 2.06 5.4 5.46 0 2.96-1.98 5.32-5.4 5.32-3.4 0-5.38-2.36-5.38-5.32 0-3.4 2.34-5.46 5.38-5.46zm0 8.71c2.06 0 2.6-1.84 2.6-3.56 0-1.58-.84-3.06-2.6-3.06-1.74 0-2.58 1.52-2.58 3.06 0 1.7.54 3.56 2.58 3.56zM413.66 140.61c1.04-.48 2.44-.78 3.58-.78 3.14 0 4.44 1.3 4.44 4.34v1.32c0 1.04.02 1.82.04 2.58.02.78.06 1.5.12 2.3h-2.36c-.1-.54-.1-1.22-.12-1.54h-.04c-.62 1.14-1.96 1.78-3.18 1.78-1.82 0-3.6-1.1-3.6-3.06 0-1.54.74-2.44 1.76-2.94s2.34-.6 3.46-.6h1.48c0-1.66-.74-2.22-2.32-2.22-1.14 0-2.28.44-3.18 1.12l-.08-2.3zm3.14 8.05c.82 0 1.46-.36 1.88-.92.44-.58.56-1.32.56-2.12h-1.16c-1.2 0-2.98.2-2.98 1.78 0 .88.74 1.26 1.7 1.26zM424.32 140.07h2.54v1.4h.04c.84-1.18 1.98-1.64 3.38-1.64 2.44 0 3.5 1.72 3.5 4.04v6.5h-2.68v-5.5c0-1.26-.02-2.96-1.74-2.96-1.94 0-2.36 2.1-2.36 3.42v5.04h-2.68v-10.3zM437.42 142.03h-1.98v-1.96h1.98v-2.06l2.68-.86v2.92h2.38v1.96h-2.38v4.8c0 .88.24 1.7 1.26 1.7.48 0 .94-.1 1.22-.28l.08 2.12c-.56.16-1.18.24-1.98.24-2.1 0-3.26-1.3-3.26-3.34v-5.24zM444.38 135.63h2.68v2.56h-2.68v-2.56zm0 4.44h2.68v10.3h-2.68v-10.3zM456 142.23c-.82-.28-1.42-.44-2.4-.44-.72 0-1.58.26-1.58 1.14 0 1.64 4.66.6 4.66 4.32 0 2.4-2.14 3.36-4.32 3.36-1.02 0-2.06-.18-3.04-.44l.16-2.2c.84.42 1.72.68 2.64.68.68 0 1.76-.26 1.76-1.26 0-2.02-4.66-.64-4.66-4.36 0-2.22 1.94-3.2 4.04-3.2 1.26 0 2.08.2 2.92.38l-.18 2.02zM467.02 149.8c-.98.54-2.1.82-3.54.82-3.4 0-5.38-1.96-5.38-5.34 0-2.98 1.58-5.44 4.78-5.44 3.82 0 4.9 2.62 4.9 6.22h-7.12c.12 1.66 1.28 2.6 2.94 2.6 1.3 0 2.42-.48 3.42-1.04v2.18zm-1.8-5.59c-.08-1.3-.68-2.42-2.18-2.42s-2.26 1.04-2.38 2.42h4.56zM469.88 140.07h2.54v1.4h.04c.84-1.18 1.98-1.64 3.38-1.64 2.44 0 3.5 1.72 3.5 4.04v6.5h-2.68v-5.5c0-1.26-.02-2.96-1.74-2.96-1.94 0-2.36 2.1-2.36 3.42v5.04h-2.68v-10.3zM488.22 142.23c-.82-.28-1.42-.44-2.4-.44-.72 0-1.58.26-1.58 1.14 0 1.64 4.66.6 4.66 4.32 0 2.4-2.14 3.36-4.32 3.36-1.02 0-2.06-.18-3.04-.44l.16-2.2c.84.42 1.72.68 2.64.68.68 0 1.76-.26 1.76-1.26 0-2.02-4.66-.64-4.66-4.36 0-2.22 1.94-3.2 4.04-3.2 1.26 0 2.08.2 2.92.38l-.18 2.02zM499.24 149.8c-.98.54-2.1.82-3.54.82-3.4 0-5.38-1.96-5.38-5.34 0-2.98 1.58-5.44 4.78-5.44 3.82 0 4.9 2.62 4.9 6.22h-7.12c.12 1.66 1.28 2.6 2.94 2.6 1.3 0 2.42-.48 3.42-1.04v2.18zm-1.8-5.59c-.08-1.3-.68-2.42-2.18-2.42s-2.26 1.04-2.38 2.42h4.56zM507.66 136.41h3.02c3 0 6.58-.1 6.58 3.78 0 1.64-1.1 3-2.88 3.24v.04c.76.06 1.2.82 1.48 1.44l2.24 5.46h-3.12l-1.68-4.36c-.4-1.04-.76-1.44-1.94-1.44h-.9v5.8h-2.8v-13.96zm2.8 5.96h.92c1.38 0 2.96-.2 2.96-1.94 0-1.68-1.56-1.82-2.96-1.82h-.92v3.76zM519.98 136.41h3.44l5.32 10.44h.04v-10.44h2.68v13.96h-3.42l-5.34-10.44h-.04v10.44h-2.68v-13.96zM538.56 136.41h3.16l5.48 13.96h-3.1l-1.2-3.2h-5.66l-1.22 3.2h-2.9l5.44-13.96zm1.54 2.8h-.04l-2.02 5.76h4.08l-2.02-5.76zM559.04 139.83c3.06 0 5.4 2.06 5.4 5.46 0 2.96-1.98 5.32-5.4 5.32-3.4 0-5.38-2.36-5.38-5.32 0-3.4 2.34-5.46 5.38-5.46zm0 8.71c2.06 0 2.6-1.84 2.6-3.56 0-1.58-.84-3.06-2.6-3.06-1.74 0-2.58 1.52-2.58 3.06 0 1.69.54 3.56 2.58 3.56zM566.6 135.37h2.68v15h-2.68v-15zM572.16 135.63h2.68v2.56h-2.68v-2.56zm0 4.44h2.68v10.3h-2.68v-10.3zM587.12 140.07v9.3c0 2.8-1.12 5.44-5.44 5.44-1.06 0-2.28-.16-3.56-.7l.22-2.28c.82.44 2.16.9 3 .9 2.96 0 3.1-2.22 3.1-4h-.04c-.5.88-1.7 1.64-3.2 1.64-3.04 0-4.2-2.44-4.2-5.2 0-2.48 1.28-5.34 4.36-5.34 1.36 0 2.42.46 3.16 1.64h.04v-1.4h2.56zm-2.68 5.05c0-1.76-.68-3.2-2.24-3.2-1.82 0-2.4 1.68-2.4 3.26 0 1.4.74 3.12 2.28 3.12 1.68 0 2.36-1.47 2.36-3.18zM594.6 139.83c3.06 0 5.4 2.06 5.4 5.46 0 2.96-1.98 5.32-5.4 5.32-3.4 0-5.38-2.36-5.38-5.32 0-3.4 2.34-5.46 5.38-5.46zm0 8.71c2.06 0 2.6-1.84 2.6-3.56 0-1.58-.84-3.06-2.6-3.06-1.74 0-2.58 1.52-2.58 3.06 0 1.69.54 3.56 2.58 3.56z" class="st1"/><path d="M66.23 10.61c-.98-.34-1.7-.53-2.88-.53-.86 0-1.9.31-1.9 1.37 0 1.97 5.59.72 5.59 5.18 0 2.88-2.57 4.03-5.18 4.03-1.22 0-2.47-.22-3.65-.53l.19-2.64c1.01.5 2.06.82 3.17.82.82 0 2.11-.31 2.11-1.51 0-2.42-5.59-.77-5.59-5.23 0-2.66 2.33-3.84 4.85-3.84 1.51 0 2.5.24 3.5.46l-.21 2.42zM69.62 2.69h3.22v3.07h-3.22V2.69zm0 5.33h3.22v12.36h-3.22V8.02zM76.5 3.62h4.58c5.14 0 9.67 1.73 9.67 8.38s-4.54 8.38-9.67 8.38H76.5V3.62zm3.36 14.12h1.87c2.81 0 5.52-2.09 5.52-5.74 0-3.65-2.71-5.74-5.52-5.74h-1.87v11.48zM93.62 2.69h3.22v3.07h-3.22V2.69zm0 5.33h3.22v12.36h-3.22V8.02zM100.29 8.02h2.86v2.81h.05c.14-1.15 1.46-3.1 3.38-3.1.31 0 .65 0 .98.1v3.24c-.29-.17-.86-.26-1.44-.26-2.62 0-2.62 3.26-2.62 5.04v4.54h-3.22V8.02zM119.04 19.68c-1.18.65-2.52.98-4.25.98-4.08 0-6.46-2.35-6.46-6.41 0-3.58 1.9-6.53 5.74-6.53 4.58 0 5.88 3.14 5.88 7.46h-8.54c.14 1.99 1.54 3.12 3.53 3.12 1.56 0 2.9-.58 4.1-1.25v2.63zm-2.16-6.7c-.1-1.56-.82-2.9-2.62-2.9-1.8 0-2.71 1.25-2.86 2.9h5.48zM130.48 10.68c-.58-.26-1.2-.46-2.18-.46-1.99 0-3.26 1.58-3.26 3.91 0 2.28 1.08 4.03 3.34 4.03.91 0 1.92-.34 2.47-.58l.14 2.66c-.94.29-1.9.41-3.22.41-4.06 0-6.1-2.76-6.1-6.53 0-3.58 2.11-6.41 5.98-6.41 1.3 0 2.23.14 3.12.41l-.29 2.56zM134.18 10.37h-2.38V8.02h2.38V5.54l3.22-1.03v3.5h2.86v2.35h-2.86v5.76c0 1.06.29 2.04 1.51 2.04.58 0 1.13-.12 1.46-.34l.1 2.54c-.67.19-1.42.29-2.38.29-2.52 0-3.91-1.56-3.91-4.01v-6.27zM149.2 8.02h2.86v2.81h.05c.14-1.15 1.46-3.1 3.38-3.1.31 0 .65 0 .98.1v3.24c-.29-.17-.86-.26-1.44-.26-2.62 0-2.62 3.26-2.62 5.04v4.54h-3.22V8.02zM167.95 19.68c-1.18.65-2.52.98-4.25.98-4.08 0-6.46-2.35-6.46-6.41 0-3.58 1.9-6.53 5.74-6.53 4.58 0 5.88 3.14 5.88 7.46h-8.54c.14 1.99 1.54 3.12 3.53 3.12 1.56 0 2.9-.58 4.1-1.25v2.63zm-2.16-6.7c-.1-1.56-.82-2.9-2.62-2.9s-2.71 1.25-2.86 2.9h5.48zM178.73 10.61c-.98-.34-1.7-.53-2.88-.53-.86 0-1.9.31-1.9 1.37 0 1.97 5.59.72 5.59 5.18 0 2.88-2.57 4.03-5.18 4.03-1.22 0-2.47-.22-3.65-.53l.19-2.64c1.01.5 2.06.82 3.17.82.82 0 2.11-.31 2.11-1.51 0-2.42-5.59-.77-5.59-5.23 0-2.66 2.33-3.84 4.85-3.84 1.51 0 2.5.24 3.5.46l-.21 2.42zM193.39 20.38h-3.05V18.7h-.05c-.98 1.2-2.38 1.97-4.06 1.97-2.93 0-4.2-2.06-4.2-4.85v-7.8h3.22v6.6c0 1.51.02 3.55 2.09 3.55 2.33 0 2.83-2.52 2.83-4.1V8.02h3.22v12.36zM196.77 2.37h3.22v18h-3.22v-18zM204.43 10.37h-2.38V8.02h2.38V5.54l3.22-1.03v3.5h2.86v2.35h-2.86v5.76c0 1.06.29 2.04 1.51 2.04.58 0 1.13-.12 1.46-.34l.1 2.54c-.67.19-1.42.29-2.38.29-2.52 0-3.91-1.56-3.91-4.01v-6.27zM224.25 5.25c-1.72 2.74-2.9 5.26-2.9 8.96 0 3.42 1.18 6.24 2.9 8.96h-2.54c-2-2.72-3.2-5.54-3.2-8.96 0-3.7 1.2-6.22 3.2-8.96h2.54zM226.65 12.03h-1.98v-1.96h1.98V8.01l2.68-.86v2.92h2.38v1.96h-2.38v4.8c0 .88.24 1.7 1.26 1.7.48 0 .94-.1 1.22-.28l.08 2.12c-.56.16-1.18.24-1.98.24-2.1 0-3.26-1.3-3.26-3.34v-5.24zM234.01 10.61c1.04-.48 2.44-.78 3.58-.78 3.14 0 4.44 1.3 4.44 4.34v1.32c0 1.04.02 1.82.04 2.58.02.78.06 1.5.12 2.3h-2.36c-.1-.54-.1-1.22-.12-1.54h-.04c-.62 1.14-1.96 1.78-3.18 1.78-1.82 0-3.6-1.1-3.6-3.06 0-1.54.74-2.44 1.76-2.94s2.34-.6 3.46-.6h1.48c0-1.66-.74-2.22-2.32-2.22-1.14 0-2.28.44-3.18 1.12l-.08-2.3zm3.14 8.05c.82 0 1.46-.36 1.88-.92.44-.58.56-1.32.56-2.12h-1.16c-1.2 0-2.98.2-2.98 1.78 0 .88.74 1.26 1.7 1.26zM244.73 10.07h2.38v2.34h.04c.12-.96 1.22-2.58 2.82-2.58.26 0 .54 0 .82.08v2.7c-.24-.14-.72-.22-1.2-.22-2.18 0-2.18 2.72-2.18 4.2v3.78h-2.68v-10.3zM261.91 10.07v9.3c0 2.8-1.12 5.44-5.44 5.44-1.06 0-2.28-.16-3.56-.7l.22-2.28c.82.44 2.16.9 3 .9 2.96 0 3.1-2.22 3.1-4h-.04c-.5.88-1.7 1.64-3.2 1.64-3.04 0-4.2-2.44-4.2-5.2 0-2.48 1.28-5.34 4.36-5.34 1.36 0 2.42.46 3.16 1.64h.04v-1.4h2.56zm-2.68 5.04c0-1.76-.68-3.2-2.24-3.2-1.82 0-2.4 1.68-2.4 3.26 0 1.4.74 3.12 2.28 3.12 1.68.01 2.36-1.45 2.36-3.18zM272.93 19.8c-.98.54-2.1.82-3.54.82-3.4 0-5.38-1.96-5.38-5.34 0-2.98 1.58-5.44 4.78-5.44 3.82 0 4.9 2.62 4.9 6.22h-7.12c.12 1.66 1.28 2.6 2.94 2.6 1.3 0 2.42-.48 3.42-1.04v2.18zm-1.8-5.59c-.08-1.3-.68-2.42-2.18-2.42s-2.26 1.04-2.38 2.42h4.56zM276.67 12.03h-1.98v-1.96h1.98V8.01l2.68-.86v2.92h2.38v1.96h-2.38v4.8c0 .88.24 1.7 1.26 1.7.48 0 .94-.1 1.22-.28l.08 2.12c-.56.16-1.18.24-1.98.24-2.1 0-3.26-1.3-3.26-3.34v-5.24zM295.25 12.23c-.82-.28-1.42-.44-2.4-.44-.72 0-1.58.26-1.58 1.14 0 1.64 4.66.6 4.66 4.32 0 2.4-2.14 3.36-4.32 3.36-1.02 0-2.06-.18-3.04-.44l.16-2.2c.84.42 1.72.68 2.64.68.68 0 1.76-.26 1.76-1.26 0-2.02-4.66-.64-4.66-4.36 0-2.22 1.94-3.2 4.04-3.2 1.26 0 2.08.2 2.92.38l-.18 2.02zM306.27 19.8c-.98.54-2.1.82-3.54.82-3.4 0-5.38-1.96-5.38-5.34 0-2.98 1.58-5.44 4.78-5.44 3.82 0 4.9 2.62 4.9 6.22h-7.12c.12 1.66 1.28 2.6 2.94 2.6 1.3 0 2.42-.48 3.42-1.04v2.18zm-1.8-5.59c-.08-1.3-.68-2.42-2.18-2.42s-2.26 1.04-2.38 2.42h4.56zM315.91 19.2h-.04c-.94 1.14-1.88 1.42-3.02 1.42-3.22 0-4.38-2.6-4.38-5.42 0-2.84 1.16-5.36 4.38-5.36 1.52 0 2.5.64 3.14 1.7h.04v-1.46h2.56v14.5h-2.68V19.2zm-4.64-4.01c0 1.42.5 3.34 2.26 3.34 1.78 0 2.36-1.88 2.36-3.34 0-1.44-.68-3.28-2.4-3.28-1.74 0-2.22 1.9-2.22 3.28zM330.81 20.38h-2.54v-1.4h-.04c-.82 1-1.98 1.64-3.38 1.64-2.44 0-3.5-1.72-3.5-4.04v-6.5h2.68v5.5c0 1.26.02 2.96 1.74 2.96 1.94 0 2.36-2.1 2.36-3.42v-5.04h2.68v10.3zM341.83 19.8c-.98.54-2.1.82-3.54.82-3.4 0-5.38-1.96-5.38-5.34 0-2.98 1.58-5.44 4.78-5.44 3.82 0 4.9 2.62 4.9 6.22h-7.12c.12 1.66 1.28 2.6 2.94 2.6 1.3 0 2.42-.48 3.42-1.04v2.18zm-1.8-5.59c-.08-1.3-.68-2.42-2.18-2.42s-2.26 1.04-2.38 2.42h4.56zM344.68 10.07h2.54v1.4h.04c.84-1.18 1.98-1.64 3.38-1.64 2.44 0 3.5 1.72 3.5 4.04v6.5h-2.68v-5.5c0-1.26-.02-2.96-1.74-2.96-1.94 0-2.36 2.1-2.36 3.42v5.04h-2.68v-10.3zM363.59 12.29c-.48-.22-1-.38-1.82-.38-1.66 0-2.72 1.32-2.72 3.26 0 1.9.9 3.36 2.78 3.36.76 0 1.6-.28 2.06-.48l.12 2.22c-.78.24-1.58.34-2.68.34-3.38 0-5.08-2.3-5.08-5.44 0-2.98 1.76-5.34 4.98-5.34 1.08 0 1.86.12 2.6.34l-.24 2.12zM374.05 19.8c-.98.54-2.1.82-3.54.82-3.4 0-5.38-1.96-5.38-5.34 0-2.98 1.58-5.44 4.78-5.44 3.82 0 4.9 2.62 4.9 6.22h-7.12c.12 1.66 1.28 2.6 2.94 2.6 1.3 0 2.42-.48 3.42-1.04v2.18zm-1.8-5.59c-.08-1.3-.68-2.42-2.18-2.42s-2.26 1.04-2.38 2.42h4.56zM375.66 23.18c1.7-2.72 2.9-5.54 2.9-8.96 0-3.7-1.2-6.22-2.9-8.96h2.52c1.98 2.74 3.22 5.26 3.22 8.96 0 3.42-1.24 6.24-3.22 8.96h-2.52z" class="st2"/><path d="m8.94 34.99 1.19-1.62c1.07.93 2.34 1.76 4.3 1.76 2.12 0 3.78-1.26 3.78-3.33 0-2.04-1.47-3.21-3.64-3.21-1.25 0-1.99.29-3.1.91l-1.24-.79.5-7.76h9.21v2.14H12.9l-.38 4.25c.87-.36 1.63-.58 2.73-.58 3.02 0 5.47 1.55 5.47 4.98 0 3.47-2.88 5.44-5.98 5.44-2.83 0-4.55-1.06-5.8-2.19zM29.39 19.66h2.47l-.46 2.79-.93 4.12h-1.64l.56-6.91zM409.05 34.93l1.22-1.6c1.05.98 2.5 1.8 4.39 1.8 2.06 0 3.58-1.01 3.58-2.64 0-1.77-1.46-2.94-5.52-2.94v-1.84c3.6 0 4.98-1.19 4.98-2.75 0-1.42-1.22-2.3-3.02-2.3-1.43 0-2.72.63-3.78 1.54l-1.29-1.54c1.38-1.18 3.12-2.01 5.17-2.01 3.12 0 5.43 1.5 5.43 4.13 0 1.85-1.35 3.06-3.31 3.73v.1c2.09.47 3.85 1.84 3.85 4 0 2.86-2.69 4.57-5.91 4.57-2.73 0-4.6-1.04-5.79-2.25zM429.52 19.66h2.47l-.46 2.79-.93 4.12h-1.64l.56-6.91z"/><path d="M43.85 35.13h347.4v26H43.85z" style="fill:none;stroke:red;stroke-width:3"/></g></svg>