<svg xmlns="http://www.w3.org/2000/svg" xmlns:xlink="http://www.w3.org/1999/xlink" xml:space="preserve" style="enable-background:new 0 0 200 150" viewBox="0 0 200 150"><style>.st6{fill:#ff007f}.st7{fill:#007fff}.st8{fill:#00c800}.st9{display:none}.st10{display:inline;opacity:.45}.st15{fill:#ffffbf}.st15,.st16,.st18{display:inline}.st18{fill:none;stroke:#ff007f;stroke-width:4}</style><g id="ベン図"><path d="M70.92 43.02h93.36v74.09H70.92z" style="opacity:.2;fill:#00c800"/><path d="M70.92 43.02h93.36v74.09H70.92z" style="opacity:.7;fill:none;stroke:#00c800;stroke-width:2.4"/><path d="M36.46 43.02h58.37v74.09H36.46z" style="opacity:.2;fill:#007fff"/><path d="M36.46 43.02h58.37v74.09H36.46z" style="opacity:.7;fill:none;stroke:#007fff;stroke-width:2.4"/><path d="M67.12 33.5h69.44v72.4H67.12z" style="opacity:.2;fill:#ff007f"/><path d="M67.12 33.5h69.44v72.4H67.12z" style="opacity:.7;fill:none;stroke:#ff007f;stroke-width:2.4"/><path d="M145.48 28.71v5.59c0 2.12.94 3.01 2.2 3.01 1.4 0 2.3-.92 2.3-3.01v-5.59h1.23v5.5c0 2.9-1.53 4.09-3.57 4.09-1.93 0-3.39-1.11-3.39-4.03v-5.56h1.23zM154.67 29.46c.01.42-.29.76-.78.76-.43 0-.74-.34-.74-.76 0-.43.32-.77.77-.77s.75.34.75.77zm-1.38 8.69v-6.78h1.23v6.78h-1.23zM159.44 33.9v.91h-3.46v-.91h3.46zM162.73 29.74h-2.87V28.7h6.99v1.04h-2.89v8.4h-1.23v-8.4zM168.55 34.98c.03 1.67 1.09 2.35 2.33 2.35.88 0 1.42-.15 1.88-.35l.21.88c-.43.2-1.18.42-2.25.42-2.09 0-3.33-1.37-3.33-3.42s1.21-3.66 3.18-3.66c2.21 0 2.8 1.95 2.8 3.19 0 .25-.03.45-.04.57h-4.78zm3.62-.88c.01-.78-.32-2-1.71-2-1.25 0-1.79 1.15-1.89 2h3.6zM176.27 29.46c.01.42-.29.76-.78.76-.43 0-.74-.34-.74-.76 0-.43.32-.77.77-.77s.75.34.75.77zm-1.37 8.69v-6.78h1.23v6.78h-1.23z" class="st6"/><path d="M24.5 121.9c.62-.13 1.5-.2 2.34-.2 1.3 0 2.14.24 2.73.77.48.42.74 1.06.74 1.79 0 1.25-.78 2.07-1.78 2.41v.04c.73.25 1.16.92 1.39 1.9.31 1.32.53 2.23.73 2.59h-1.26c-.15-.27-.36-1.08-.63-2.25-.28-1.3-.78-1.79-1.89-1.83h-1.15v4.09H24.5v-9.31zm1.22 4.3h1.25c1.3 0 2.13-.71 2.13-1.79 0-1.22-.88-1.75-2.17-1.76-.59 0-1.01.06-1.2.11v3.44zM32.69 128.05c.03 1.67 1.09 2.35 2.33 2.35.88 0 1.41-.15 1.88-.35l.21.88c-.43.2-1.18.42-2.25.42-2.09 0-3.33-1.37-3.33-3.42s1.2-3.66 3.18-3.66c2.21 0 2.8 1.95 2.8 3.19 0 .25-.03.45-.04.57h-4.78zm3.62-.88c.01-.79-.32-2-1.71-2-1.25 0-1.79 1.15-1.89 2h3.6zM39.48 124.43l1.48 4.01c.15.45.32.98.43 1.39h.03c.13-.41.27-.92.43-1.42l1.34-3.98h1.3l-1.85 4.83c-.88 2.33-1.48 3.52-2.33 4.24-.6.53-1.2.74-1.51.8l-.31-1.04c.31-.1.71-.29 1.08-.6.34-.27.76-.74 1.04-1.37.06-.13.1-.22.1-.29s-.03-.17-.08-.32l-2.51-6.25h1.36zM45.64 126.27c0-.7-.01-1.28-.06-1.83h1.09l.07 1.12h.03c.34-.64 1.12-1.27 2.24-1.27.94 0 2.4.56 2.4 2.89v4.05h-1.23v-3.91c0-1.09-.41-2-1.57-2-.81 0-1.44.57-1.65 1.26-.06.15-.08.36-.08.57v4.08h-1.23v-4.96zM59.56 127.77c0 2.51-1.74 3.6-3.38 3.6-1.83 0-3.25-1.34-3.25-3.49 0-2.27 1.48-3.6 3.36-3.6 1.96 0 3.27 1.42 3.27 3.49zm-5.38.07c0 1.49.85 2.61 2.06 2.61 1.18 0 2.06-1.11 2.06-2.63 0-1.15-.57-2.6-2.03-2.6-1.46-.01-2.09 1.33-2.09 2.62zM61.13 121.27h1.23v9.95h-1.23v-9.95zM70.3 121.27v8.19c0 .6.01 1.29.06 1.75h-1.11l-.06-1.18h-.03c-.38.76-1.2 1.33-2.31 1.33-1.64 0-2.9-1.39-2.9-3.45-.01-2.25 1.39-3.64 3.04-3.64 1.04 0 1.74.49 2.05 1.04h.03v-4.05h1.23zm-1.23 5.92c0-.15-.01-.36-.06-.52-.18-.79-.85-1.43-1.78-1.43-1.27 0-2.03 1.12-2.03 2.62 0 1.37.67 2.51 2 2.51.83 0 1.58-.55 1.81-1.47.04-.17.06-.34.06-.53v-1.18zM72.19 129.95c.36.24 1.01.49 1.62.49.9 0 1.32-.45 1.32-1.01 0-.59-.35-.91-1.26-1.25-1.22-.43-1.79-1.11-1.79-1.92 0-1.09.88-1.99 2.34-1.99.69 0 1.29.2 1.67.42l-.31.9c-.27-.17-.76-.39-1.39-.39-.73 0-1.13.42-1.13.92 0 .56.41.81 1.29 1.15 1.18.45 1.78 1.04 1.78 2.05 0 1.19-.92 2.03-2.54 2.03-.74 0-1.43-.18-1.9-.46l.3-.94z" class="st7"/><path d="m104.22 128.24-.98 2.97h-1.26l3.21-9.44h1.47l3.22 9.44h-1.3l-1.01-2.97h-3.35zm3.1-.95-.92-2.72c-.21-.62-.35-1.18-.49-1.72h-.03c-.14.56-.29 1.13-.48 1.71l-.92 2.73h2.84zM111.23 126.27c0-.7-.01-1.28-.06-1.83h1.08l.06 1.09h.04c.38-.64 1.01-1.25 2.13-1.25.92 0 1.62.56 1.92 1.36h.03c.21-.38.48-.67.76-.88.41-.31.85-.48 1.5-.48.9 0 2.23.59 2.23 2.94v3.99h-1.21v-3.84c0-1.3-.48-2.09-1.47-2.09-.7 0-1.25.52-1.46 1.12-.06.17-.1.39-.1.62v4.19h-1.21v-4.06c0-1.08-.48-1.86-1.41-1.86-.77 0-1.33.62-1.53 1.23-.07.18-.1.39-.1.6v4.09h-1.21v-4.94zM126.68 131.21l-.1-.85h-.04c-.38.53-1.11 1.01-2.07 1.01-1.37 0-2.07-.97-2.07-1.95 0-1.64 1.46-2.54 4.08-2.52v-.14c0-.56-.15-1.57-1.54-1.57-.63 0-1.29.2-1.76.5l-.28-.81c.56-.36 1.37-.6 2.23-.6 2.07 0 2.58 1.42 2.58 2.77v2.54c0 .59.03 1.16.11 1.62h-1.14zm-.18-3.46c-1.34-.03-2.87.21-2.87 1.53 0 .8.53 1.18 1.16 1.18.88 0 1.44-.56 1.64-1.13.04-.13.07-.27.07-.39v-1.19zM129.69 126.55c0-.8-.01-1.49-.06-2.12h1.08l.04 1.33h.06c.31-.91 1.05-1.48 1.88-1.48.14 0 .24.01.35.04v1.16c-.13-.03-.25-.04-.42-.04-.87 0-1.49.66-1.65 1.58-.03.17-.06.36-.06.57v3.61h-1.22v-4.65zM133.51 130.5l3.07-3.99c.29-.36.58-.69.88-1.05v-.03h-3.67v-.99h5.17l-.01.77-3.03 3.94c-.28.38-.56.71-.87 1.06v.03h3.96v.98h-5.5v-.72zM146.12 124.43c-.03.49-.06 1.04-.06 1.86v3.94c0 1.55-.31 2.51-.97 3.1-.66.62-1.61.81-2.46.81-.81 0-1.71-.2-2.25-.56l.31-.94c.45.28 1.15.53 1.99.53 1.26 0 2.19-.66 2.19-2.37v-.76h-.03c-.38.63-1.11 1.13-2.16 1.13-1.68 0-2.89-1.43-2.89-3.31 0-2.3 1.5-3.6 3.05-3.6 1.18 0 1.82.62 2.12 1.18h.03l.06-1.02h1.07zm-1.27 2.68c0-.21-.01-.39-.07-.56-.22-.71-.83-1.3-1.72-1.3-1.18 0-2.02.99-2.02 2.56 0 1.33.67 2.44 2 2.44.76 0 1.44-.48 1.71-1.26.07-.21.1-.45.1-.66v-1.22zM153.8 129.37c0 .7.01 1.32.06 1.85h-1.09l-.07-1.11h-.03c-.32.55-1.04 1.26-2.24 1.26-1.06 0-2.34-.59-2.34-2.97v-3.96h1.23v3.75c0 1.29.39 2.16 1.51 2.16.83 0 1.4-.57 1.62-1.12.07-.18.11-.41.11-.63v-4.16h1.23v4.93zM157.22 122.53c.01.42-.29.76-.78.76-.43 0-.74-.34-.74-.76 0-.43.32-.77.77-.77.46 0 .75.33.75.77zm-1.37 8.68v-6.78h1.23v6.78h-1.23zM165.28 127.77c0 2.51-1.74 3.6-3.38 3.6-1.83 0-3.25-1.34-3.25-3.49 0-2.27 1.49-3.6 3.36-3.6 1.95 0 3.27 1.42 3.27 3.49zm-5.38.07c0 1.49.85 2.61 2.06 2.61 1.18 0 2.06-1.11 2.06-2.63 0-1.15-.57-2.6-2.03-2.6s-2.09 1.33-2.09 2.62zM172.51 129.37c0 .7.01 1.32.06 1.85h-1.09l-.07-1.11h-.03c-.32.55-1.04 1.26-2.24 1.26-1.06 0-2.34-.59-2.34-2.97v-3.96h1.23v3.75c0 1.29.39 2.16 1.51 2.16.83 0 1.4-.57 1.62-1.12.07-.18.11-.41.11-.63v-4.16h1.23v4.93zM175.94 122.53c.01.42-.29.76-.78.76-.43 0-.74-.34-.74-.76 0-.43.32-.77.77-.77.46 0 .75.33.75.77zm-1.37 8.68v-6.78h1.23v6.78h-1.23z" class="st8"/></g><g id="Ui-Teiマスク"><defs><path id="SVGID_1_" d="M10.01 9.94h179.97v130.13H10.01z"/></defs><clipPath id="SVGID_00000108299207635696588060000002998009010018194871_"><use xlink:href="#SVGID_1_" style="overflow:visible"/></clipPath><path d="M-2.13-2.19v155h205v-155h-205zM136.56 105.9H67.12V33.5h69.44v72.4z" style="opacity:.45;clip-path:url(#SVGID_00000108299207635696588060000002998009010018194871_)"/><path d="M67.12 33.5h69.44v72.4H67.12z" style="fill:none;stroke:#ff007f;stroke-width:4"/><path d="M138.64 24.79h43.88v16.27h-43.88z" style="fill:#ffffbf"/><path d="M145.48 28.71v5.59c0 2.12.94 3.01 2.2 3.01 1.4 0 2.3-.92 2.3-3.01v-5.59h1.23v5.5c0 2.9-1.53 4.09-3.57 4.09-1.93 0-3.39-1.11-3.39-4.03v-5.56h1.23zM154.67 29.46c.01.42-.29.76-.78.76-.43 0-.74-.34-.74-.76 0-.43.32-.77.77-.77s.75.34.75.77zm-1.38 8.69v-6.78h1.23v6.78h-1.23zM159.44 33.9v.91h-3.46v-.91h3.46zM162.73 29.74h-2.87V28.7h6.99v1.04h-2.89v8.4h-1.23v-8.4zM168.55 34.98c.03 1.67 1.09 2.35 2.33 2.35.88 0 1.42-.15 1.88-.35l.21.88c-.43.2-1.18.42-2.25.42-2.09 0-3.33-1.37-3.33-3.42s1.21-3.66 3.18-3.66c2.21 0 2.8 1.95 2.8 3.19 0 .25-.03.45-.04.57h-4.78zm3.62-.88c.01-.78-.32-2-1.71-2-1.25 0-1.79 1.15-1.89 2h3.6zM176.27 29.46c.01.42-.29.76-.78.76-.43 0-.74-.34-.74-.76 0-.43.32-.77.77-.77s.75.34.75.77zm-1.37 8.69v-6.78h1.23v6.78h-1.23z" class="st6"/></g></svg>